STARTFONT 2.1
COMMENT Sources:
COMMENT -Misc-Fixed-Medium-O-Normal--13-120-75-75-C-70-ISO10646-1 $ucs-fonts: 7x13O.bdf,v 1.9 2002-11-08 20:42:37+00 mgk25 Rel $
COMMENT -windows-dina-medium-i-normal--13-80-96-96-c-70-microsoft-cp1252
FONT -dylex-terminal-Medium-O-Normal--26-240-75-75-C-140-ISO10646-1
SIZE 26 75 75
FONTBOUNDINGBOX 14 26 0 -6
STARTPROPERTIES 23
FONTNAME_REGISTRY ""
FOUNDRY "dylex"
FAMILY_NAME "terminal"
WEIGHT_NAME "Medium"
SLANT "O"
SETWIDTH_NAME "Normal"
ADD_STYLE_NAME ""
PIXEL_SIZE 26
POINT_SIZE 240
RESOLUTION_X 75
RESOLUTION_Y 75
SPACING "C"
AVERAGE_WIDTH 140
CHARSET_REGISTRY "ISO10646"
CHARSET_ENCODING "1"
COPYRIGHT "Public domain font.  Share and enjoy."
DESTINATION 1
DEFAULT_CHAR 0
FONT_DESCENT 6
FONT_ASCENT 20
CAP_HEIGHT 18
X_HEIGHT 12
_GBDFED_INFO "Edited with gbdfed 1.6."
ENDPROPERTIES
CHARS 895
STARTCHAR char0
ENCODING 0
SWIDTH 994 0
DWIDTH 14 0
BBX 14 26 0 -6
BITMAP
0000
0000
0CCC
0CCC
0000
0000
0C0C
0C0C
0000
0000
3030
3030
0000
0000
3030
3030
0000
0000
C0C0
C0C0
0000
0000
CCC0
CCC0
0000
0000
ENDCHAR
STARTCHAR char1
ENCODING 1
SWIDTH 994 0
DWIDTH 14 0
BBX 14 26 0 -6
BITMAP
0000
0000
0000
0000
0000
0000
0000
0000
0300
0300
0FC0
0FC0
3FF0
3FF0
0FC0
0FC0
0300
0300
0000
0000
0000
0000
0000
0000
0000
0000
ENDCHAR
STARTCHAR ltshade
ENCODING 2
SWIDTH 994 0
DWIDTH 14 0
BBX 14 26 0 -6
BITMAP
0000
0000
3330
3330
0000
0000
CCCC
CCCC
0000
0000
3330
3330
0000
0000
CCCC
CCCC
0000
0000
3330
3330
0000
0000
CCCC
CCCC
0000
0000
ENDCHAR
STARTCHAR char3
ENCODING 3
SWIDTH 994 0
DWIDTH 14 0
BBX 14 26 0 -6
BITMAP
0000
0000
3300
3300
3300
3300
3F00
3F00
3300
3300
33FC
33FC
0030
0030
0030
0030
0030
0030
0030
0030
0000
0000
0000
0000
0000
0000
ENDCHAR
STARTCHAR char4
ENCODING 4
SWIDTH 994 0
DWIDTH 14 0
BBX 14 26 0 -6
BITMAP
0000
0000
3F00
3F00
3000
3000
3C00
3C00
3000
3000
30FC
30FC
00C0
00C0
00F0
00F0
00C0
00C0
00C0
00C0
0000
0000
0000
0000
0000
0000
ENDCHAR
STARTCHAR char5
ENCODING 5
SWIDTH 994 0
DWIDTH 14 0
BBX 14 26 0 -6
BITMAP
0000
0000
0F00
0F00
3000
3000
3000
3000
3000
3000
0FFC
0FFC
00CC
00CC
00F0
00F0
00CC
00CC
00CC
00CC
0000
0000
0000
0000
0000
0000
ENDCHAR
STARTCHAR char6
ENCODING 6
SWIDTH 994 0
DWIDTH 14 0
BBX 14 26 0 -6
BITMAP
0000
0000
3000
3000
3000
3000
3000
3000
3000
3000
3FFC
3FFC
00C0
00C0
00F0
00F0
00C0
00C0
00C0
00C0
0000
0000
0000
0000
0000
0000
ENDCHAR
STARTCHAR char7
ENCODING 7
SWIDTH 994 0
DWIDTH 14 0
BBX 14 26 0 -6
BITMAP
0000
0000
0000
0000
0300
0300
0CC0
0CC0
0CC0
0CC0
0300
0300
0000
0000
0000
0000
0000
0000
0000
0000
0000
0000
0000
0000
0000
0000
ENDCHAR
STARTCHAR char177
ENCODING 8
SWIDTH 994 0
DWIDTH 14 0
BBX 14 26 0 -6
BITMAP
0000
0000
0000
0000
0000
0000
0300
0300
0300
0300
FFF0
FFF0
0C00
0C00
0C00
0C00
0000
0000
FFC0
FFC0
0000
0000
0000
0000
0000
0000
ENDCHAR
STARTCHAR char9
ENCODING 9
SWIDTH 994 0
DWIDTH 14 0
BBX 14 26 0 -6
BITMAP
0000
0000
3C00
3C00
3300
3300
3300
3300
3300
3300
33C0
33C0
00C0
00C0
00C0
00C0
00C0
00C0
00FC
00FC
0000
0000
0000
0000
0000
0000
ENDCHAR
STARTCHAR char10
ENCODING 10
SWIDTH 994 0
DWIDTH 14 0
BBX 14 26 0 -6
BITMAP
0000
0000
3300
3300
3300
3300
3300
3300
0C00
0C00
0CFC
0CFC
0030
0030
0030
0030
0030
0030
0030
0030
0000
0000
0000
0000
0000
0000
ENDCHAR
STARTCHAR char11
ENCODING 11
SWIDTH 994 0
DWIDTH 14 0
BBX 14 26 0 -6
BITMAP
0300
0300
0300
0300
0300
0300
0300
0300
0300
0300
0300
0300
FF00
FF00
0000
0000
0000
0000
0000
0000
0000
0000
0000
0000
0000
0000
ENDCHAR
STARTCHAR char12
ENCODING 12
SWIDTH 994 0
DWIDTH 14 0
BBX 14 26 0 -6
BITMAP
0000
0000
0000
0000
0000
0000
0000
0000
0000
0000
0000
0000
FF00
FF00
0300
0300
0300
0300
0300
0300
0300
0300
0300
0300
0300
0300
ENDCHAR
STARTCHAR char13
ENCODING 13
SWIDTH 994 0
DWIDTH 14 0
BBX 14 26 0 -6
BITMAP
0000
0000
0000
0000
0000
0000
0000
0000
0000
0000
0000
0000
03FC
03FC
0300
0300
0300
0300
0300
0300
0300
0300
0300
0300
0300
0300
ENDCHAR
STARTCHAR char14
ENCODING 14
SWIDTH 994 0
DWIDTH 14 0
BBX 14 26 0 -6
BITMAP
0300
0300
0300
0300
0300
0300
0300
0300
0300
0300
0300
0300
03FC
03FC
0000
0000
0000
0000
0000
0000
0000
0000
0000
0000
0000
0000
ENDCHAR
STARTCHAR char15
ENCODING 15
SWIDTH 994 0
DWIDTH 14 0
BBX 14 26 0 -6
BITMAP
0300
0300
0300
0300
0300
0300
0300
0300
0300
0300
0300
0300
FFFC
FFFC
0300
0300
0300
0300
0300
0300
0300
0300
0300
0300
0300
0300
ENDCHAR
STARTCHAR char16
ENCODING 16
SWIDTH 994 0
DWIDTH 14 0
BBX 14 26 0 -6
BITMAP
FFFC
FFFC
0000
0000
0000
0000
0000
0000
0000
0000
0000
0000
0000
0000
0000
0000
0000
0000
0000
0000
0000
0000
0000
0000
0000
0000
ENDCHAR
STARTCHAR char17
ENCODING 17
SWIDTH 994 0
DWIDTH 14 0
BBX 14 26 0 -6
BITMAP
0000
0000
0000
0000
0000
0000
FFFC
FFFC
0000
0000
0000
0000
0000
0000
0000
0000
0000
0000
0000
0000
0000
0000
0000
0000
0000
0000
ENDCHAR
STARTCHAR char18
ENCODING 18
SWIDTH 994 0
DWIDTH 14 0
BBX 14 26 0 -6
BITMAP
0000
0000
0000
0000
0000
0000
0000
0000
0000
0000
0000
0000
FFFC
FFFC
0000
0000
0000
0000
0000
0000
0000
0000
0000
0000
0000
0000
ENDCHAR
STARTCHAR char19
ENCODING 19
SWIDTH 994 0
DWIDTH 14 0
BBX 14 26 0 -6
BITMAP
0000
0000
0000
0000
0000
0000
0000
0000
0000
0000
0000
0000
0000
0000
0000
0000
0000
0000
FFFC
FFFC
0000
0000
0000
0000
0000
0000
ENDCHAR
STARTCHAR char20
ENCODING 20
SWIDTH 994 0
DWIDTH 14 0
BBX 14 26 0 -6
BITMAP
0000
0000
0000
0000
0000
0000
0000
0000
0000
0000
0000
0000
0000
0000
0000
0000
0000
0000
0000
0000
0000
0000
0000
0000
FFFC
FFFC
ENDCHAR
STARTCHAR char21
ENCODING 21
SWIDTH 994 0
DWIDTH 14 0
BBX 14 26 0 -6
BITMAP
0300
0300
0300
0300
0300
0300
0300
0300
0300
0300
0300
0300
03FC
03FC
0300
0300
0300
0300
0300
0300
0300
0300
0300
0300
0300
0300
ENDCHAR
STARTCHAR char22
ENCODING 22
SWIDTH 994 0
DWIDTH 14 0
BBX 14 26 0 -6
BITMAP
0300
0300
0300
0300
0300
0300
0300
0300
0300
0300
0300
0300
FF00
FF00
0300
0300
0300
0300
0300
0300
0300
0300
0300
0300
0300
0300
ENDCHAR
STARTCHAR char23
ENCODING 23
SWIDTH 994 0
DWIDTH 14 0
BBX 14 26 0 -6
BITMAP
0300
0300
0300
0300
0300
0300
0300
0300
0300
0300
0300
0300
FFFC
FFFC
0000
0000
0000
0000
0000
0000
0000
0000
0000
0000
0000
0000
ENDCHAR
STARTCHAR char24
ENCODING 24
SWIDTH 994 0
DWIDTH 14 0
BBX 14 26 0 -6
BITMAP
0000
0000
0000
0000
0000
0000
0000
0000
0000
0000
0000
0000
FFFC
FFFC
0300
0300
0300
0300
0300
0300
0300
0300
0300
0300
0300
0300
ENDCHAR
STARTCHAR char25
ENCODING 25
SWIDTH 994 0
DWIDTH 14 0
BBX 14 26 0 -6
BITMAP
0300
0300
0300
0300
0300
0300
0300
0300
0300
0300
0300
0300
0300
0300
0300
0300
0300
0300
0300
0300
0300
0300
0300
0300
0300
0300
ENDCHAR
STARTCHAR char27
ENCODING 26
SWIDTH 994 0
DWIDTH 14 0
BBX 14 26 0 -6
BITMAP
0000
0000
0000
0000
0000
0000
00F0
00F0
0F00
0F00
3000
3000
0F00
0F00
00C0
00C0
0000
0000
FFC0
FFC0
0000
0000
0000
0000
0000
0000
ENDCHAR
STARTCHAR char29
ENCODING 27
SWIDTH 994 0
DWIDTH 14 0
BBX 14 26 0 -6
BITMAP
0000
0000
0000
0000
0000
0000
0C00
0C00
03C0
03C0
0030
0030
03C0
03C0
3C00
3C00
0000
0000
FFC0
FFC0
0000
0000
0000
0000
0000
0000
ENDCHAR
STARTCHAR char28
ENCODING 28
SWIDTH 994 0
DWIDTH 14 0
BBX 14 26 0 -6
BITMAP
0000
0000
0000
0000
0000
0000
0000
0000
3FF0
3FF0
0CC0
0CC0
0CC0
0CC0
3300
3300
3300
3300
3300
3300
0000
0000
0000
0000
0000
0000
ENDCHAR
STARTCHAR char26
ENCODING 29
SWIDTH 994 0
DWIDTH 14 0
BBX 14 26 0 -6
BITMAP
0000
0000
0000
0000
0000
0000
0000
0000
0030
0030
3FFC
3FFC
0300
0300
FFF0
FFF0
3000
3000
0000
0000
0000
0000
0000
0000
0000
0000
ENDCHAR
STARTCHAR char30
ENCODING 30
SWIDTH 994 0
DWIDTH 14 0
BBX 14 26 0 -6
BITMAP
0000
0000
0000
0000
00F0
00F0
0300
0300
0C00
0C00
FF00
FF00
3000
3000
3000
3000
C000
C000
FFC0
FFC0
0000
0000
0000
0000
0000
0000
ENDCHAR
STARTCHAR char31
ENCODING 31
SWIDTH 994 0
DWIDTH 14 0
BBX 14 26 0 -6
BITMAP
0000
0000
0000
0000
0000
0000
0000
0000
0000
0000
0000
0000
0FC0
0FC0
0000
0000
0000
0000
0000
0000
0000
0000
0000
0000
0000
0000
ENDCHAR
STARTCHAR char32
ENCODING 32
SWIDTH 994 0
DWIDTH 14 0
BBX 14 26 0 -6
BITMAP
0000
0000
0000
0000
0000
0000
0000
0000
0000
0000
0000
0000
0000
0000
0000
0000
0000
0000
0000
0000
0000
0000
0000
0000
0000
0000
ENDCHAR
STARTCHAR char33
ENCODING 33
SWIDTH 994 0
DWIDTH 14 0
BBX 14 26 0 -6
BITMAP
0000
0000
0000
0000
00C0
00C0
00C0
00C0
00C0
00C0
0300
0300
0300
0300
0000
0000
0C00
0C00
0C00
0C00
0000
0000
0000
0000
0000
0000
ENDCHAR
STARTCHAR char34
ENCODING 34
SWIDTH 994 0
DWIDTH 14 0
BBX 14 26 0 -6
BITMAP
0000
0000
0CC0
0CC0
0CC0
0CC0
0CC0
0CC0
0000
0000
0000
0000
0000
0000
0000
0000
0000
0000
0000
0000
0000
0000
0000
0000
0000
0000
ENDCHAR
STARTCHAR char35
ENCODING 35
SWIDTH 994 0
DWIDTH 14 0
BBX 14 26 0 -6
BITMAP
0000
0000
0000
0000
0CC0
0CC0
0CC0
0CC0
3FF0
3FF0
0CC0
0CC0
3300
3300
FFC0
FFC0
3300
3300
3300
3300
0000
0000
0000
0000
0000
0000
ENDCHAR
STARTCHAR char36
ENCODING 36
SWIDTH 994 0
DWIDTH 14 0
BBX 14 26 0 -6
BITMAP
0000
0000
00C0
00C0
0FF0
0FF0
30CC
30CC
3300
3300
0F00
0F00
03C0
03C0
0330
0330
CC30
CC30
3FC0
3FC0
0C00
0C00
0000
0000
0000
0000
ENDCHAR
STARTCHAR char37
ENCODING 37
SWIDTH 994 0
DWIDTH 14 0
BBX 14 26 0 -6
BITMAP
0000
0000
0000
0000
0C00
0C00
3300
3300
0C00
0C00
00F0
00F0
0F00
0F00
F000
F000
0300
0300
0CC0
0CC0
0300
0300
0000
0000
0000
0000
ENDCHAR
STARTCHAR char38
ENCODING 38
SWIDTH 994 0
DWIDTH 14 0
BBX 14 26 0 -6
BITMAP
0000
0000
0000
0000
0300
0300
0CC0
0CC0
0CC0
0CC0
0F00
0F00
33C0
33C0
C300
C300
C300
C300
3CC0
3CC0
0000
0000
0000
0000
0000
0000
ENDCHAR
STARTCHAR char39
ENCODING 39
SWIDTH 994 0
DWIDTH 14 0
BBX 14 26 0 -6
BITMAP
0000
0000
0300
0300
0300
0300
0300
0300
0000
0000
0000
0000
0000
0000
0000
0000
0000
0000
0000
0000
0000
0000
0000
0000
0000
0000
ENDCHAR
STARTCHAR char40
ENCODING 40
SWIDTH 994 0
DWIDTH 14 0
BBX 14 26 0 -6
BITMAP
0000
0000
00C0
00C0
0300
0300
0C00
0C00
0C00
0C00
3000
3000
3000
3000
3000
3000
3000
3000
0C00
0C00
0C00
0C00
0300
0300
0000
0000
ENDCHAR
STARTCHAR char41
ENCODING 41
SWIDTH 994 0
DWIDTH 14 0
BBX 14 26 0 -6
BITMAP
0000
0000
0C00
0C00
0300
0300
0300
0300
00C0
00C0
00C0
00C0
00C0
00C0
00C0
00C0
0300
0300
0300
0300
0C00
0C00
3000
3000
0000
0000
ENDCHAR
STARTCHAR char42
ENCODING 42
SWIDTH 994 0
DWIDTH 14 0
BBX 14 26 0 -6
BITMAP
0000
0000
0000
0000
0000
0000
0000
0000
0CC0
0CC0
0300
0300
FFF0
FFF0
0C00
0C00
3300
3300
0000
0000
0000
0000
0000
0000
0000
0000
ENDCHAR
STARTCHAR char43
ENCODING 43
SWIDTH 994 0
DWIDTH 14 0
BBX 14 26 0 -6
BITMAP
0000
0000
0000
0000
0000
0000
0000
0000
0300
0300
0300
0300
FFF0
FFF0
0C00
0C00
0C00
0C00
0000
0000
0000
0000
0000
0000
0000
0000
ENDCHAR
STARTCHAR char44
ENCODING 44
SWIDTH 994 0
DWIDTH 14 0
BBX 14 26 0 -6
BITMAP
0000
0000
0000
0000
0000
0000
0000
0000
0000
0000
0000
0000
0000
0000
0000
0000
0300
0300
0300
0300
0C00
0C00
3000
3000
0000
0000
ENDCHAR
STARTCHAR char45
ENCODING 45
SWIDTH 994 0
DWIDTH 14 0
BBX 14 26 0 -6
BITMAP
0000
0000
0000
0000
0000
0000
0000
0000
0000
0000
0000
0000
3FF0
3FF0
0000
0000
0000
0000
0000
0000
0000
0000
0000
0000
0000
0000
ENDCHAR
STARTCHAR char46
ENCODING 46
SWIDTH 994 0
DWIDTH 14 0
BBX 14 26 0 -6
BITMAP
0000
0000
0000
0000
0000
0000
0000
0000
0000
0000
0000
0000
0000
0000
0000
0000
0C00
0C00
0C00
0C00
0000
0000
0000
0000
0000
0000
ENDCHAR
STARTCHAR char47
ENCODING 47
SWIDTH 994 0
DWIDTH 14 0
BBX 14 26 0 -6
BITMAP
0000
0000
0030
0030
00C0
00C0
00C0
00C0
0300
0300
0300
0300
0C00
0C00
0C00
0C00
3000
3000
3000
3000
C000
C000
0000
0000
0000
0000
ENDCHAR
STARTCHAR char48
ENCODING 48
SWIDTH 994 0
DWIDTH 14 0
BBX 14 26 0 -6
BITMAP
0000
0000
0000
0000
0FC0
0FC0
3030
3030
3030
3030
C330
C330
CC30
CC30
C0C0
C0C0
C0C0
C0C0
3F00
3F00
0000
0000
0000
0000
0000
0000
ENDCHAR
STARTCHAR char49
ENCODING 49
SWIDTH 994 0
DWIDTH 14 0
BBX 14 26 0 -6
BITMAP
0000
0000
0000
0000
03C0
03C0
0CC0
0CC0
30C0
30C0
0300
0300
0300
0300
0C00
0C00
0C00
0C00
FFC0
FFC0
0000
0000
0000
0000
0000
0000
ENDCHAR
STARTCHAR char50
ENCODING 50
SWIDTH 994 0
DWIDTH 14 0
BBX 14 26 0 -6
BITMAP
0000
0000
0000
0000
03F0
03F0
0C0C
0C0C
000C
000C
00F0
00F0
0F00
0F00
3000
3000
C000
C000
FFC0
FFC0
0000
0000
0000
0000
0000
0000
ENDCHAR
STARTCHAR char51
ENCODING 51
SWIDTH 994 0
DWIDTH 14 0
BBX 14 26 0 -6
BITMAP
0000
0000
0000
0000
03F0
03F0
0C0C
0C0C
0030
0030
03C0
03C0
0030
0030
0030
0030
C0C0
C0C0
3F00
3F00
0000
0000
0000
0000
0000
0000
ENDCHAR
STARTCHAR char52
ENCODING 52
SWIDTH 994 0
DWIDTH 14 0
BBX 14 26 0 -6
BITMAP
0000
0000
0000
0000
0030
0030
00F0
00F0
0330
0330
0CC0
0CC0
30C0
30C0
FFF0
FFF0
0300
0300
0300
0300
0000
0000
0000
0000
0000
0000
ENDCHAR
STARTCHAR char53
ENCODING 53
SWIDTH 994 0
DWIDTH 14 0
BBX 14 26 0 -6
BITMAP
0000
0000
0000
0000
0FFC
0FFC
0C00
0C00
3000
3000
3FC0
3FC0
0030
0030
0030
0030
C0C0
C0C0
3F00
3F00
0000
0000
0000
0000
0000
0000
ENDCHAR
STARTCHAR char54
ENCODING 54
SWIDTH 994 0
DWIDTH 14 0
BBX 14 26 0 -6
BITMAP
0000
0000
0000
0000
03F0
03F0
0C00
0C00
3000
3000
3FC0
3FC0
C030
C030
C030
C030
C0C0
C0C0
3F00
3F00
0000
0000
0000
0000
0000
0000
ENDCHAR
STARTCHAR char55
ENCODING 55
SWIDTH 994 0
DWIDTH 14 0
BBX 14 26 0 -6
BITMAP
0000
0000
0000
0000
3FF0
3FF0
0030
0030
00C0
00C0
0300
0300
0C00
0C00
0C00
0C00
3000
3000
3000
3000
0000
0000
0000
0000
0000
0000
ENDCHAR
STARTCHAR char56
ENCODING 56
SWIDTH 994 0
DWIDTH 14 0
BBX 14 26 0 -6
BITMAP
0000
0000
0000
0000
03F0
03F0
0C0C
0C0C
3030
3030
0FC0
0FC0
3030
3030
C030
C030
C0C0
C0C0
3F00
3F00
0000
0000
0000
0000
0000
0000
ENDCHAR
STARTCHAR char57
ENCODING 57
SWIDTH 994 0
DWIDTH 14 0
BBX 14 26 0 -6
BITMAP
0000
0000
0000
0000
03F0
03F0
0C0C
0C0C
300C
300C
3030
3030
0FF0
0FF0
00C0
00C0
0300
0300
3C00
3C00
0000
0000
0000
0000
0000
0000
ENDCHAR
STARTCHAR char58
ENCODING 58
SWIDTH 994 0
DWIDTH 14 0
BBX 14 26 0 -6
BITMAP
0000
0000
0000
0000
0000
0000
0000
0000
0300
0300
0300
0300
0000
0000
0000
0000
0C00
0C00
0C00
0C00
0000
0000
0000
0000
0000
0000
ENDCHAR
STARTCHAR char59
ENCODING 59
SWIDTH 994 0
DWIDTH 14 0
BBX 14 26 0 -6
BITMAP
0000
0000
0000
0000
0000
0000
0000
0000
0300
0300
0300
0300
0000
0000
0000
0000
0C00
0C00
0C00
0C00
3000
3000
C000
C000
0000
0000
ENDCHAR
STARTCHAR char60
ENCODING 60
SWIDTH 994 0
DWIDTH 14 0
BBX 14 26 0 -6
BITMAP
0000
0000
0000
0000
0000
0000
0030
0030
00C0
00C0
0300
0300
0C00
0C00
0C00
0C00
0300
0300
0300
0300
0000
0000
0000
0000
0000
0000
ENDCHAR
STARTCHAR char61
ENCODING 61
SWIDTH 994 0
DWIDTH 14 0
BBX 14 26 0 -6
BITMAP
0000
0000
0000
0000
0000
0000
0000
0000
0000
0000
0FFC
0FFC
0000
0000
3FF0
3FF0
0000
0000
0000
0000
0000
0000
0000
0000
0000
0000
ENDCHAR
STARTCHAR char62
ENCODING 62
SWIDTH 994 0
DWIDTH 14 0
BBX 14 26 0 -6
BITMAP
0000
0000
0000
0000
0000
0000
0300
0300
0300
0300
00C0
00C0
00C0
00C0
0300
0300
0C00
0C00
3000
3000
0000
0000
0000
0000
0000
0000
ENDCHAR
STARTCHAR char63
ENCODING 63
SWIDTH 994 0
DWIDTH 14 0
BBX 14 26 0 -6
BITMAP
0000
0000
0000
0000
0FC0
0FC0
3030
3030
0030
0030
00C0
00C0
0300
0300
0000
0000
0C00
0C00
0C00
0C00
0000
0000
0000
0000
0000
0000
ENDCHAR
STARTCHAR char64
ENCODING 64
SWIDTH 994 0
DWIDTH 14 0
BBX 14 26 0 -6
BITMAP
0000
0000
0000
0000
0FC0
0FC0
3030
3030
3030
3030
33C0
33C0
CCC0
CCC0
C3C0
C3C0
C000
C000
3FC0
3FC0
0000
0000
0000
0000
0000
0000
ENDCHAR
STARTCHAR char65
ENCODING 65
SWIDTH 994 0
DWIDTH 14 0
BBX 14 26 0 -6
BITMAP
0000
0000
0000
0000
00F0
00F0
0330
0330
0C30
0C30
0C30
0C30
3FF0
3FF0
3030
3030
C030
C030
C030
C030
0000
0000
0000
0000
0000
0000
ENDCHAR
STARTCHAR char66
ENCODING 66
SWIDTH 994 0
DWIDTH 14 0
BBX 14 26 0 -6
BITMAP
0000
0000
0000
0000
0FF0
0FF0
0C0C
0C0C
3030
3030
3FC0
3FC0
30C0
30C0
C030
C030
C030
C030
FFC0
FFC0
0000
0000
0000
0000
0000
0000
ENDCHAR
STARTCHAR char67
ENCODING 67
SWIDTH 994 0
DWIDTH 14 0
BBX 14 26 0 -6
BITMAP
0000
0000
0000
0000
03F0
03F0
0C0C
0C0C
3000
3000
3000
3000
C000
C000
C000
C000
C0C0
C0C0
3F00
3F00
0000
0000
0000
0000
0000
0000
ENDCHAR
STARTCHAR char68
ENCODING 68
SWIDTH 994 0
DWIDTH 14 0
BBX 14 26 0 -6
BITMAP
0000
0000
0000
0000
0FF0
0FF0
0C0C
0C0C
0C0C
0C0C
300C
300C
3030
3030
C030
C030
C0C0
C0C0
FF00
FF00
0000
0000
0000
0000
0000
0000
ENDCHAR
STARTCHAR char69
ENCODING 69
SWIDTH 994 0
DWIDTH 14 0
BBX 14 26 0 -6
BITMAP
0000
0000
0000
0000
0FFC
0FFC
0C00
0C00
3000
3000
3FC0
3FC0
3000
3000
C000
C000
C000
C000
FFC0
FFC0
0000
0000
0000
0000
0000
0000
ENDCHAR
STARTCHAR char70
ENCODING 70
SWIDTH 994 0
DWIDTH 14 0
BBX 14 26 0 -6
BITMAP
0000
0000
0000
0000
0FFC
0FFC
0C00
0C00
3000
3000
3FC0
3FC0
3000
3000
C000
C000
C000
C000
C000
C000
0000
0000
0000
0000
0000
0000
ENDCHAR
STARTCHAR char71
ENCODING 71
SWIDTH 994 0
DWIDTH 14 0
BBX 14 26 0 -6
BITMAP
0000
0000
0000
0000
03F0
03F0
0C0C
0C0C
3000
3000
3000
3000
C0F0
C0F0
C030
C030
C0C0
C0C0
3F00
3F00
0000
0000
0000
0000
0000
0000
ENDCHAR
STARTCHAR char72
ENCODING 72
SWIDTH 994 0
DWIDTH 14 0
BBX 14 26 0 -6
BITMAP
0000
0000
0000
0000
0C0C
0C0C
0C0C
0C0C
3030
3030
3FF0
3FF0
3030
3030
C0C0
C0C0
C0C0
C0C0
C0C0
C0C0
0000
0000
0000
0000
0000
0000
ENDCHAR
STARTCHAR char73
ENCODING 73
SWIDTH 994 0
DWIDTH 14 0
BBX 14 26 0 -6
BITMAP
0000
0000
0000
0000
03F0
03F0
00C0
00C0
0300
0300
0300
0300
0300
0300
0C00
0C00
0C00
0C00
3F00
3F00
0000
0000
0000
0000
0000
0000
ENDCHAR
STARTCHAR char74
ENCODING 74
SWIDTH 994 0
DWIDTH 14 0
BBX 14 26 0 -6
BITMAP
0000
0000
0000
0000
00FC
00FC
000C
000C
000C
000C
0030
0030
0030
0030
C030
C030
C0C0
C0C0
3F00
3F00
0000
0000
0000
0000
0000
0000
ENDCHAR
STARTCHAR char75
ENCODING 75
SWIDTH 994 0
DWIDTH 14 0
BBX 14 26 0 -6
BITMAP
0000
0000
0000
0000
0C0C
0C0C
0C30
0C30
30C0
30C0
3F00
3F00
30C0
30C0
C0C0
C0C0
C0C0
C0C0
C0C0
C0C0
0000
0000
0000
0000
0000
0000
ENDCHAR
STARTCHAR char76
ENCODING 76
SWIDTH 994 0
DWIDTH 14 0
BBX 14 26 0 -6
BITMAP
0000
0000
0000
0000
0C00
0C00
0C00
0C00
3000
3000
3000
3000
3000
3000
C000
C000
C000
C000
FFC0
FFC0
0000
0000
0000
0000
0000
0000
ENDCHAR
STARTCHAR char77
ENCODING 77
SWIDTH 994 0
DWIDTH 14 0
BBX 14 26 0 -6
BITMAP
0000
0000
0000
0000
0C0C
0C0C
0F3C
0F3C
33F0
33F0
3330
3330
3030
3030
C0C0
C0C0
C0C0
C0C0
C0C0
C0C0
0000
0000
0000
0000
0000
0000
ENDCHAR
STARTCHAR char78
ENCODING 78
SWIDTH 994 0
DWIDTH 14 0
BBX 14 26 0 -6
BITMAP
0000
0000
0000
0000
0C0C
0C0C
0C0C
0C0C
3330
3330
3330
3330
3330
3330
C0C0
C0C0
C0C0
C0C0
C0C0
C0C0
0000
0000
0000
0000
0000
0000
ENDCHAR
STARTCHAR char79
ENCODING 79
SWIDTH 994 0
DWIDTH 14 0
BBX 14 26 0 -6
BITMAP
0000
0000
0000
0000
03F0
03F0
0C0C
0C0C
300C
300C
300C
300C
C030
C030
C030
C030
C0C0
C0C0
3F00
3F00
0000
0000
0000
0000
0000
0000
ENDCHAR
STARTCHAR char80
ENCODING 80
SWIDTH 994 0
DWIDTH 14 0
BBX 14 26 0 -6
BITMAP
0000
0000
0000
0000
0FF0
0FF0
0C0C
0C0C
0C0C
0C0C
3030
3030
3FC0
3FC0
3000
3000
C000
C000
C000
C000
0000
0000
0000
0000
0000
0000
ENDCHAR
STARTCHAR char81
ENCODING 81
SWIDTH 994 0
DWIDTH 14 0
BBX 14 26 0 -6
BITMAP
0000
0000
0000
0000
03F0
03F0
0C0C
0C0C
300C
300C
300C
300C
C030
C030
C330
C330
C0C0
C0C0
3F30
3F30
0030
0030
0000
0000
0000
0000
ENDCHAR
STARTCHAR char82
ENCODING 82
SWIDTH 994 0
DWIDTH 14 0
BBX 14 26 0 -6
BITMAP
0000
0000
0000
0000
0FF0
0FF0
0C0C
0C0C
300C
300C
3FF0
3FF0
30C0
30C0
C0C0
C0C0
C030
C030
C030
C030
0000
0000
0000
0000
0000
0000
ENDCHAR
STARTCHAR char83
ENCODING 83
SWIDTH 994 0
DWIDTH 14 0
BBX 14 26 0 -6
BITMAP
0000
0000
0000
0000
03F0
03F0
0C0C
0C0C
0C00
0C00
0300
0300
00C0
00C0
00C0
00C0
C0C0
C0C0
3F00
3F00
0000
0000
0000
0000
0000
0000
ENDCHAR
STARTCHAR char84
ENCODING 84
SWIDTH 994 0
DWIDTH 14 0
BBX 14 26 0 -6
BITMAP
0000
0000
0000
0000
3FF0
3FF0
0300
0300
0300
0300
0C00
0C00
0C00
0C00
3000
3000
3000
3000
3000
3000
0000
0000
0000
0000
0000
0000
ENDCHAR
STARTCHAR char85
ENCODING 85
SWIDTH 994 0
DWIDTH 14 0
BBX 14 26 0 -6
BITMAP
0000
0000
0000
0000
0C0C
0C0C
0C0C
0C0C
3030
3030
3030
3030
3030
3030
C0C0
C0C0
C0C0
C0C0
3F00
3F00
0000
0000
0000
0000
0000
0000
ENDCHAR
STARTCHAR char86
ENCODING 86
SWIDTH 994 0
DWIDTH 14 0
BBX 14 26 0 -6
BITMAP
0000
0000
0000
0000
300C
300C
300C
300C
3030
3030
3030
3030
30C0
30C0
3300
3300
0C00
0C00
0C00
0C00
0000
0000
0000
0000
0000
0000
ENDCHAR
STARTCHAR char87
ENCODING 87
SWIDTH 994 0
DWIDTH 14 0
BBX 14 26 0 -6
BITMAP
0000
0000
0000
0000
0C0C
0C0C
0C0C
0C0C
300C
300C
3030
3030
3330
3330
CF30
CF30
F3C0
F3C0
C0C0
C0C0
0000
0000
0000
0000
0000
0000
ENDCHAR
STARTCHAR char88
ENCODING 88
SWIDTH 994 0
DWIDTH 14 0
BBX 14 26 0 -6
BITMAP
0000
0000
0000
0000
0C0C
0C0C
0C0C
0C0C
0C30
0C30
03C0
03C0
0F00
0F00
30C0
30C0
C0C0
C0C0
C0C0
C0C0
0000
0000
0000
0000
0000
0000
ENDCHAR
STARTCHAR char89
ENCODING 89
SWIDTH 994 0
DWIDTH 14 0
BBX 14 26 0 -6
BITMAP
0000
0000
0000
0000
C030
C030
C030
C030
30C0
30C0
3300
3300
0C00
0C00
0C00
0C00
3000
3000
3000
3000
0000
0000
0000
0000
0000
0000
ENDCHAR
STARTCHAR char90
ENCODING 90
SWIDTH 994 0
DWIDTH 14 0
BBX 14 26 0 -6
BITMAP
0000
0000
0000
0000
0FFC
0FFC
0030
0030
00C0
00C0
0300
0300
0C00
0C00
3000
3000
C000
C000
FFC0
FFC0
0000
0000
0000
0000
0000
0000
ENDCHAR
STARTCHAR char91
ENCODING 91
SWIDTH 994 0
DWIDTH 14 0
BBX 14 26 0 -6
BITMAP
0000
0000
03F0
03F0
0300
0300
0300
0300
0C00
0C00
0C00
0C00
0C00
0C00
0C00
0C00
3000
3000
3000
3000
3000
3000
3F00
3F00
0000
0000
ENDCHAR
STARTCHAR char92
ENCODING 92
SWIDTH 994 0
DWIDTH 14 0
BBX 14 26 0 -6
BITMAP
0000
0000
3000
3000
3000
3000
0C00
0C00
0C00
0C00
0300
0300
0300
0300
00C0
00C0
00C0
00C0
0030
0030
0030
0030
0000
0000
0000
0000
ENDCHAR
STARTCHAR char93
ENCODING 93
SWIDTH 994 0
DWIDTH 14 0
BBX 14 26 0 -6
BITMAP
0000
0000
03F0
03F0
0030
0030
0030
0030
00C0
00C0
00C0
00C0
00C0
00C0
00C0
00C0
0300
0300
0300
0300
0300
0300
3F00
3F00
0000
0000
ENDCHAR
STARTCHAR char94
ENCODING 94
SWIDTH 994 0
DWIDTH 14 0
BBX 14 26 0 -6
BITMAP
0000
0000
0300
0300
0300
0300
0CC0
0CC0
0CC0
0CC0
30C0
30C0
30C0
30C0
0000
0000
0000
0000
0000
0000
0000
0000
0000
0000
0000
0000
ENDCHAR
STARTCHAR char95
ENCODING 95
SWIDTH 994 0
DWIDTH 14 0
BBX 14 26 0 -6
BITMAP
0000
0000
0000
0000
0000
0000
0000
0000
0000
0000
0000
0000
0000
0000
0000
0000
0000
0000
0000
0000
FFFC
FFFC
0000
0000
0000
0000
ENDCHAR
STARTCHAR char96
ENCODING 96
SWIDTH 994 0
DWIDTH 14 0
BBX 14 26 0 -6
BITMAP
0000
0000
0C00
0C00
0300
0300
0000
0000
0000
0000
0000
0000
0000
0000
0000
0000
0000
0000
0000
0000
0000
0000
0000
0000
0000
0000
ENDCHAR
STARTCHAR char97
ENCODING 97
SWIDTH 994 0
DWIDTH 14 0
BBX 14 26 0 -6
BITMAP
0000
0000
0000
0000
0000
0000
0000
0000
0FC0
0FC0
0030
0030
3FF0
3FF0
C030
C030
C0C0
C0C0
3FC0
3FC0
0000
0000
0000
0000
0000
0000
ENDCHAR
STARTCHAR char98
ENCODING 98
SWIDTH 994 0
DWIDTH 14 0
BBX 14 26 0 -6
BITMAP
0000
0000
0C00
0C00
0C00
0C00
0C00
0C00
3FC0
3FC0
3030
3030
3030
3030
C0C0
C0C0
C0C0
C0C0
FF00
FF00
0000
0000
0000
0000
0000
0000
ENDCHAR
STARTCHAR char99
ENCODING 99
SWIDTH 994 0
DWIDTH 14 0
BBX 14 26 0 -6
BITMAP
0000
0000
0000
0000
0000
0000
0000
0000
0FC0
0FC0
3030
3030
3000
3000
C000
C000
C0C0
C0C0
3F00
3F00
0000
0000
0000
0000
0000
0000
ENDCHAR
STARTCHAR char100
ENCODING 100
SWIDTH 994 0
DWIDTH 14 0
BBX 14 26 0 -6
BITMAP
0000
0000
000C
000C
000C
000C
000C
000C
0FF0
0FF0
3030
3030
3030
3030
C0C0
C0C0
C0C0
C0C0
3FC0
3FC0
0000
0000
0000
0000
0000
0000
ENDCHAR
STARTCHAR char101
ENCODING 101
SWIDTH 994 0
DWIDTH 14 0
BBX 14 26 0 -6
BITMAP
0000
0000
0000
0000
0000
0000
0000
0000
0FC0
0FC0
3030
3030
3FF0
3FF0
C000
C000
C0C0
C0C0
3F00
3F00
0000
0000
0000
0000
0000
0000
ENDCHAR
STARTCHAR char102
ENCODING 102
SWIDTH 994 0
DWIDTH 14 0
BBX 14 26 0 -6
BITMAP
0000
0000
00FC
00FC
0300
0300
0300
0300
3FC0
3FC0
0C00
0C00
0C00
0C00
3000
3000
3000
3000
3000
3000
0000
0000
0000
0000
0000
0000
ENDCHAR
STARTCHAR char103
ENCODING 103
SWIDTH 994 0
DWIDTH 14 0
BBX 14 26 0 -6
BITMAP
0000
0000
0000
0000
0000
0000
0000
0000
0FF0
0FF0
3030
3030
3030
3030
C0C0
C0C0
C0C0
C0C0
3FC0
3FC0
00C0
00C0
0300
0300
FC00
FC00
ENDCHAR
STARTCHAR char104
ENCODING 104
SWIDTH 994 0
DWIDTH 14 0
BBX 14 26 0 -6
BITMAP
0000
0000
0C00
0C00
0C00
0C00
0C00
0C00
3FC0
3FC0
3030
3030
3030
3030
C0C0
C0C0
C0C0
C0C0
C0C0
C0C0
0000
0000
0000
0000
0000
0000
ENDCHAR
STARTCHAR char105
ENCODING 105
SWIDTH 994 0
DWIDTH 14 0
BBX 14 26 0 -6
BITMAP
0000
0000
00C0
00C0
00C0
00C0
0000
0000
0F00
0F00
0300
0300
0300
0300
0C00
0C00
0C00
0C00
0C00
0C00
0000
0000
0000
0000
0000
0000
ENDCHAR
STARTCHAR char106
ENCODING 106
SWIDTH 994 0
DWIDTH 14 0
BBX 14 26 0 -6
BITMAP
0000
0000
0030
0030
0030
0030
0000
0000
03C0
03C0
00C0
00C0
00C0
00C0
00C0
00C0
0300
0300
0300
0300
0300
0300
FC00
FC00
0000
0000
ENDCHAR
STARTCHAR char107
ENCODING 107
SWIDTH 994 0
DWIDTH 14 0
BBX 14 26 0 -6
BITMAP
0000
0000
0C00
0C00
0C00
0C00
0C00
0C00
3030
3030
30C0
30C0
3300
3300
CC00
CC00
C300
C300
C0C0
C0C0
0000
0000
0000
0000
0000
0000
ENDCHAR
STARTCHAR char108
ENCODING 108
SWIDTH 994 0
DWIDTH 14 0
BBX 14 26 0 -6
BITMAP
0000
0000
03C0
03C0
00C0
00C0
00C0
00C0
0300
0300
0300
0300
0300
0300
0C00
0C00
0C00
0C00
0C00
0C00
0000
0000
0000
0000
0000
0000
ENDCHAR
STARTCHAR char109
ENCODING 109
SWIDTH 994 0
DWIDTH 14 0
BBX 14 26 0 -6
BITMAP
0000
0000
0000
0000
0000
0000
0000
0000
3CC0
3CC0
3330
3330
3330
3330
CCC0
CCC0
CCC0
CCC0
CCC0
CCC0
0000
0000
0000
0000
0000
0000
ENDCHAR
STARTCHAR char110
ENCODING 110
SWIDTH 994 0
DWIDTH 14 0
BBX 14 26 0 -6
BITMAP
0000
0000
0000
0000
0000
0000
0000
0000
3FC0
3FC0
3030
3030
3030
3030
C0C0
C0C0
C0C0
C0C0
C0C0
C0C0
0000
0000
0000
0000
0000
0000
ENDCHAR
STARTCHAR char111
ENCODING 111
SWIDTH 994 0
DWIDTH 14 0
BBX 14 26 0 -6
BITMAP
0000
0000
0000
0000
0000
0000
0000
0000
0FC0
0FC0
3030
3030
3030
3030
C0C0
C0C0
C0C0
C0C0
3F00
3F00
0000
0000
0000
0000
0000
0000
ENDCHAR
STARTCHAR char112
ENCODING 112
SWIDTH 994 0
DWIDTH 14 0
BBX 14 26 0 -6
BITMAP
0000
0000
0000
0000
0000
0000
0000
0000
0FF0
0FF0
0C0C
0C0C
0C0C
0C0C
3030
3030
3030
3030
3FC0
3FC0
C000
C000
C000
C000
C000
C000
ENDCHAR
STARTCHAR char113
ENCODING 113
SWIDTH 994 0
DWIDTH 14 0
BBX 14 26 0 -6
BITMAP
0000
0000
0000
0000
0000
0000
0000
0000
0FF0
0FF0
3030
3030
3030
3030
C0C0
C0C0
C0C0
C0C0
3FC0
3FC0
0300
0300
0300
0300
0300
0300
ENDCHAR
STARTCHAR char114
ENCODING 114
SWIDTH 994 0
DWIDTH 14 0
BBX 14 26 0 -6
BITMAP
0000
0000
0000
0000
0000
0000
0000
0000
33C0
33C0
3C30
3C30
3000
3000
C000
C000
C000
C000
C000
C000
0000
0000
0000
0000
0000
0000
ENDCHAR
STARTCHAR char115
ENCODING 115
SWIDTH 994 0
DWIDTH 14 0
BBX 14 26 0 -6
BITMAP
0000
0000
0000
0000
0000
0000
0000
0000
0FC0
0FC0
3030
3030
0F00
0F00
00C0
00C0
C0C0
C0C0
3F00
3F00
0000
0000
0000
0000
0000
0000
ENDCHAR
STARTCHAR char116
ENCODING 116
SWIDTH 994 0
DWIDTH 14 0
BBX 14 26 0 -6
BITMAP
0000
0000
0000
0000
0300
0300
0300
0300
3FC0
3FC0
0C00
0C00
0C00
0C00
3000
3000
3000
3000
0FC0
0FC0
0000
0000
0000
0000
0000
0000
ENDCHAR
STARTCHAR char117
ENCODING 117
SWIDTH 994 0
DWIDTH 14 0
BBX 14 26 0 -6
BITMAP
0000
0000
0000
0000
0000
0000
0000
0000
3030
3030
3030
3030
3030
3030
C0C0
C0C0
C0C0
C0C0
3FC0
3FC0
0000
0000
0000
0000
0000
0000
ENDCHAR
STARTCHAR char118
ENCODING 118
SWIDTH 994 0
DWIDTH 14 0
BBX 14 26 0 -6
BITMAP
0000
0000
0000
0000
0000
0000
0000
0000
3030
3030
3030
3030
0CC0
0CC0
0CC0
0CC0
0F00
0F00
0C00
0C00
0000
0000
0000
0000
0000
0000
ENDCHAR
STARTCHAR char119
ENCODING 119
SWIDTH 994 0
DWIDTH 14 0
BBX 14 26 0 -6
BITMAP
0000
0000
0000
0000
0000
0000
0000
0000
3030
3030
3030
3030
CC30
CC30
CCC0
CCC0
F300
F300
C300
C300
0000
0000
0000
0000
0000
0000
ENDCHAR
STARTCHAR char120
ENCODING 120
SWIDTH 994 0
DWIDTH 14 0
BBX 14 26 0 -6
BITMAP
0000
0000
0000
0000
0000
0000
0000
0000
3030
3030
0CC0
0CC0
0300
0300
0C00
0C00
3300
3300
C0C0
C0C0
0000
0000
0000
0000
0000
0000
ENDCHAR
STARTCHAR char121
ENCODING 121
SWIDTH 994 0
DWIDTH 14 0
BBX 14 26 0 -6
BITMAP
0000
0000
0000
0000
0000
0000
0000
0000
3030
3030
3030
3030
3030
3030
C0C0
C0C0
C0C0
C0C0
3FC0
3FC0
0300
0300
0300
0300
FC00
FC00
ENDCHAR
STARTCHAR char122
ENCODING 122
SWIDTH 994 0
DWIDTH 14 0
BBX 14 26 0 -6
BITMAP
0000
0000
0000
0000
0000
0000
0000
0000
3FF0
3FF0
00C0
00C0
0F00
0F00
3000
3000
C000
C000
FFC0
FFC0
0000
0000
0000
0000
0000
0000
ENDCHAR
STARTCHAR char123
ENCODING 123
SWIDTH 994 0
DWIDTH 14 0
BBX 14 26 0 -6
BITMAP
0000
0000
003C
003C
00C0
00C0
00C0
00C0
0300
0300
0300
0300
3C00
3C00
0300
0300
0C00
0C00
0C00
0C00
0C00
0C00
03C0
03C0
0000
0000
ENDCHAR
STARTCHAR char124
ENCODING 124
SWIDTH 994 0
DWIDTH 14 0
BBX 14 26 0 -6
BITMAP
0000
0000
00C0
00C0
00C0
00C0
00C0
00C0
0300
0300
0300
0300
0300
0300
0300
0300
0300
0300
0C00
0C00
0C00
0C00
0C00
0C00
0000
0000
ENDCHAR
STARTCHAR char125
ENCODING 125
SWIDTH 994 0
DWIDTH 14 0
BBX 14 26 0 -6
BITMAP
0000
0000
0F00
0F00
00C0
00C0
00C0
00C0
0300
0300
0300
0300
00F0
00F0
0300
0300
0300
0300
0C00
0C00
0C00
0C00
F000
F000
0000
0000
ENDCHAR
STARTCHAR char126
ENCODING 126
SWIDTH 994 0
DWIDTH 14 0
BBX 14 26 0 -6
BITMAP
0000
0000
0000
0000
0000
0000
0000
0000
0000
0000
0C30
0C30
3330
3330
30C0
30C0
0000
0000
0000
0000
0000
0000
0000
0000
0000
0000
ENDCHAR
STARTCHAR char127
ENCODING 127
SWIDTH 994 0
DWIDTH 14 0
BBX 14 26 0 -6
BITMAP
0000
0000
0000
0000
0000
0000
0000
0000
0000
0000
0000
0000
0000
0000
0000
0000
0000
0000
0000
0000
0000
0000
0000
0000
0000
0000
ENDCHAR
STARTCHAR char128
ENCODING 128
SWIDTH 994 0
DWIDTH 14 0
BBX 14 26 0 -6
BITMAP
0000
0000
0000
0000
0000
0000
03C0
03C0
0C30
0C30
FF00
FF00
3000
3000
FC00
FC00
30C0
30C0
0F00
0F00
0000
0000
0000
0000
0000
0000
ENDCHAR
STARTCHAR char129
ENCODING 129
SWIDTH 994 0
DWIDTH 14 0
BBX 14 26 0 -6
BITMAP
0000
0000
0000
0000
0000
0000
0000
0000
0000
0000
0000
0000
0000
0000
0000
0000
0000
0000
0000
0000
0000
0000
0000
0000
0000
0000
ENDCHAR
STARTCHAR char130
ENCODING 130
SWIDTH 994 0
DWIDTH 14 0
BBX 14 26 0 -6
BITMAP
0000
0000
0000
0000
0000
0000
0000
0000
0000
0000
0000
0000
0000
0000
0000
0000
0300
0300
0300
0300
0C00
0C00
3000
3000
0000
0000
ENDCHAR
STARTCHAR char131
ENCODING 131
SWIDTH 994 0
DWIDTH 14 0
BBX 14 26 0 -6
BITMAP
0000
0000
003C
003C
00C0
00C0
00C0
00C0
0FF0
0FF0
0300
0300
0300
0300
0300
0300
0C00
0C00
0C00
0C00
0C00
0C00
F000
F000
0000
0000
ENDCHAR
STARTCHAR char132
ENCODING 132
SWIDTH 994 0
DWIDTH 14 0
BBX 14 26 0 -6
BITMAP
0000
0000
0000
0000
0000
0000
0000
0000
0000
0000
0000
0000
0000
0000
0000
0000
0CC0
0CC0
0CC0
0CC0
0CC0
0CC0
0000
0000
0000
0000
ENDCHAR
STARTCHAR char133
ENCODING 133
SWIDTH 994 0
DWIDTH 14 0
BBX 14 26 0 -6
BITMAP
0000
0000
0000
0000
0000
0000
0000
0000
0000
0000
0000
0000
0000
0000
0000
0000
0000
0000
3330
3330
0000
0000
0000
0000
0000
0000
ENDCHAR
STARTCHAR char134
ENCODING 134
SWIDTH 994 0
DWIDTH 14 0
BBX 14 26 0 -6
BITMAP
0000
0000
00C0
00C0
00C0
00C0
3FFC
3FFC
0300
0300
0300
0300
0300
0300
0300
0300
0C00
0C00
0C00
0C00
0000
0000
0000
0000
0000
0000
ENDCHAR
STARTCHAR char135
ENCODING 135
SWIDTH 994 0
DWIDTH 14 0
BBX 14 26 0 -6
BITMAP
0000
0000
00C0
00C0
00C0
00C0
3FFC
3FFC
0300
0300
3FF0
3FF0
0300
0300
0300
0300
0C00
0C00
0C00
0C00
0000
0000
0000
0000
0000
0000
ENDCHAR
STARTCHAR char136
ENCODING 136
SWIDTH 994 0
DWIDTH 14 0
BBX 14 26 0 -6
BITMAP
0000
0000
0300
0300
0CC0
0CC0
30C0
30C0
0000
0000
0000
0000
0000
0000
0000
0000
0000
0000
0000
0000
0000
0000
0000
0000
0000
0000
ENDCHAR
STARTCHAR char137
ENCODING 137
SWIDTH 994 0
DWIDTH 14 0
BBX 14 26 0 -6
BITMAP
0000
0000
0000
0000
0C0C
0C0C
0C30
0C30
00C0
00C0
0300
0300
0C00
0C00
3000
3000
C330
C330
0330
0330
0000
0000
0000
0000
0000
0000
ENDCHAR
STARTCHAR char138
ENCODING 138
SWIDTH 994 0
DWIDTH 14 0
BBX 14 26 0 -6
BITMAP
0330
0330
00C0
00C0
03F0
03F0
0C0C
0C0C
0C00
0C00
0300
0300
00C0
00C0
00C0
00C0
C0C0
C0C0
3F00
3F00
0000
0000
0000
0000
0000
0000
ENDCHAR
STARTCHAR char139
ENCODING 139
SWIDTH 994 0
DWIDTH 14 0
BBX 14 26 0 -6
BITMAP
0000
0000
0000
0000
0000
0000
0000
0000
0300
0300
0C00
0C00
3000
3000
3000
3000
0C00
0C00
0000
0000
0000
0000
0000
0000
0000
0000
ENDCHAR
STARTCHAR char140
ENCODING 140
SWIDTH 994 0
DWIDTH 14 0
BBX 14 26 0 -6
BITMAP
0000
0000
0000
0000
033C
033C
0CC0
0CC0
0CC0
0CC0
33F0
33F0
3300
3300
CC00
CC00
CC00
CC00
33C0
33C0
0000
0000
0000
0000
0000
0000
ENDCHAR
STARTCHAR char141
ENCODING 141
SWIDTH 994 0
DWIDTH 14 0
BBX 14 26 0 -6
BITMAP
0000
0000
0000
0000
0000
0000
0000
0000
0000
0000
0000
0000
0000
0000
0000
0000
0000
0000
0000
0000
0000
0000
0000
0000
0000
0000
ENDCHAR
STARTCHAR char142
ENCODING 142
SWIDTH 994 0
DWIDTH 14 0
BBX 14 26 0 -6
BITMAP
0CC0
0CC0
0300
0300
3FF0
3FF0
00C0
00C0
0300
0300
0300
0300
0C00
0C00
0C00
0C00
3000
3000
3FF0
3FF0
0000
0000
0000
0000
0000
0000
ENDCHAR
STARTCHAR char143
ENCODING 143
SWIDTH 994 0
DWIDTH 14 0
BBX 14 26 0 -6
BITMAP
0000
0000
0000
0000
0000
0000
0000
0000
0000
0000
0000
0000
0000
0000
0000
0000
0000
0000
0000
0000
0000
0000
0000
0000
0000
0000
ENDCHAR
STARTCHAR char144
ENCODING 144
SWIDTH 994 0
DWIDTH 14 0
BBX 14 26 0 -6
BITMAP
0000
0000
0000
0000
0000
0000
0000
0000
0000
0000
0000
0000
0000
0000
0000
0000
0000
0000
0000
0000
0000
0000
0000
0000
0000
0000
ENDCHAR
STARTCHAR char145
ENCODING 145
SWIDTH 994 0
DWIDTH 14 0
BBX 14 26 0 -6
BITMAP
0000
0000
0300
0300
0300
0300
00C0
00C0
0000
0000
0000
0000
0000
0000
0000
0000
0000
0000
0000
0000
0000
0000
0000
0000
0000
0000
ENDCHAR
STARTCHAR char146
ENCODING 146
SWIDTH 994 0
DWIDTH 14 0
BBX 14 26 0 -6
BITMAP
0000
0000
0300
0300
0300
0300
0C00
0C00
0000
0000
0000
0000
0000
0000
0000
0000
0000
0000
0000
0000
0000
0000
0000
0000
0000
0000
ENDCHAR
STARTCHAR char147
ENCODING 147
SWIDTH 994 0
DWIDTH 14 0
BBX 14 26 0 -6
BITMAP
0000
0000
30C0
30C0
30C0
30C0
0C30
0C30
0000
0000
0000
0000
0000
0000
0000
0000
0000
0000
0000
0000
0000
0000
0000
0000
0000
0000
ENDCHAR
STARTCHAR char148
ENCODING 148
SWIDTH 994 0
DWIDTH 14 0
BBX 14 26 0 -6
BITMAP
0000
0000
0C30
0C30
0C30
0C30
30C0
30C0
0000
0000
0000
0000
0000
0000
0000
0000
0000
0000
0000
0000
0000
0000
0000
0000
0000
0000
ENDCHAR
STARTCHAR char149
ENCODING 149
SWIDTH 994 0
DWIDTH 14 0
BBX 14 26 0 -6
BITMAP
0000
0000
0000
0000
0000
0000
0000
0000
0300
0300
0FC0
0FC0
3FF0
3FF0
0FC0
0FC0
0300
0300
0000
0000
0000
0000
0000
0000
0000
0000
ENDCHAR
STARTCHAR char150
ENCODING 150
SWIDTH 994 0
DWIDTH 14 0
BBX 14 26 0 -6
BITMAP
0000
0000
0000
0000
0000
0000
0000
0000
0000
0000
0000
0000
3FF0
3FF0
0000
0000
0000
0000
0000
0000
0000
0000
0000
0000
0000
0000
ENDCHAR
STARTCHAR char151
ENCODING 151
SWIDTH 994 0
DWIDTH 14 0
BBX 14 26 0 -6
BITMAP
0000
0000
0000
0000
0000
0000
0000
0000
0000
0000
0000
0000
FFFC
FFFC
0000
0000
0000
0000
0000
0000
0000
0000
0000
0000
0000
0000
ENDCHAR
STARTCHAR char152
ENCODING 152
SWIDTH 994 0
DWIDTH 14 0
BBX 14 26 0 -6
BITMAP
0000
0000
0000
0000
0330
0330
0CC0
0CC0
0000
0000
0000
0000
0000
0000
0000
0000
0000
0000
0000
0000
0000
0000
0000
0000
0000
0000
ENDCHAR
STARTCHAR char153
ENCODING 153
SWIDTH 994 0
DWIDTH 14 0
BBX 14 26 0 -6
BITMAP
0000
0000
0000
0000
3FF0
3FF0
0CF0
0CF0
0CF0
0CF0
0CF0
0CF0
0000
0000
0000
0000
0000
0000
0000
0000
0000
0000
0000
0000
0000
0000
ENDCHAR
STARTCHAR char154
ENCODING 154
SWIDTH 994 0
DWIDTH 14 0
BBX 14 26 0 -6
BITMAP
0000
0000
0330
0330
00C0
00C0
0000
0000
0FC0
0FC0
3030
3030
0F00
0F00
00C0
00C0
C0C0
C0C0
3F00
3F00
0000
0000
0000
0000
0000
0000
ENDCHAR
STARTCHAR char155
ENCODING 155
SWIDTH 994 0
DWIDTH 14 0
BBX 14 26 0 -6
BITMAP
0000
0000
0000
0000
0000
0000
0000
0000
0C00
0C00
0300
0300
0300
0300
0C00
0C00
3000
3000
0000
0000
0000
0000
0000
0000
0000
0000
ENDCHAR
STARTCHAR char156
ENCODING 156
SWIDTH 994 0
DWIDTH 14 0
BBX 14 26 0 -6
BITMAP
0000
0000
0000
0000
0000
0000
0000
0000
0CC0
0CC0
3330
3330
33F0
33F0
CC00
CC00
CCC0
CCC0
3300
3300
0000
0000
0000
0000
0000
0000
ENDCHAR
STARTCHAR char157
ENCODING 157
SWIDTH 994 0
DWIDTH 14 0
BBX 14 26 0 -6
BITMAP
0000
0000
0000
0000
0000
0000
0000
0000
0000
0000
0000
0000
0000
0000
0000
0000
0000
0000
0000
0000
0000
0000
0000
0000
0000
0000
ENDCHAR
STARTCHAR char158
ENCODING 158
SWIDTH 994 0
DWIDTH 14 0
BBX 14 26 0 -6
BITMAP
0000
0000
0CC0
0CC0
0300
0300
0000
0000
3FF0
3FF0
00C0
00C0
0F00
0F00
3000
3000
C000
C000
FFC0
FFC0
0000
0000
0000
0000
0000
0000
ENDCHAR
STARTCHAR char159
ENCODING 159
SWIDTH 994 0
DWIDTH 14 0
BBX 14 26 0 -6
BITMAP
0000
0000
0330
0330
0000
0000
300C
300C
300C
300C
0C30
0C30
0CC0
0CC0
0300
0300
0C00
0C00
0C00
0C00
0000
0000
0000
0000
0000
0000
ENDCHAR
STARTCHAR char160
ENCODING 160
SWIDTH 994 0
DWIDTH 14 0
BBX 14 26 0 -6
BITMAP
0000
0000
0000
0000
0000
0000
0000
0000
0000
0000
0000
0000
0000
0000
0000
0000
0000
0000
0000
0000
0000
0000
0000
0000
0000
0000
ENDCHAR
STARTCHAR char161
ENCODING 161
SWIDTH 994 0
DWIDTH 14 0
BBX 14 26 0 -6
BITMAP
0000
0000
0000
0000
00C0
00C0
00C0
00C0
0000
0000
0300
0300
0300
0300
0300
0300
0C00
0C00
0C00
0C00
0000
0000
0000
0000
0000
0000
ENDCHAR
STARTCHAR char162
ENCODING 162
SWIDTH 994 0
DWIDTH 14 0
BBX 14 26 0 -6
BITMAP
0000
0000
0000
0000
0000
0000
0300
0300
0FC0
0FC0
3330
3330
3300
3300
CC00
CC00
CCC0
CCC0
3F00
3F00
0C00
0C00
0000
0000
0000
0000
ENDCHAR
STARTCHAR char163
ENCODING 163
SWIDTH 994 0
DWIDTH 14 0
BBX 14 26 0 -6
BITMAP
0000
0000
0000
0000
00F0
00F0
0300
0300
0C00
0C00
FFC0
FFC0
3000
3000
3000
3000
C000
C000
FFC0
FFC0
0000
0000
0000
0000
0000
0000
ENDCHAR
STARTCHAR char164
ENCODING 164
SWIDTH 994 0
DWIDTH 14 0
BBX 14 26 0 -6
BITMAP
0000
0000
0000
0000
0000
0000
0000
0000
3030
3030
0FC0
0FC0
0CC0
0CC0
3300
3300
3F00
3F00
C0C0
C0C0
0000
0000
0000
0000
0000
0000
ENDCHAR
STARTCHAR char165
ENCODING 165
SWIDTH 994 0
DWIDTH 14 0
BBX 14 26 0 -6
BITMAP
0000
0000
0000
0000
300C
300C
300C
300C
3030
3030
0CC0
0CC0
0300
0300
3FF0
3FF0
0C00
0C00
0C00
0C00
0000
0000
0000
0000
0000
0000
ENDCHAR
STARTCHAR char166
ENCODING 166
SWIDTH 994 0
DWIDTH 14 0
BBX 14 26 0 -6
BITMAP
0000
0000
00C0
00C0
00C0
00C0
00C0
00C0
0300
0300
0300
0300
0000
0000
0C00
0C00
0C00
0C00
3000
3000
3000
3000
3000
3000
0000
0000
ENDCHAR
STARTCHAR char167
ENCODING 167
SWIDTH 994 0
DWIDTH 14 0
BBX 14 26 0 -6
BITMAP
0000
0000
03F0
03F0
0C0C
0C0C
0C00
0C00
0F00
0F00
0CC0
0CC0
03C0
03C0
00C0
00C0
C0C0
C0C0
3F00
3F00
0000
0000
0000
0000
0000
0000
ENDCHAR
STARTCHAR char168
ENCODING 168
SWIDTH 994 0
DWIDTH 14 0
BBX 14 26 0 -6
BITMAP
0000
0000
0CC0
0CC0
0000
0000
0000
0000
0000
0000
0000
0000
0000
0000
0000
0000
0000
0000
0000
0000
0000
0000
0000
0000
0000
0000
ENDCHAR
STARTCHAR char169
ENCODING 169
SWIDTH 994 0
DWIDTH 14 0
BBX 14 26 0 -6
BITMAP
0000
0000
0000
0000
0FF0
0FF0
300C
300C
33CC
33CC
3C0C
3C0C
F030
F030
CF30
CF30
C030
C030
3FC0
3FC0
0000
0000
0000
0000
0000
0000
ENDCHAR
STARTCHAR char170
ENCODING 170
SWIDTH 994 0
DWIDTH 14 0
BBX 14 26 0 -6
BITMAP
0000
0000
0000
0000
0F00
0F00
00C0
00C0
0FC0
0FC0
30C0
30C0
0FC0
0FC0
0000
0000
0000
0000
0000
0000
0000
0000
0000
0000
0000
0000
ENDCHAR
STARTCHAR char171
ENCODING 171
SWIDTH 994 0
DWIDTH 14 0
BBX 14 26 0 -6
BITMAP
0000
0000
0000
0000
0000
0000
0000
0000
0330
0330
0CC0
0CC0
3300
3300
3300
3300
0CC0
0CC0
0000
0000
0000
0000
0000
0000
0000
0000
ENDCHAR
STARTCHAR char172
ENCODING 172
SWIDTH 994 0
DWIDTH 14 0
BBX 14 26 0 -6
BITMAP
0000
0000
0000
0000
0000
0000
0000
0000
0000
0000
0000
0000
3FC0
3FC0
00C0
00C0
0300
0300
0300
0300
0000
0000
0000
0000
0000
0000
ENDCHAR
STARTCHAR char173
ENCODING 173
SWIDTH 994 0
DWIDTH 14 0
BBX 14 26 0 -6
BITMAP
0000
0000
0000
0000
0000
0000
0000
0000
0000
0000
0000
0000
0000
0000
0000
0000
0000
0000
0000
0000
0000
0000
0000
0000
0000
0000
ENDCHAR
STARTCHAR char174
ENCODING 174
SWIDTH 994 0
DWIDTH 14 0
BBX 14 26 0 -6
BITMAP
0000
0000
0000
0000
0FF0
0FF0
300C
300C
3F0C
3F0C
3CCC
3CCC
FF30
FF30
F330
F330
C030
C030
3FC0
3FC0
0000
0000
0000
0000
0000
0000
ENDCHAR
STARTCHAR char175
ENCODING 175
SWIDTH 994 0
DWIDTH 14 0
BBX 14 26 0 -6
BITMAP
FFFC
FFFC
0000
0000
0000
0000
0000
0000
0000
0000
0000
0000
0000
0000
0000
0000
0000
0000
0000
0000
0000
0000
0000
0000
0000
0000
ENDCHAR
STARTCHAR char176
ENCODING 176
SWIDTH 994 0
DWIDTH 14 0
BBX 14 26 0 -6
BITMAP
0000
0000
0F00
0F00
30C0
30C0
30C0
30C0
0F00
0F00
0000
0000
0000
0000
0000
0000
0000
0000
0000
0000
0000
0000
0000
0000
0000
0000
ENDCHAR
STARTCHAR char177
ENCODING 177
SWIDTH 994 0
DWIDTH 14 0
BBX 14 26 0 -6
BITMAP
0000
0000
0000
0000
0000
0000
0300
0300
0300
0300
FFF0
FFF0
0C00
0C00
0C00
0C00
0000
0000
FFC0
FFC0
0000
0000
0000
0000
0000
0000
ENDCHAR
STARTCHAR char178
ENCODING 178
SWIDTH 994 0
DWIDTH 14 0
BBX 14 26 0 -6
BITMAP
0000
0000
3F00
3F00
00C0
00C0
0300
0300
0C00
0C00
3FC0
3FC0
0000
0000
0000
0000
0000
0000
0000
0000
0000
0000
0000
0000
0000
0000
ENDCHAR
STARTCHAR char179
ENCODING 179
SWIDTH 994 0
DWIDTH 14 0
BBX 14 26 0 -6
BITMAP
0000
0000
3F00
3F00
00C0
00C0
0F00
0F00
00C0
00C0
3F00
3F00
0000
0000
0000
0000
0000
0000
0000
0000
0000
0000
0000
0000
0000
0000
ENDCHAR
STARTCHAR char180
ENCODING 180
SWIDTH 994 0
DWIDTH 14 0
BBX 14 26 0 -6
BITMAP
0000
0000
00C0
00C0
0300
0300
0000
0000
0000
0000
0000
0000
0000
0000
0000
0000
0000
0000
0000
0000
0000
0000
0000
0000
0000
0000
ENDCHAR
STARTCHAR char181
ENCODING 181
SWIDTH 994 0
DWIDTH 14 0
BBX 14 26 0 -6
BITMAP
0000
0000
0000
0000
0000
0000
0000
0000
0C30
0C30
0C30
0C30
0C30
0C30
30C0
30C0
3CC0
3CC0
3300
3300
3000
3000
C000
C000
0000
0000
ENDCHAR
STARTCHAR char182
ENCODING 182
SWIDTH 994 0
DWIDTH 14 0
BBX 14 26 0 -6
BITMAP
0000
0000
0000
0000
0FF0
0FF0
3F30
3F30
3F30
3F30
0F30
0F30
0330
0330
0330
0330
0330
0330
0330
0330
0330
0330
0000
0000
0000
0000
ENDCHAR
STARTCHAR char183
ENCODING 183
SWIDTH 994 0
DWIDTH 14 0
BBX 14 26 0 -6
BITMAP
0000
0000
0000
0000
0000
0000
0000
0000
0000
0000
0300
0300
0FC0
0FC0
0300
0300
0000
0000
0000
0000
0000
0000
0000
0000
0000
0000
ENDCHAR
STARTCHAR char184
ENCODING 184
SWIDTH 994 0
DWIDTH 14 0
BBX 14 26 0 -6
BITMAP
0000
0000
0000
0000
0000
0000
0000
0000
0000
0000
0000
0000
0000
0000
0000
0000
0000
0000
0F00
0F00
0300
0300
0C00
0C00
0000
0000
ENDCHAR
STARTCHAR char185
ENCODING 185
SWIDTH 994 0
DWIDTH 14 0
BBX 14 26 0 -6
BITMAP
0000
0000
0C00
0C00
3C00
3C00
0C00
0C00
0C00
0C00
3F00
3F00
0000
0000
0000
0000
0000
0000
0000
0000
0000
0000
0000
0000
0000
0000
ENDCHAR
STARTCHAR char186
ENCODING 186
SWIDTH 994 0
DWIDTH 14 0
BBX 14 26 0 -6
BITMAP
0000
0000
0F00
0F00
30C0
30C0
30C0
30C0
30C0
30C0
0F00
0F00
0000
0000
0000
0000
0000
0000
0000
0000
0000
0000
0000
0000
0000
0000
ENDCHAR
STARTCHAR char187
ENCODING 187
SWIDTH 994 0
DWIDTH 14 0
BBX 14 26 0 -6
BITMAP
0000
0000
0000
0000
0000
0000
0000
0000
0CC0
0CC0
0330
0330
0330
0330
0CC0
0CC0
3300
3300
0000
0000
0000
0000
0000
0000
0000
0000
ENDCHAR
STARTCHAR char188
ENCODING 188
SWIDTH 994 0
DWIDTH 14 0
BBX 14 26 0 -6
BITMAP
0000
0000
3030
3030
30C0
30C0
30C0
30C0
3300
3300
0300
0300
0C30
0C30
0CF0
0CF0
33F0
33F0
3030
3030
0000
0000
0000
0000
0000
0000
ENDCHAR
STARTCHAR char189
ENCODING 189
SWIDTH 994 0
DWIDTH 14 0
BBX 14 26 0 -6
BITMAP
0000
0000
3030
3030
30C0
30C0
30C0
30C0
3300
3300
0300
0300
0CC0
0CC0
0C30
0C30
30C0
30C0
30F0
30F0
0000
0000
0000
0000
0000
0000
ENDCHAR
STARTCHAR char190
ENCODING 190
SWIDTH 994 0
DWIDTH 14 0
BBX 14 26 0 -6
BITMAP
0000
0000
3C30
3C30
0CC0
0CC0
30C0
30C0
0F00
0F00
3F00
3F00
0C30
0C30
0CF0
0CF0
33F0
33F0
3030
3030
0000
0000
0000
0000
0000
0000
ENDCHAR
STARTCHAR char191
ENCODING 191
SWIDTH 994 0
DWIDTH 14 0
BBX 14 26 0 -6
BITMAP
0000
0000
0000
0000
00C0
00C0
00C0
00C0
0000
0000
0300
0300
0C00
0C00
3000
3000
3030
3030
0FC0
0FC0
0000
0000
0000
0000
0000
0000
ENDCHAR
STARTCHAR char192
ENCODING 192
SWIDTH 994 0
DWIDTH 14 0
BBX 14 26 0 -6
BITMAP
00C0
00C0
0030
0030
0000
0000
00F0
00F0
0330
0330
0C30
0C30
3FF0
3FF0
3030
3030
C030
C030
C030
C030
0000
0000
0000
0000
0000
0000
ENDCHAR
STARTCHAR char193
ENCODING 193
SWIDTH 994 0
DWIDTH 14 0
BBX 14 26 0 -6
BITMAP
0030
0030
00C0
00C0
0000
0000
00F0
00F0
0330
0330
0C30
0C30
3FF0
3FF0
3030
3030
C030
C030
C030
C030
0000
0000
0000
0000
0000
0000
ENDCHAR
STARTCHAR char194
ENCODING 194
SWIDTH 994 0
DWIDTH 14 0
BBX 14 26 0 -6
BITMAP
00C0
00C0
0330
0330
0000
0000
00F0
00F0
0330
0330
0C30
0C30
3FF0
3FF0
3030
3030
C030
C030
C030
C030
0000
0000
0000
0000
0000
0000
ENDCHAR
STARTCHAR char195
ENCODING 195
SWIDTH 994 0
DWIDTH 14 0
BBX 14 26 0 -6
BITMAP
03CC
03CC
0CF0
0CF0
0000
0000
00F0
00F0
0330
0330
0C30
0C30
3FF0
3FF0
3030
3030
C030
C030
C030
C030
0000
0000
0000
0000
0000
0000
ENDCHAR
STARTCHAR char196
ENCODING 196
SWIDTH 994 0
DWIDTH 14 0
BBX 14 26 0 -6
BITMAP
0000
0000
0330
0330
0000
0000
00F0
00F0
0330
0330
0C30
0C30
3FF0
3FF0
3030
3030
C030
C030
C030
C030
0000
0000
0000
0000
0000
0000
ENDCHAR
STARTCHAR char197
ENCODING 197
SWIDTH 994 0
DWIDTH 14 0
BBX 14 26 0 -6
BITMAP
00C0
00C0
0330
0330
00C0
00C0
0330
0330
0C30
0C30
0C30
0C30
3FF0
3FF0
3030
3030
C030
C030
C030
C030
0000
0000
0000
0000
0000
0000
ENDCHAR
STARTCHAR char198
ENCODING 198
SWIDTH 994 0
DWIDTH 14 0
BBX 14 26 0 -6
BITMAP
0000
0000
0000
0000
00FC
00FC
0330
0330
0CC0
0CC0
0CF0
0CF0
3FC0
3FC0
30C0
30C0
C300
C300
C3C0
C3C0
0000
0000
0000
0000
0000
0000
ENDCHAR
STARTCHAR char199
ENCODING 199
SWIDTH 994 0
DWIDTH 14 0
BBX 14 26 0 -6
BITMAP
0000
0000
0000
0000
03F0
03F0
0C0C
0C0C
3000
3000
3000
3000
C000
C000
C000
C000
C0C0
C0C0
3F00
3F00
0C00
0C00
0C00
0C00
3000
3000
ENDCHAR
STARTCHAR char200
ENCODING 200
SWIDTH 994 0
DWIDTH 14 0
BBX 14 26 0 -6
BITMAP
00C0
00C0
0030
0030
0000
0000
0FFC
0FFC
0C00
0C00
3000
3000
3FC0
3FC0
3000
3000
C000
C000
FFC0
FFC0
0000
0000
0000
0000
0000
0000
ENDCHAR
STARTCHAR char201
ENCODING 201
SWIDTH 994 0
DWIDTH 14 0
BBX 14 26 0 -6
BITMAP
0030
0030
00C0
00C0
0000
0000
0FFC
0FFC
0C00
0C00
3000
3000
3FC0
3FC0
3000
3000
C000
C000
FFC0
FFC0
0000
0000
0000
0000
0000
0000
ENDCHAR
STARTCHAR char202
ENCODING 202
SWIDTH 994 0
DWIDTH 14 0
BBX 14 26 0 -6
BITMAP
00C0
00C0
0330
0330
0000
0000
0FFC
0FFC
0C00
0C00
3000
3000
3FC0
3FC0
3000
3000
C000
C000
FFC0
FFC0
0000
0000
0000
0000
0000
0000
ENDCHAR
STARTCHAR char203
ENCODING 203
SWIDTH 994 0
DWIDTH 14 0
BBX 14 26 0 -6
BITMAP
0000
0000
0330
0330
0000
0000
0FFC
0FFC
0C00
0C00
3000
3000
3FC0
3FC0
3000
3000
C000
C000
FFC0
FFC0
0000
0000
0000
0000
0000
0000
ENDCHAR
STARTCHAR char204
ENCODING 204
SWIDTH 994 0
DWIDTH 14 0
BBX 14 26 0 -6
BITMAP
00C0
00C0
0030
0030
0000
0000
03F0
03F0
00C0
00C0
0300
0300
0300
0300
0C00
0C00
0C00
0C00
3F00
3F00
0000
0000
0000
0000
0000
0000
ENDCHAR
STARTCHAR char205
ENCODING 205
SWIDTH 994 0
DWIDTH 14 0
BBX 14 26 0 -6
BITMAP
0030
0030
00C0
00C0
0000
0000
03F0
03F0
00C0
00C0
0300
0300
0300
0300
0C00
0C00
0C00
0C00
3F00
3F00
0000
0000
0000
0000
0000
0000
ENDCHAR
STARTCHAR char206
ENCODING 206
SWIDTH 994 0
DWIDTH 14 0
BBX 14 26 0 -6
BITMAP
00C0
00C0
0330
0330
0000
0000
03F0
03F0
00C0
00C0
0300
0300
0300
0300
0C00
0C00
0C00
0C00
3F00
3F00
0000
0000
0000
0000
0000
0000
ENDCHAR
STARTCHAR char207
ENCODING 207
SWIDTH 994 0
DWIDTH 14 0
BBX 14 26 0 -6
BITMAP
0000
0000
0330
0330
0000
0000
03F0
03F0
00C0
00C0
0300
0300
0300
0300
0C00
0C00
0C00
0C00
3F00
3F00
0000
0000
0000
0000
0000
0000
ENDCHAR
STARTCHAR char208
ENCODING 208
SWIDTH 994 0
DWIDTH 14 0
BBX 14 26 0 -6
BITMAP
0000
0000
0000
0000
0000
0000
03C0
03C0
0330
0330
0C30
0C30
3F30
3F30
0C30
0C30
30C0
30C0
3F00
3F00
0000
0000
0000
0000
0000
0000
ENDCHAR
STARTCHAR char209
ENCODING 209
SWIDTH 994 0
DWIDTH 14 0
BBX 14 26 0 -6
BITMAP
03CC
03CC
0CF0
0CF0
0000
0000
0C0C
0C0C
0F0C
0F0C
30F0
30F0
3030
3030
C0C0
C0C0
C0C0
C0C0
C0C0
C0C0
0000
0000
0000
0000
0000
0000
ENDCHAR
STARTCHAR char210
ENCODING 210
SWIDTH 994 0
DWIDTH 14 0
BBX 14 26 0 -6
BITMAP
00C0
00C0
0030
0030
0000
0000
03F0
03F0
0C0C
0C0C
300C
300C
3030
3030
C030
C030
C0C0
C0C0
3F00
3F00
0000
0000
0000
0000
0000
0000
ENDCHAR
STARTCHAR char211
ENCODING 211
SWIDTH 994 0
DWIDTH 14 0
BBX 14 26 0 -6
BITMAP
0030
0030
00C0
00C0
0000
0000
03F0
03F0
0C0C
0C0C
300C
300C
3030
3030
C030
C030
C0C0
C0C0
3F00
3F00
0000
0000
0000
0000
0000
0000
ENDCHAR
STARTCHAR char212
ENCODING 212
SWIDTH 994 0
DWIDTH 14 0
BBX 14 26 0 -6
BITMAP
00C0
00C0
0330
0330
0000
0000
03F0
03F0
0C0C
0C0C
300C
300C
3030
3030
C030
C030
C0C0
C0C0
3F00
3F00
0000
0000
0000
0000
0000
0000
ENDCHAR
STARTCHAR char213
ENCODING 213
SWIDTH 994 0
DWIDTH 14 0
BBX 14 26 0 -6
BITMAP
03CC
03CC
0CF0
0CF0
0000
0000
03F0
03F0
0C0C
0C0C
300C
300C
3030
3030
C030
C030
C0C0
C0C0
3F00
3F00
0000
0000
0000
0000
0000
0000
ENDCHAR
STARTCHAR char214
ENCODING 214
SWIDTH 994 0
DWIDTH 14 0
BBX 14 26 0 -6
BITMAP
0000
0000
0330
0330
0000
0000
03F0
03F0
0C0C
0C0C
300C
300C
3030
3030
C030
C030
C0C0
C0C0
3F00
3F00
0000
0000
0000
0000
0000
0000
ENDCHAR
STARTCHAR char215
ENCODING 215
SWIDTH 994 0
DWIDTH 14 0
BBX 14 26 0 -6
BITMAP
0000
0000
0000
0000
0000
0000
0000
0000
0C30
0C30
0CC0
0CC0
0300
0300
0CC0
0CC0
30C0
30C0
0000
0000
0000
0000
0000
0000
0000
0000
ENDCHAR
STARTCHAR char216
ENCODING 216
SWIDTH 994 0
DWIDTH 14 0
BBX 14 26 0 -6
BITMAP
0000
0000
000C
000C
03F0
03F0
0C3C
0C3C
30CC
30CC
330C
330C
C330
C330
CC30
CC30
F0C0
F0C0
3F00
3F00
C000
C000
0000
0000
0000
0000
ENDCHAR
STARTCHAR char217
ENCODING 217
SWIDTH 994 0
DWIDTH 14 0
BBX 14 26 0 -6
BITMAP
00C0
00C0
0030
0030
0000
0000
0C0C
0C0C
0C0C
0C0C
3030
3030
3030
3030
C0C0
C0C0
C0C0
C0C0
3F00
3F00
0000
0000
0000
0000
0000
0000
ENDCHAR
STARTCHAR char218
ENCODING 218
SWIDTH 994 0
DWIDTH 14 0
BBX 14 26 0 -6
BITMAP
0030
0030
00C0
00C0
0000
0000
0C0C
0C0C
0C0C
0C0C
3030
3030
3030
3030
C0C0
C0C0
C0C0
C0C0
3F00
3F00
0000
0000
0000
0000
0000
0000
ENDCHAR
STARTCHAR char219
ENCODING 219
SWIDTH 994 0
DWIDTH 14 0
BBX 14 26 0 -6
BITMAP
00C0
00C0
0330
0330
0000
0000
0C0C
0C0C
0C0C
0C0C
3030
3030
3030
3030
C0C0
C0C0
C0C0
C0C0
3F00
3F00
0000
0000
0000
0000
0000
0000
ENDCHAR
STARTCHAR char220
ENCODING 220
SWIDTH 994 0
DWIDTH 14 0
BBX 14 26 0 -6
BITMAP
0000
0000
0330
0330
0000
0000
0C0C
0C0C
0C0C
0C0C
3030
3030
3030
3030
C0C0
C0C0
C0C0
C0C0
3F00
3F00
0000
0000
0000
0000
0000
0000
ENDCHAR
STARTCHAR char221
ENCODING 221
SWIDTH 994 0
DWIDTH 14 0
BBX 14 26 0 -6
BITMAP
0030
0030
00C0
00C0
0000
0000
300C
300C
300C
300C
0C30
0C30
0CC0
0CC0
0300
0300
0C00
0C00
0C00
0C00
0000
0000
0000
0000
0000
0000
ENDCHAR
STARTCHAR char222
ENCODING 222
SWIDTH 994 0
DWIDTH 14 0
BBX 14 26 0 -6
BITMAP
0000
0000
0000
0000
0C00
0C00
0C00
0C00
3FC0
3FC0
3030
3030
30C0
30C0
FF00
FF00
C000
C000
C000
C000
0000
0000
0000
0000
0000
0000
ENDCHAR
STARTCHAR char223
ENCODING 223
SWIDTH 994 0
DWIDTH 14 0
BBX 14 26 0 -6
BITMAP
0000
0000
00F0
00F0
030C
030C
0330
0330
0FC0
0FC0
0C30
0C30
0C30
0C30
30C0
30C0
30C0
30C0
3F00
3F00
C000
C000
0000
0000
0000
0000
ENDCHAR
STARTCHAR char224
ENCODING 224
SWIDTH 994 0
DWIDTH 14 0
BBX 14 26 0 -6
BITMAP
0000
0000
0300
0300
00C0
00C0
0000
0000
0FC0
0FC0
0030
0030
3FF0
3FF0
C030
C030
C0C0
C0C0
3FC0
3FC0
0000
0000
0000
0000
0000
0000
ENDCHAR
STARTCHAR char225
ENCODING 225
SWIDTH 994 0
DWIDTH 14 0
BBX 14 26 0 -6
BITMAP
0000
0000
00C0
00C0
0300
0300
0000
0000
0FC0
0FC0
0030
0030
3FF0
3FF0
C030
C030
C0C0
C0C0
3FC0
3FC0
0000
0000
0000
0000
0000
0000
ENDCHAR
STARTCHAR char226
ENCODING 226
SWIDTH 994 0
DWIDTH 14 0
BBX 14 26 0 -6
BITMAP
0000
0000
00C0
00C0
0330
0330
0000
0000
0FC0
0FC0
0030
0030
3FF0
3FF0
C030
C030
C0C0
C0C0
3FC0
3FC0
0000
0000
0000
0000
0000
0000
ENDCHAR
STARTCHAR char227
ENCODING 227
SWIDTH 994 0
DWIDTH 14 0
BBX 14 26 0 -6
BITMAP
0000
0000
03CC
03CC
0CF0
0CF0
0000
0000
0FC0
0FC0
0030
0030
3FF0
3FF0
C030
C030
C0C0
C0C0
3FC0
3FC0
0000
0000
0000
0000
0000
0000
ENDCHAR
STARTCHAR char228
ENCODING 228
SWIDTH 994 0
DWIDTH 14 0
BBX 14 26 0 -6
BITMAP
0000
0000
0330
0330
0000
0000
0000
0000
0FC0
0FC0
0030
0030
3FF0
3FF0
C030
C030
C0C0
C0C0
3FC0
3FC0
0000
0000
0000
0000
0000
0000
ENDCHAR
STARTCHAR char229
ENCODING 229
SWIDTH 994 0
DWIDTH 14 0
BBX 14 26 0 -6
BITMAP
00C0
00C0
0330
0330
00C0
00C0
0000
0000
0FC0
0FC0
0030
0030
3FF0
3FF0
C030
C030
C0C0
C0C0
3FC0
3FC0
0000
0000
0000
0000
0000
0000
ENDCHAR
STARTCHAR char230
ENCODING 230
SWIDTH 994 0
DWIDTH 14 0
BBX 14 26 0 -6
BITMAP
0000
0000
0000
0000
0000
0000
0000
0000
0CC0
0CC0
0330
0330
3FF0
3FF0
CC00
CC00
CCC0
CCC0
3300
3300
0000
0000
0000
0000
0000
0000
ENDCHAR
STARTCHAR char231
ENCODING 231
SWIDTH 994 0
DWIDTH 14 0
BBX 14 26 0 -6
BITMAP
0000
0000
0000
0000
0000
0000
0000
0000
0FC0
0FC0
3030
3030
3000
3000
C000
C000
C0C0
C0C0
3F00
3F00
0C00
0C00
0C00
0C00
3000
3000
ENDCHAR
STARTCHAR char232
ENCODING 232
SWIDTH 994 0
DWIDTH 14 0
BBX 14 26 0 -6
BITMAP
0000
0000
0300
0300
00C0
00C0
0000
0000
0FC0
0FC0
3030
3030
3FF0
3FF0
C000
C000
C0C0
C0C0
3F00
3F00
0000
0000
0000
0000
0000
0000
ENDCHAR
STARTCHAR char233
ENCODING 233
SWIDTH 994 0
DWIDTH 14 0
BBX 14 26 0 -6
BITMAP
0000
0000
00C0
00C0
0300
0300
0000
0000
0FC0
0FC0
3030
3030
3FF0
3FF0
C000
C000
C0C0
C0C0
3F00
3F00
0000
0000
0000
0000
0000
0000
ENDCHAR
STARTCHAR char234
ENCODING 234
SWIDTH 994 0
DWIDTH 14 0
BBX 14 26 0 -6
BITMAP
0000
0000
00C0
00C0
0330
0330
0000
0000
0FC0
0FC0
3030
3030
3FF0
3FF0
C000
C000
C0C0
C0C0
3F00
3F00
0000
0000
0000
0000
0000
0000
ENDCHAR
STARTCHAR char235
ENCODING 235
SWIDTH 994 0
DWIDTH 14 0
BBX 14 26 0 -6
BITMAP
0000
0000
0330
0330
0000
0000
0000
0000
0FC0
0FC0
3030
3030
3FF0
3FF0
C000
C000
C0C0
C0C0
3F00
3F00
0000
0000
0000
0000
0000
0000
ENDCHAR
STARTCHAR char236
ENCODING 236
SWIDTH 994 0
DWIDTH 14 0
BBX 14 26 0 -6
BITMAP
0000
0000
0C00
0C00
0300
0300
0000
0000
0F00
0F00
0300
0300
0300
0300
0C00
0C00
0C00
0C00
3F00
3F00
0000
0000
0000
0000
0000
0000
ENDCHAR
STARTCHAR char237
ENCODING 237
SWIDTH 994 0
DWIDTH 14 0
BBX 14 26 0 -6
BITMAP
0000
0000
00C0
00C0
0300
0300
0000
0000
0F00
0F00
0300
0300
0300
0300
0C00
0C00
0C00
0C00
3F00
3F00
0000
0000
0000
0000
0000
0000
ENDCHAR
STARTCHAR char238
ENCODING 238
SWIDTH 994 0
DWIDTH 14 0
BBX 14 26 0 -6
BITMAP
0000
0000
0300
0300
0CC0
0CC0
0000
0000
0F00
0F00
0300
0300
0300
0300
0C00
0C00
0C00
0C00
3F00
3F00
0000
0000
0000
0000
0000
0000
ENDCHAR
STARTCHAR char239
ENCODING 239
SWIDTH 994 0
DWIDTH 14 0
BBX 14 26 0 -6
BITMAP
0000
0000
0CC0
0CC0
0000
0000
0000
0000
0F00
0F00
0300
0300
0300
0300
0C00
0C00
0C00
0C00
3F00
3F00
0000
0000
0000
0000
0000
0000
ENDCHAR
STARTCHAR char240
ENCODING 240
SWIDTH 994 0
DWIDTH 14 0
BBX 14 26 0 -6
BITMAP
0000
0000
0F30
0F30
00C0
00C0
0330
0330
0030
0030
0FF0
0FF0
3030
3030
C0C0
C0C0
C0C0
C0C0
3F00
3F00
0000
0000
0000
0000
0000
0000
ENDCHAR
STARTCHAR char241
ENCODING 241
SWIDTH 994 0
DWIDTH 14 0
BBX 14 26 0 -6
BITMAP
0000
0000
03CC
03CC
0CF0
0CF0
0000
0000
3FC0
3FC0
3030
3030
3030
3030
C0C0
C0C0
C0C0
C0C0
C0C0
C0C0
0000
0000
0000
0000
0000
0000
ENDCHAR
STARTCHAR char242
ENCODING 242
SWIDTH 994 0
DWIDTH 14 0
BBX 14 26 0 -6
BITMAP
0000
0000
0300
0300
00C0
00C0
0000
0000
0FC0
0FC0
3030
3030
3030
3030
C0C0
C0C0
C0C0
C0C0
3F00
3F00
0000
0000
0000
0000
0000
0000
ENDCHAR
STARTCHAR char243
ENCODING 243
SWIDTH 994 0
DWIDTH 14 0
BBX 14 26 0 -6
BITMAP
0000
0000
00C0
00C0
0300
0300
0000
0000
0FC0
0FC0
3030
3030
3030
3030
C0C0
C0C0
C0C0
C0C0
3F00
3F00
0000
0000
0000
0000
0000
0000
ENDCHAR
STARTCHAR char244
ENCODING 244
SWIDTH 994 0
DWIDTH 14 0
BBX 14 26 0 -6
BITMAP
0000
0000
00C0
00C0
0330
0330
0000
0000
0FC0
0FC0
3030
3030
3030
3030
C0C0
C0C0
C0C0
C0C0
3F00
3F00
0000
0000
0000
0000
0000
0000
ENDCHAR
STARTCHAR char245
ENCODING 245
SWIDTH 994 0
DWIDTH 14 0
BBX 14 26 0 -6
BITMAP
0000
0000
03CC
03CC
0CF0
0CF0
0000
0000
0FC0
0FC0
3030
3030
3030
3030
C0C0
C0C0
C0C0
C0C0
3F00
3F00
0000
0000
0000
0000
0000
0000
ENDCHAR
STARTCHAR char246
ENCODING 246
SWIDTH 994 0
DWIDTH 14 0
BBX 14 26 0 -6
BITMAP
0000
0000
0330
0330
0000
0000
0000
0000
0FC0
0FC0
3030
3030
3030
3030
C0C0
C0C0
C0C0
C0C0
3F00
3F00
0000
0000
0000
0000
0000
0000
ENDCHAR
STARTCHAR char247
ENCODING 247
SWIDTH 994 0
DWIDTH 14 0
BBX 14 26 0 -6
BITMAP
0000
0000
0000
0000
0000
0000
0000
0000
0300
0300
0000
0000
FFF0
FFF0
0000
0000
0C00
0C00
0000
0000
0000
0000
0000
0000
0000
0000
ENDCHAR
STARTCHAR char248
ENCODING 248
SWIDTH 994 0
DWIDTH 14 0
BBX 14 26 0 -6
BITMAP
0000
0000
0000
0000
0000
0000
0030
0030
0FC0
0FC0
30F0
30F0
3330
3330
CCC0
CCC0
F0C0
F0C0
3F00
3F00
C000
C000
0000
0000
0000
0000
ENDCHAR
STARTCHAR char249
ENCODING 249
SWIDTH 994 0
DWIDTH 14 0
BBX 14 26 0 -6
BITMAP
0000
0000
0300
0300
00C0
00C0
0000
0000
3030
3030
3030
3030
3030
3030
C0C0
C0C0
C0C0
C0C0
3FC0
3FC0
0000
0000
0000
0000
0000
0000
ENDCHAR
STARTCHAR char250
ENCODING 250
SWIDTH 994 0
DWIDTH 14 0
BBX 14 26 0 -6
BITMAP
0000
0000
00C0
00C0
0300
0300
0000
0000
3030
3030
3030
3030
3030
3030
C0C0
C0C0
C0C0
C0C0
3FC0
3FC0
0000
0000
0000
0000
0000
0000
ENDCHAR
STARTCHAR char251
ENCODING 251
SWIDTH 994 0
DWIDTH 14 0
BBX 14 26 0 -6
BITMAP
0000
0000
00C0
00C0
0330
0330
0000
0000
3030
3030
3030
3030
3030
3030
C0C0
C0C0
C0C0
C0C0
3FC0
3FC0
0000
0000
0000
0000
0000
0000
ENDCHAR
STARTCHAR char252
ENCODING 252
SWIDTH 994 0
DWIDTH 14 0
BBX 14 26 0 -6
BITMAP
0000
0000
0330
0330
0000
0000
0000
0000
3030
3030
3030
3030
3030
3030
C0C0
C0C0
C0C0
C0C0
3FC0
3FC0
0000
0000
0000
0000
0000
0000
ENDCHAR
STARTCHAR char253
ENCODING 253
SWIDTH 994 0
DWIDTH 14 0
BBX 14 26 0 -6
BITMAP
0000
0000
00C0
00C0
0300
0300
0000
0000
3030
3030
3030
3030
3030
3030
C0C0
C0C0
C0C0
C0C0
3FC0
3FC0
0300
0300
0300
0300
FC00
FC00
ENDCHAR
STARTCHAR char254
ENCODING 254
SWIDTH 994 0
DWIDTH 14 0
BBX 14 26 0 -6
BITMAP
0000
0000
0000
0000
0C00
0C00
0C00
0C00
3FC0
3FC0
3030
3030
3030
3030
C0C0
C0C0
C0C0
C0C0
FF00
FF00
C000
C000
C000
C000
0000
0000
ENDCHAR
STARTCHAR char255
ENCODING 255
SWIDTH 994 0
DWIDTH 14 0
BBX 14 26 0 -6
BITMAP
0000
0000
0330
0330
0000
0000
0000
0000
3030
3030
3030
3030
3030
3030
C0C0
C0C0
C0C0
C0C0
3FC0
3FC0
0300
0300
0300
0300
FC00
FC00
ENDCHAR
STARTCHAR Amacron
ENCODING 256
SWIDTH 994 0
DWIDTH 14 0
BBX 14 26 0 -6
BITMAP
0000
0000
0FF0
0FF0
0000
0000
03C0
03C0
0C30
0C30
300C
300C
300C
300C
3FF0
3FF0
C030
C030
C030
C030
C030
C030
0000
0000
0000
0000
ENDCHAR
STARTCHAR amacron
ENCODING 257
SWIDTH 994 0
DWIDTH 14 0
BBX 14 26 0 -6
BITMAP
0000
0000
0000
0000
0000
0000
0FF0
0FF0
0000
0000
0FF0
0FF0
000C
000C
3FF0
3FF0
C030
C030
C0F0
C0F0
3F30
3F30
0000
0000
0000
0000
ENDCHAR
STARTCHAR Abreve
ENCODING 258
SWIDTH 994 0
DWIDTH 14 0
BBX 14 26 0 -6
BITMAP
0000
0000
300C
300C
0FF0
0FF0
0000
0000
03C0
03C0
0C30
0C30
300C
300C
300C
300C
3FF0
3FF0
C030
C030
C030
C030
0000
0000
0000
0000
ENDCHAR
STARTCHAR abreve
ENCODING 259
SWIDTH 994 0
DWIDTH 14 0
BBX 14 26 0 -6
BITMAP
0000
0000
0000
0000
300C
300C
0FF0
0FF0
0000
0000
0FF0
0FF0
000C
000C
3FF0
3FF0
C030
C030
C0F0
C0F0
3F30
3F30
0000
0000
0000
0000
ENDCHAR
STARTCHAR Aogonek
ENCODING 260
SWIDTH 994 0
DWIDTH 14 0
BBX 14 26 0 -6
BITMAP
0000
0000
0000
0000
03C0
03C0
0C30
0C30
300C
300C
300C
300C
300C
300C
3FFC
3FFC
C030
C030
C030
C030
C030
C030
00C0
00C0
003C
003C
ENDCHAR
STARTCHAR aogonek
ENCODING 261
SWIDTH 994 0
DWIDTH 14 0
BBX 14 26 0 -6
BITMAP
0000
0000
0000
0000
0000
0000
0000
0000
0000
0000
0FF0
0FF0
000C
000C
3FF0
3FF0
C030
C030
C030
C030
3FF0
3FF0
00C0
00C0
003C
003C
ENDCHAR
STARTCHAR Cacute
ENCODING 262
SWIDTH 994 0
DWIDTH 14 0
BBX 14 26 0 -6
BITMAP
0000
0000
00C0
00C0
0300
0300
0000
0000
0FF0
0FF0
300C
300C
3000
3000
C000
C000
C000
C000
C030
C030
3FC0
3FC0
0000
0000
0000
0000
ENDCHAR
STARTCHAR cacute
ENCODING 263
SWIDTH 994 0
DWIDTH 14 0
BBX 14 26 0 -6
BITMAP
0000
0000
0000
0000
0030
0030
00C0
00C0
0000
0000
0FF0
0FF0
300C
300C
C000
C000
C000
C000
C030
C030
3FC0
3FC0
0000
0000
0000
0000
ENDCHAR
STARTCHAR Ccircumflex
ENCODING 264
SWIDTH 994 0
DWIDTH 14 0
BBX 14 26 0 -6
BITMAP
0000
0000
03C0
03C0
0C30
0C30
0000
0000
0FF0
0FF0
300C
300C
3000
3000
C000
C000
C000
C000
C030
C030
3FC0
3FC0
0000
0000
0000
0000
ENDCHAR
STARTCHAR ccircumflex
ENCODING 265
SWIDTH 994 0
DWIDTH 14 0
BBX 14 26 0 -6
BITMAP
0000
0000
0000
0000
03C0
03C0
0C30
0C30
0000
0000
0FF0
0FF0
300C
300C
C000
C000
C000
C000
C030
C030
3FC0
3FC0
0000
0000
0000
0000
ENDCHAR
STARTCHAR Cdotaccent
ENCODING 266
SWIDTH 994 0
DWIDTH 14 0
BBX 14 26 0 -6
BITMAP
0000
0000
03C0
03C0
0000
0000
0FF0
0FF0
300C
300C
3000
3000
3000
3000
C000
C000
C000
C000
C030
C030
3FC0
3FC0
0000
0000
0000
0000
ENDCHAR
STARTCHAR cdotaccent
ENCODING 267
SWIDTH 994 0
DWIDTH 14 0
BBX 14 26 0 -6
BITMAP
0000
0000
0000
0000
0000
0000
03C0
03C0
0000
0000
0FF0
0FF0
300C
300C
C000
C000
C000
C000
C030
C030
3FC0
3FC0
0000
0000
0000
0000
ENDCHAR
STARTCHAR Ccaron
ENCODING 268
SWIDTH 994 0
DWIDTH 14 0
BBX 14 26 0 -6
BITMAP
0000
0000
0C30
0C30
03C0
03C0
0000
0000
0FF0
0FF0
300C
300C
3000
3000
C000
C000
C000
C000
C030
C030
3FC0
3FC0
0000
0000
0000
0000
ENDCHAR
STARTCHAR ccaron
ENCODING 269
SWIDTH 994 0
DWIDTH 14 0
BBX 14 26 0 -6
BITMAP
0000
0000
0000
0000
0C30
0C30
03C0
03C0
0000
0000
0FF0
0FF0
300C
300C
C000
C000
C000
C000
C030
C030
3FC0
3FC0
0000
0000
0000
0000
ENDCHAR
STARTCHAR Dcaron
ENCODING 270
SWIDTH 994 0
DWIDTH 14 0
BBX 14 26 0 -6
BITMAP
0000
0000
0C30
0C30
03C0
03C0
0000
0000
3FF0
3FF0
0C0C
0C0C
0C0C
0C0C
3030
3030
3030
3030
3030
3030
FFC0
FFC0
0000
0000
0000
0000
ENDCHAR
STARTCHAR dcaron
ENCODING 271
SWIDTH 994 0
DWIDTH 14 0
BBX 14 26 0 -6
BITMAP
0000
0000
0C30
0C30
03C0
03C0
000C
000C
000C
000C
0FCC
0FCC
3030
3030
C030
C030
C030
C030
C0F0
C0F0
3F30
3F30
0000
0000
0000
0000
ENDCHAR
STARTCHAR Dcroat
ENCODING 272
SWIDTH 994 0
DWIDTH 14 0
BBX 14 26 0 -6
BITMAP
0000
0000
0000
0000
3FF0
3FF0
0C0C
0C0C
0C0C
0C0C
0C0C
0C0C
FF0C
FF0C
3030
3030
3030
3030
3030
3030
FFC0
FFC0
0000
0000
0000
0000
ENDCHAR
STARTCHAR dcroat
ENCODING 273
SWIDTH 994 0
DWIDTH 14 0
BBX 14 26 0 -6
BITMAP
0000
0000
0000
0000
000C
000C
00FC
00FC
000C
000C
0FCC
0FCC
3030
3030
C030
C030
C030
C030
C0F0
C0F0
3F30
3F30
0000
0000
0000
0000
ENDCHAR
STARTCHAR Emacron
ENCODING 274
SWIDTH 994 0
DWIDTH 14 0
BBX 14 26 0 -6
BITMAP
0000
0000
0000
0000
0FF0
0FF0
0000
0000
3FFC
3FFC
3000
3000
3000
3000
3F00
3F00
C000
C000
C000
C000
FFF0
FFF0
0000
0000
0000
0000
ENDCHAR
STARTCHAR emacron
ENCODING 275
SWIDTH 994 0
DWIDTH 14 0
BBX 14 26 0 -6
BITMAP
0000
0000
0000
0000
0000
0000
0FF0
0FF0
0000
0000
0FF0
0FF0
300C
300C
3FF0
3FF0
C000
C000
C030
C030
3FC0
3FC0
0000
0000
0000
0000
ENDCHAR
STARTCHAR Ebreve
ENCODING 276
SWIDTH 994 0
DWIDTH 14 0
BBX 14 26 0 -6
BITMAP
0000
0000
300C
300C
0FF0
0FF0
0000
0000
3FFC
3FFC
3000
3000
3000
3000
3F00
3F00
C000
C000
C000
C000
FFF0
FFF0
0000
0000
0000
0000
ENDCHAR
STARTCHAR ebreve
ENCODING 277
SWIDTH 994 0
DWIDTH 14 0
BBX 14 26 0 -6
BITMAP
0000
0000
0000
0000
300C
300C
0FF0
0FF0
0000
0000
0FF0
0FF0
300C
300C
3FF0
3FF0
C000
C000
C030
C030
3FC0
3FC0
0000
0000
0000
0000
ENDCHAR
STARTCHAR Edotaccent
ENCODING 278
SWIDTH 994 0
DWIDTH 14 0
BBX 14 26 0 -6
BITMAP
0000
0000
03C0
03C0
0000
0000
3FFC
3FFC
3000
3000
3000
3000
3FC0
3FC0
C000
C000
C000
C000
C000
C000
FFF0
FFF0
0000
0000
0000
0000
ENDCHAR
STARTCHAR edotaccent
ENCODING 279
SWIDTH 994 0
DWIDTH 14 0
BBX 14 26 0 -6
BITMAP
0000
0000
0000
0000
0000
0000
03C0
03C0
0000
0000
0FF0
0FF0
300C
300C
3FF0
3FF0
C000
C000
C030
C030
3FC0
3FC0
0000
0000
0000
0000
ENDCHAR
STARTCHAR Eogonek
ENCODING 280
SWIDTH 994 0
DWIDTH 14 0
BBX 14 26 0 -6
BITMAP
0000
0000
0000
0000
3FFC
3FFC
3000
3000
3000
3000
3000
3000
3FC0
3FC0
C000
C000
C000
C000
C000
C000
FFF0
FFF0
0C00
0C00
03C0
03C0
ENDCHAR
STARTCHAR eogonek
ENCODING 281
SWIDTH 994 0
DWIDTH 14 0
BBX 14 26 0 -6
BITMAP
0000
0000
0000
0000
0000
0000
0000
0000
0000
0000
0FF0
0FF0
300C
300C
3FF0
3FF0
C000
C000
C030
C030
3FC0
3FC0
3000
3000
0F00
0F00
ENDCHAR
STARTCHAR Ecaron
ENCODING 282
SWIDTH 994 0
DWIDTH 14 0
BBX 14 26 0 -6
BITMAP
0000
0000
0C30
0C30
03C0
03C0
0000
0000
3FFC
3FFC
3000
3000
3000
3000
3F00
3F00
C000
C000
C000
C000
FFF0
FFF0
0000
0000
0000
0000
ENDCHAR
STARTCHAR ecaron
ENCODING 283
SWIDTH 994 0
DWIDTH 14 0
BBX 14 26 0 -6
BITMAP
0000
0000
0000
0000
0C30
0C30
03C0
03C0
0000
0000
0FF0
0FF0
300C
300C
3FF0
3FF0
C000
C000
C030
C030
3FC0
3FC0
0000
0000
0000
0000
ENDCHAR
STARTCHAR Gcircumflex
ENCODING 284
SWIDTH 994 0
DWIDTH 14 0
BBX 14 26 0 -6
BITMAP
0000
0000
03C0
03C0
0C30
0C30
0000
0000
0FF0
0FF0
300C
300C
3000
3000
C3F0
C3F0
C030
C030
C0F0
C0F0
3F30
3F30
0000
0000
0000
0000
ENDCHAR
STARTCHAR gcircumflex
ENCODING 285
SWIDTH 994 0
DWIDTH 14 0
BBX 14 26 0 -6
BITMAP
0000
0000
0000
0000
03C0
03C0
0C30
0C30
0000
0000
0FCC
0FCC
3030
3030
C0C0
C0C0
3F00
3F00
C000
C000
3FC0
3FC0
C030
C030
3FC0
3FC0
ENDCHAR
STARTCHAR Gbreve
ENCODING 286
SWIDTH 994 0
DWIDTH 14 0
BBX 14 26 0 -6
BITMAP
0000
0000
300C
300C
0FF0
0FF0
0000
0000
0FF0
0FF0
300C
300C
3000
3000
C3F0
C3F0
C030
C030
C0F0
C0F0
3F30
3F30
0000
0000
0000
0000
ENDCHAR
STARTCHAR gbreve
ENCODING 287
SWIDTH 994 0
DWIDTH 14 0
BBX 14 26 0 -6
BITMAP
0000
0000
0000
0000
300C
300C
0FF0
0FF0
0000
0000
0FCC
0FCC
3030
3030
C0C0
C0C0
3F00
3F00
C000
C000
3FC0
3FC0
C030
C030
3FC0
3FC0
ENDCHAR
STARTCHAR Gdotaccent
ENCODING 288
SWIDTH 994 0
DWIDTH 14 0
BBX 14 26 0 -6
BITMAP
0000
0000
03C0
03C0
0000
0000
0FF0
0FF0
300C
300C
3000
3000
3000
3000
C3F0
C3F0
C030
C030
C0F0
C0F0
3F30
3F30
0000
0000
0000
0000
ENDCHAR
STARTCHAR gdotaccent
ENCODING 289
SWIDTH 994 0
DWIDTH 14 0
BBX 14 26 0 -6
BITMAP
0000
0000
0000
0000
0000
0000
03C0
03C0
0000
0000
0FCC
0FCC
3030
3030
C0C0
C0C0
3F00
3F00
C000
C000
3FC0
3FC0
C030
C030
3FC0
3FC0
ENDCHAR
STARTCHAR Gcommaaccent
ENCODING 290
SWIDTH 994 0
DWIDTH 14 0
BBX 14 26 0 -6
BITMAP
0000
0000
0000
0000
0FF0
0FF0
300C
300C
3000
3000
3000
3000
3000
3000
C3F0
C3F0
C030
C030
C0F0
C0F0
3F30
3F30
0300
0300
0C00
0C00
ENDCHAR
STARTCHAR gcommaaccent
ENCODING 291
SWIDTH 994 0
DWIDTH 14 0
BBX 14 26 0 -6
BITMAP
0000
0000
00C0
00C0
0300
0300
03C0
03C0
0000
0000
0FCC
0FCC
3030
3030
C0C0
C0C0
3F00
3F00
C000
C000
3FC0
3FC0
C030
C030
3FC0
3FC0
ENDCHAR
STARTCHAR Hcircumflex
ENCODING 292
SWIDTH 994 0
DWIDTH 14 0
BBX 14 26 0 -6
BITMAP
0000
0000
03C0
03C0
0C30
0C30
0000
0000
300C
300C
300C
300C
300C
300C
3FF0
3FF0
C030
C030
C030
C030
C030
C030
0000
0000
0000
0000
ENDCHAR
STARTCHAR hcircumflex
ENCODING 293
SWIDTH 994 0
DWIDTH 14 0
BBX 14 26 0 -6
BITMAP
0000
0000
00F0
00F0
030C
030C
3000
3000
3000
3000
3000
3000
3FC0
3FC0
3030
3030
C0C0
C0C0
C0C0
C0C0
C0C0
C0C0
0000
0000
0000
0000
ENDCHAR
STARTCHAR Hbar
ENCODING 294
SWIDTH 994 0
DWIDTH 14 0
BBX 14 26 0 -6
BITMAP
0000
0000
0000
0000
3030
3030
3030
3030
FFFC
FFFC
3030
3030
3FC0
3FC0
C0C0
C0C0
C0C0
C0C0
C0C0
C0C0
C0C0
C0C0
0000
0000
0000
0000
ENDCHAR
STARTCHAR hbar
ENCODING 295
SWIDTH 994 0
DWIDTH 14 0
BBX 14 26 0 -6
BITMAP
0000
0000
0000
0000
3000
3000
FFC0
FFC0
3000
3000
33C0
33C0
3C30
3C30
3030
3030
C0C0
C0C0
C0C0
C0C0
C0C0
C0C0
0000
0000
0000
0000
ENDCHAR
STARTCHAR Itilde
ENCODING 296
SWIDTH 994 0
DWIDTH 14 0
BBX 14 26 0 -6
BITMAP
0000
0000
0C30
0C30
33C0
33C0
0000
0000
3FF0
3FF0
0300
0300
0300
0300
0C00
0C00
0C00
0C00
0C00
0C00
FFC0
FFC0
0000
0000
0000
0000
ENDCHAR
STARTCHAR itilde
ENCODING 297
SWIDTH 994 0
DWIDTH 14 0
BBX 14 26 0 -6
BITMAP
0000
0000
0000
0000
0C30
0C30
33C0
33C0
0000
0000
0F00
0F00
0300
0300
0300
0300
0C00
0C00
0C00
0C00
FFC0
FFC0
0000
0000
0000
0000
ENDCHAR
STARTCHAR Imacron
ENCODING 298
SWIDTH 994 0
DWIDTH 14 0
BBX 14 26 0 -6
BITMAP
0000
0000
3FF0
3FF0
0000
0000
3FF0
3FF0
0300
0300
0300
0300
0300
0300
0C00
0C00
0C00
0C00
0C00
0C00
FFC0
FFC0
0000
0000
0000
0000
ENDCHAR
STARTCHAR imacron
ENCODING 299
SWIDTH 994 0
DWIDTH 14 0
BBX 14 26 0 -6
BITMAP
0000
0000
0000
0000
0000
0000
3FF0
3FF0
0000
0000
0F00
0F00
0300
0300
0300
0300
0C00
0C00
0C00
0C00
FFC0
FFC0
0000
0000
0000
0000
ENDCHAR
STARTCHAR Ibreve
ENCODING 300
SWIDTH 994 0
DWIDTH 14 0
BBX 14 26 0 -6
BITMAP
0000
0000
3030
3030
0FC0
0FC0
0000
0000
3FF0
3FF0
0300
0300
0300
0300
0C00
0C00
0C00
0C00
0C00
0C00
FFC0
FFC0
0000
0000
0000
0000
ENDCHAR
STARTCHAR ibreve
ENCODING 301
SWIDTH 994 0
DWIDTH 14 0
BBX 14 26 0 -6
BITMAP
0000
0000
0000
0000
3030
3030
0FC0
0FC0
0000
0000
0F00
0F00
0300
0300
0300
0300
0C00
0C00
0C00
0C00
FFC0
FFC0
0000
0000
0000
0000
ENDCHAR
STARTCHAR Iogonek
ENCODING 302
SWIDTH 994 0
DWIDTH 14 0
BBX 14 26 0 -6
BITMAP
0000
0000
0000
0000
3FF0
3FF0
0300
0300
0300
0300
0300
0300
0300
0300
0C00
0C00
0C00
0C00
0C00
0C00
FFC0
FFC0
3000
3000
0F00
0F00
ENDCHAR
STARTCHAR iogonek
ENCODING 303
SWIDTH 994 0
DWIDTH 14 0
BBX 14 26 0 -6
BITMAP
0000
0000
0000
0000
0000
0000
00C0
00C0
0000
0000
03C0
03C0
00C0
00C0
00C0
00C0
0300
0300
0300
0300
3FF0
3FF0
0C00
0C00
03C0
03C0
ENDCHAR
STARTCHAR Idotaccent
ENCODING 304
SWIDTH 994 0
DWIDTH 14 0
BBX 14 26 0 -6
BITMAP
0000
0000
0300
0300
0000
0000
3FF0
3FF0
0300
0300
0300
0300
0300
0300
0C00
0C00
0C00
0C00
0C00
0C00
FFC0
FFC0
0000
0000
0000
0000
ENDCHAR
STARTCHAR dotlessi
ENCODING 305
SWIDTH 994 0
DWIDTH 14 0
BBX 14 26 0 -6
BITMAP
0000
0000
0000
0000
0000
0000
0000
0000
0000
0000
03C0
03C0
00C0
00C0
00C0
00C0
0300
0300
0300
0300
3FF0
3FF0
0000
0000
0000
0000
ENDCHAR
STARTCHAR IJ
ENCODING 306
SWIDTH 994 0
DWIDTH 14 0
BBX 14 26 0 -6
BITMAP
0000
0000
0000
0000
30FC
30FC
3030
3030
3030
3030
3030
3030
3030
3030
C0C0
C0C0
C0C0
C0C0
CCC0
CCC0
C300
C300
0000
0000
0000
0000
ENDCHAR
STARTCHAR ij
ENCODING 307
SWIDTH 994 0
DWIDTH 14 0
BBX 14 26 0 -6
BITMAP
0000
0000
0000
0000
0000
0000
3030
3030
0000
0000
30F0
30F0
3030
3030
3030
3030
C0C0
C0C0
C0C0
C0C0
CCC0
CCC0
0CC0
0CC0
0300
0300
ENDCHAR
STARTCHAR Jcircumflex
ENCODING 308
SWIDTH 994 0
DWIDTH 14 0
BBX 14 26 0 -6
BITMAP
0000
0000
00F0
00F0
030C
030C
0000
0000
00FC
00FC
0030
0030
0030
0030
00C0
00C0
00C0
00C0
C0C0
C0C0
3F00
3F00
0000
0000
0000
0000
ENDCHAR
STARTCHAR jcircumflex
ENCODING 309
SWIDTH 994 0
DWIDTH 14 0
BBX 14 26 0 -6
BITMAP
0000
0000
0000
0000
00F0
00F0
030C
030C
0000
0000
00F0
00F0
0030
0030
0030
0030
00C0
00C0
00C0
00C0
C0C0
C0C0
C0C0
C0C0
3F00
3F00
ENDCHAR
STARTCHAR Kcommaaccent
ENCODING 310
SWIDTH 994 0
DWIDTH 14 0
BBX 14 26 0 -6
BITMAP
0000
0000
0000
0000
300C
300C
3030
3030
30C0
30C0
3300
3300
3C00
3C00
CC00
CC00
C300
C300
C0C0
C0C0
C030
C030
3000
3000
C000
C000
ENDCHAR
STARTCHAR kcommaaccent
ENCODING 311
SWIDTH 994 0
DWIDTH 14 0
BBX 14 26 0 -6
BITMAP
0000
0000
0000
0000
3000
3000
3000
3000
3000
3000
3030
3030
33C0
33C0
3C00
3C00
C300
C300
C0C0
C0C0
C030
C030
3000
3000
C000
C000
ENDCHAR
STARTCHAR kgreenlandic
ENCODING 312
SWIDTH 994 0
DWIDTH 14 0
BBX 14 26 0 -6
BITMAP
0000
0000
0000
0000
0000
0000
0000
0000
300C
300C
3030
3030
33C0
33C0
3C00
3C00
C300
C300
C0C0
C0C0
C030
C030
0000
0000
0000
0000
ENDCHAR
STARTCHAR Lacute
ENCODING 313
SWIDTH 994 0
DWIDTH 14 0
BBX 14 26 0 -6
BITMAP
0000
0000
0C00
0C00
3000
3000
0000
0000
3000
3000
3000
3000
3000
3000
C000
C000
C000
C000
C000
C000
FFF0
FFF0
0000
0000
0000
0000
ENDCHAR
STARTCHAR lacute
ENCODING 314
SWIDTH 994 0
DWIDTH 14 0
BBX 14 26 0 -6
BITMAP
0000
0000
00C0
00C0
0300
0300
0000
0000
03C0
03C0
00C0
00C0
00C0
00C0
0300
0300
0300
0300
0300
0300
3FF0
3FF0
0000
0000
0000
0000
ENDCHAR
STARTCHAR Lcommaaccent
ENCODING 315
SWIDTH 994 0
DWIDTH 14 0
BBX 14 26 0 -6
BITMAP
0000
0000
0000
0000
3000
3000
3000
3000
3000
3000
3000
3000
3000
3000
C000
C000
C000
C000
C000
C000
FFF0
FFF0
0300
0300
0C00
0C00
ENDCHAR
STARTCHAR lcommaaccent
ENCODING 316
SWIDTH 994 0
DWIDTH 14 0
BBX 14 26 0 -6
BITMAP
0000
0000
0000
0000
03C0
03C0
00C0
00C0
00C0
00C0
00C0
00C0
00C0
00C0
0300
0300
0300
0300
0300
0300
3FF0
3FF0
0300
0300
0C00
0C00
ENDCHAR
STARTCHAR Lcaron
ENCODING 317
SWIDTH 994 0
DWIDTH 14 0
BBX 14 26 0 -6
BITMAP
0000
0000
30C0
30C0
0F00
0F00
0000
0000
3000
3000
3000
3000
3000
3000
C000
C000
C000
C000
C000
C000
FFF0
FFF0
0000
0000
0000
0000
ENDCHAR
STARTCHAR lcaron
ENCODING 318
SWIDTH 994 0
DWIDTH 14 0
BBX 14 26 0 -6
BITMAP
0000
0000
0C30
0C30
03C0
03C0
0000
0000
03C0
03C0
00C0
00C0
00C0
00C0
0300
0300
0300
0300
0300
0300
3FF0
3FF0
0000
0000
0000
0000
ENDCHAR
STARTCHAR Ldot
ENCODING 319
SWIDTH 994 0
DWIDTH 14 0
BBX 14 26 0 -6
BITMAP
0000
0000
0000
0000
3000
3000
3000
3000
3000
3000
30C0
30C0
30C0
30C0
C000
C000
C000
C000
C000
C000
FFF0
FFF0
0000
0000
0000
0000
ENDCHAR
STARTCHAR ldot
ENCODING 320
SWIDTH 994 0
DWIDTH 14 0
BBX 14 26 0 -6
BITMAP
0000
0000
0000
0000
0F00
0F00
0300
0300
0300
0300
030C
030C
030C
030C
0C00
0C00
0C00
0C00
0C00
0C00
FFC0
FFC0
0000
0000
0000
0000
ENDCHAR
STARTCHAR Lslash
ENCODING 321
SWIDTH 994 0
DWIDTH 14 0
BBX 14 26 0 -6
BITMAP
0000
0000
0000
0000
0C00
0C00
0C00
0C00
0CC0
0CC0
0F00
0F00
3000
3000
F000
F000
3000
3000
3000
3000
3FF0
3FF0
0000
0000
0000
0000
ENDCHAR
STARTCHAR lslash
ENCODING 322
SWIDTH 994 0
DWIDTH 14 0
BBX 14 26 0 -6
BITMAP
0000
0000
0000
0000
0F00
0F00
0300
0300
0330
0330
03C0
03C0
0C00
0C00
3C00
3C00
0C00
0C00
0C00
0C00
FFC0
FFC0
0000
0000
0000
0000
ENDCHAR
STARTCHAR Nacute
ENCODING 323
SWIDTH 994 0
DWIDTH 14 0
BBX 14 26 0 -6
BITMAP
0000
0000
00C0
00C0
0300
0300
0000
0000
300C
300C
3C0C
3C0C
330C
330C
C330
C330
C0F0
C0F0
C0F0
C0F0
C030
C030
0000
0000
0000
0000
ENDCHAR
STARTCHAR nacute
ENCODING 324
SWIDTH 994 0
DWIDTH 14 0
BBX 14 26 0 -6
BITMAP
0000
0000
0000
0000
00C0
00C0
0300
0300
0000
0000
33F0
33F0
3C0C
3C0C
300C
300C
C030
C030
C030
C030
C030
C030
0000
0000
0000
0000
ENDCHAR
STARTCHAR Ncommaaccent
ENCODING 325
SWIDTH 994 0
DWIDTH 14 0
BBX 14 26 0 -6
BITMAP
0000
0000
0000
0000
300C
300C
300C
300C
3C0C
3C0C
330C
330C
30CC
30CC
C0F0
C0F0
C030
C030
C030
C030
C030
C030
3000
3000
C000
C000
ENDCHAR
STARTCHAR ncommaaccent
ENCODING 326
SWIDTH 994 0
DWIDTH 14 0
BBX 14 26 0 -6
BITMAP
0000
0000
0000
0000
0000
0000
0000
0000
0000
0000
33F0
33F0
3C0C
3C0C
300C
300C
C030
C030
C030
C030
C030
C030
3000
3000
C000
C000
ENDCHAR
STARTCHAR Ncaron
ENCODING 327
SWIDTH 994 0
DWIDTH 14 0
BBX 14 26 0 -6
BITMAP
0000
0000
0C30
0C30
03C0
03C0
0000
0000
300C
300C
3C0C
3C0C
330C
330C
C330
C330
C0F0
C0F0
C0F0
C0F0
C030
C030
0000
0000
0000
0000
ENDCHAR
STARTCHAR ncaron
ENCODING 328
SWIDTH 994 0
DWIDTH 14 0
BBX 14 26 0 -6
BITMAP
0000
0000
0000
0000
0C30
0C30
03C0
03C0
0000
0000
33F0
33F0
3C0C
3C0C
300C
300C
C030
C030
C030
C030
C030
C030
0000
0000
0000
0000
ENDCHAR
STARTCHAR napostrophe
ENCODING 329
SWIDTH 994 0
DWIDTH 14 0
BBX 14 26 0 -6
BITMAP
0000
0000
F000
F000
3000
3000
C000
C000
0000
0000
33C0
33C0
3C30
3C30
3030
3030
C0C0
C0C0
C0C0
C0C0
C0C0
C0C0
0000
0000
0000
0000
ENDCHAR
STARTCHAR Eng
ENCODING 330
SWIDTH 994 0
DWIDTH 14 0
BBX 14 26 0 -6
BITMAP
0000
0000
0000
0000
300C
300C
300C
300C
3C0C
3C0C
330C
330C
30CC
30CC
C030
C030
C030
C030
C030
C030
C030
C030
0030
0030
03C0
03C0
ENDCHAR
STARTCHAR eng
ENCODING 331
SWIDTH 994 0
DWIDTH 14 0
BBX 14 26 0 -6
BITMAP
0000
0000
0000
0000
0000
0000
0000
0000
0000
0000
33F0
33F0
3C0C
3C0C
300C
300C
C030
C030
C030
C030
C030
C030
0030
0030
03C0
03C0
ENDCHAR
STARTCHAR Omacron
ENCODING 332
SWIDTH 994 0
DWIDTH 14 0
BBX 14 26 0 -6
BITMAP
0000
0000
0000
0000
0FF0
0FF0
0000
0000
0FF0
0FF0
300C
300C
300C
300C
C030
C030
C030
C030
C030
C030
3FC0
3FC0
0000
0000
0000
0000
ENDCHAR
STARTCHAR omacron
ENCODING 333
SWIDTH 994 0
DWIDTH 14 0
BBX 14 26 0 -6
BITMAP
0000
0000
0000
0000
0000
0000
0FF0
0FF0
0000
0000
0FF0
0FF0
300C
300C
300C
300C
C030
C030
C030
C030
3FC0
3FC0
0000
0000
0000
0000
ENDCHAR
STARTCHAR Obreve
ENCODING 334
SWIDTH 994 0
DWIDTH 14 0
BBX 14 26 0 -6
BITMAP
0000
0000
300C
300C
0FF0
0FF0
0000
0000
0FF0
0FF0
300C
300C
300C
300C
C030
C030
C030
C030
C030
C030
3FC0
3FC0
0000
0000
0000
0000
ENDCHAR
STARTCHAR obreve
ENCODING 335
SWIDTH 994 0
DWIDTH 14 0
BBX 14 26 0 -6
BITMAP
0000
0000
0000
0000
300C
300C
0FF0
0FF0
0000
0000
0FF0
0FF0
300C
300C
300C
300C
C030
C030
C030
C030
3FC0
3FC0
0000
0000
0000
0000
ENDCHAR
STARTCHAR Ohungarumlaut
ENCODING 336
SWIDTH 994 0
DWIDTH 14 0
BBX 14 26 0 -6
BITMAP
0000
0000
030C
030C
0C30
0C30
0000
0000
0FF0
0FF0
300C
300C
300C
300C
C030
C030
C030
C030
C030
C030
3FC0
3FC0
0000
0000
0000
0000
ENDCHAR
STARTCHAR ohungarumlaut
ENCODING 337
SWIDTH 994 0
DWIDTH 14 0
BBX 14 26 0 -6
BITMAP
0000
0000
0000
0000
030C
030C
0C30
0C30
0000
0000
0FF0
0FF0
300C
300C
300C
300C
C030
C030
C030
C030
3FC0
3FC0
0000
0000
0000
0000
ENDCHAR
STARTCHAR OE
ENCODING 338
SWIDTH 994 0
DWIDTH 14 0
BBX 14 26 0 -6
BITMAP
0000
0000
0000
0000
0FFC
0FFC
30C0
30C0
30C0
30C0
30C0
30C0
30FC
30FC
C300
C300
C300
C300
C300
C300
3FF0
3FF0
0000
0000
0000
0000
ENDCHAR
STARTCHAR oe
ENCODING 339
SWIDTH 994 0
DWIDTH 14 0
BBX 14 26 0 -6
BITMAP
0000
0000
0000
0000
0000
0000
0000
0000
0000
0000
0F30
0F30
30CC
30CC
C3F0
C3F0
C300
C300
C330
C330
3CC0
3CC0
0000
0000
0000
0000
ENDCHAR
STARTCHAR Racute
ENCODING 340
SWIDTH 994 0
DWIDTH 14 0
BBX 14 26 0 -6
BITMAP
0000
0000
00C0
00C0
0300
0300
0000
0000
3FF0
3FF0
300C
300C
300C
300C
3FF0
3FF0
C300
C300
C0C0
C0C0
C030
C030
0000
0000
0000
0000
ENDCHAR
STARTCHAR racute
ENCODING 341
SWIDTH 994 0
DWIDTH 14 0
BBX 14 26 0 -6
BITMAP
0000
0000
0000
0000
0300
0300
0C00
0C00
0000
0000
CFC0
CFC0
3030
3030
3000
3000
C000
C000
C000
C000
C000
C000
0000
0000
0000
0000
ENDCHAR
STARTCHAR Rcommaaccent
ENCODING 342
SWIDTH 994 0
DWIDTH 14 0
BBX 14 26 0 -6
BITMAP
0000
0000
0000
0000
3FF0
3FF0
300C
300C
300C
300C
300C
300C
3FF0
3FF0
CC00
CC00
C300
C300
C0C0
C0C0
C030
C030
3000
3000
C000
C000
ENDCHAR
STARTCHAR rcommaaccent
ENCODING 343
SWIDTH 994 0
DWIDTH 14 0
BBX 14 26 0 -6
BITMAP
0000
0000
0000
0000
0000
0000
0000
0000
0000
0000
33F0
33F0
0C0C
0C0C
0C00
0C00
3000
3000
3000
3000
3000
3000
3000
3000
C000
C000
ENDCHAR
STARTCHAR Rcaron
ENCODING 344
SWIDTH 994 0
DWIDTH 14 0
BBX 14 26 0 -6
BITMAP
0000
0000
0C30
0C30
03C0
03C0
0000
0000
3FF0
3FF0
300C
300C
300C
300C
3FF0
3FF0
C300
C300
C0C0
C0C0
C030
C030
0000
0000
0000
0000
ENDCHAR
STARTCHAR rcaron
ENCODING 345
SWIDTH 994 0
DWIDTH 14 0
BBX 14 26 0 -6
BITMAP
0000
0000
0000
0000
30C0
30C0
0F00
0F00
0000
0000
CFC0
CFC0
3030
3030
3000
3000
C000
C000
C000
C000
C000
C000
0000
0000
0000
0000
ENDCHAR
STARTCHAR Sacute
ENCODING 346
SWIDTH 994 0
DWIDTH 14 0
BBX 14 26 0 -6
BITMAP
0000
0000
00C0
00C0
0300
0300
0000
0000
0FF0
0FF0
300C
300C
3000
3000
0FC0
0FC0
0030
0030
C030
C030
3FC0
3FC0
0000
0000
0000
0000
ENDCHAR
STARTCHAR sacute
ENCODING 347
SWIDTH 994 0
DWIDTH 14 0
BBX 14 26 0 -6
BITMAP
0000
0000
0000
0000
00C0
00C0
0300
0300
0000
0000
0FF0
0FF0
300C
300C
0F00
0F00
00C0
00C0
C030
C030
3FC0
3FC0
0000
0000
0000
0000
ENDCHAR
STARTCHAR Scircumflex
ENCODING 348
SWIDTH 994 0
DWIDTH 14 0
BBX 14 26 0 -6
BITMAP
0000
0000
03C0
03C0
0C30
0C30
0000
0000
0FF0
0FF0
300C
300C
3000
3000
0FC0
0FC0
0030
0030
C030
C030
3FC0
3FC0
0000
0000
0000
0000
ENDCHAR
STARTCHAR scircumflex
ENCODING 349
SWIDTH 994 0
DWIDTH 14 0
BBX 14 26 0 -6
BITMAP
0000
0000
0000
0000
03C0
03C0
0C30
0C30
0000
0000
0FF0
0FF0
300C
300C
0F00
0F00
00C0
00C0
C030
C030
3FC0
3FC0
0000
0000
0000
0000
ENDCHAR
STARTCHAR Scedilla
ENCODING 350
SWIDTH 994 0
DWIDTH 14 0
BBX 14 26 0 -6
BITMAP
0000
0000
0000
0000
0FF0
0FF0
300C
300C
3000
3000
3000
3000
0FC0
0FC0
0030
0030
0030
0030
C030
C030
3FC0
3FC0
0300
0300
0C00
0C00
ENDCHAR
STARTCHAR scedilla
ENCODING 351
SWIDTH 994 0
DWIDTH 14 0
BBX 14 26 0 -6
BITMAP
0000
0000
0000
0000
0000
0000
0000
0000
0000
0000
0FF0
0FF0
300C
300C
0F00
0F00
00C0
00C0
C030
C030
3FC0
3FC0
0300
0300
0C00
0C00
ENDCHAR
STARTCHAR Scaron
ENCODING 352
SWIDTH 994 0
DWIDTH 14 0
BBX 14 26 0 -6
BITMAP
0000
0000
0C30
0C30
03C0
03C0
0000
0000
0FF0
0FF0
300C
300C
3000
3000
0FC0
0FC0
0030
0030
C030
C030
3FC0
3FC0
0000
0000
0000
0000
ENDCHAR
STARTCHAR scaron
ENCODING 353
SWIDTH 994 0
DWIDTH 14 0
BBX 14 26 0 -6
BITMAP
0000
0000
0000
0000
0C30
0C30
03C0
03C0
0000
0000
0FF0
0FF0
300C
300C
0F00
0F00
00C0
00C0
C030
C030
3FC0
3FC0
0000
0000
0000
0000
ENDCHAR
STARTCHAR Tcommaaccent
ENCODING 354
SWIDTH 994 0
DWIDTH 14 0
BBX 14 26 0 -6
BITMAP
0000
0000
0000
0000
3FF0
3FF0
0300
0300
0300
0300
0300
0300
0300
0300
0C00
0C00
0C00
0C00
0C00
0C00
0C00
0C00
0300
0300
0C00
0C00
ENDCHAR
STARTCHAR tcommaaccent
ENCODING 355
SWIDTH 994 0
DWIDTH 14 0
BBX 14 26 0 -6
BITMAP
0000
0000
0000
0000
0000
0000
0C00
0C00
0C00
0C00
3FC0
3FC0
0C00
0C00
3000
3000
3000
3000
3030
3030
0FC0
0FC0
0300
0300
0C00
0C00
ENDCHAR
STARTCHAR Tcaron
ENCODING 356
SWIDTH 994 0
DWIDTH 14 0
BBX 14 26 0 -6
BITMAP
0000
0000
0C30
0C30
03C0
03C0
0000
0000
3FF0
3FF0
0300
0300
0300
0300
0C00
0C00
0C00
0C00
0C00
0C00
0C00
0C00
0000
0000
0000
0000
ENDCHAR
STARTCHAR tcaron
ENCODING 357
SWIDTH 994 0
DWIDTH 14 0
BBX 14 26 0 -6
BITMAP
0000
0000
0C30
0C30
03C0
03C0
0000
0000
0C00
0C00
3FC0
3FC0
0C00
0C00
0C00
0C00
3000
3000
3030
3030
0FC0
0FC0
0000
0000
0000
0000
ENDCHAR
STARTCHAR Tbar
ENCODING 358
SWIDTH 994 0
DWIDTH 14 0
BBX 14 26 0 -6
BITMAP
0000
0000
0000
0000
3FF0
3FF0
0300
0300
0300
0300
0300
0300
3FC0
3FC0
0C00
0C00
0C00
0C00
0C00
0C00
0C00
0C00
0000
0000
0000
0000
ENDCHAR
STARTCHAR tbar
ENCODING 359
SWIDTH 994 0
DWIDTH 14 0
BBX 14 26 0 -6
BITMAP
0000
0000
0000
0000
00C0
00C0
0FF0
0FF0
0300
0300
0300
0300
3FC0
3FC0
0C00
0C00
0C00
0C00
0C30
0C30
03C0
03C0
0000
0000
0000
0000
ENDCHAR
STARTCHAR Utilde
ENCODING 360
SWIDTH 994 0
DWIDTH 14 0
BBX 14 26 0 -6
BITMAP
0000
0000
0F0C
0F0C
30F0
30F0
0000
0000
300C
300C
300C
300C
300C
300C
C030
C030
C030
C030
C030
C030
3FC0
3FC0
0000
0000
0000
0000
ENDCHAR
STARTCHAR utilde
ENCODING 361
SWIDTH 994 0
DWIDTH 14 0
BBX 14 26 0 -6
BITMAP
0000
0000
0000
0000
0F0C
0F0C
30F0
30F0
0000
0000
300C
300C
300C
300C
300C
300C
C030
C030
C0F0
C0F0
3F30
3F30
0000
0000
0000
0000
ENDCHAR
STARTCHAR Umacron
ENCODING 362
SWIDTH 994 0
DWIDTH 14 0
BBX 14 26 0 -6
BITMAP
0000
0000
0000
0000
0FF0
0FF0
0000
0000
300C
300C
300C
300C
300C
300C
C030
C030
C030
C030
C030
C030
3FC0
3FC0
0000
0000
0000
0000
ENDCHAR
STARTCHAR umacron
ENCODING 363
SWIDTH 994 0
DWIDTH 14 0
BBX 14 26 0 -6
BITMAP
0000
0000
0000
0000
0000
0000
0FF0
0FF0
0000
0000
300C
300C
300C
300C
300C
300C
C030
C030
C0F0
C0F0
3F30
3F30
0000
0000
0000
0000
ENDCHAR
STARTCHAR Ubreve
ENCODING 364
SWIDTH 994 0
DWIDTH 14 0
BBX 14 26 0 -6
BITMAP
0000
0000
300C
300C
0FF0
0FF0
0000
0000
300C
300C
300C
300C
300C
300C
C030
C030
C030
C030
C030
C030
3FC0
3FC0
0000
0000
0000
0000
ENDCHAR
STARTCHAR ubreve
ENCODING 365
SWIDTH 994 0
DWIDTH 14 0
BBX 14 26 0 -6
BITMAP
0000
0000
0000
0000
300C
300C
0FF0
0FF0
0000
0000
300C
300C
300C
300C
300C
300C
C030
C030
C0F0
C0F0
3F30
3F30
0000
0000
0000
0000
ENDCHAR
STARTCHAR Uring
ENCODING 366
SWIDTH 994 0
DWIDTH 14 0
BBX 14 26 0 -6
BITMAP
0000
0000
03C0
03C0
0C30
0C30
03C0
03C0
300C
300C
300C
300C
300C
300C
C030
C030
C030
C030
C030
C030
3FC0
3FC0
0000
0000
0000
0000
ENDCHAR
STARTCHAR uring
ENCODING 367
SWIDTH 994 0
DWIDTH 14 0
BBX 14 26 0 -6
BITMAP
0000
0000
03C0
03C0
0C30
0C30
03C0
03C0
0000
0000
300C
300C
300C
300C
300C
300C
C030
C030
C0F0
C0F0
3F30
3F30
0000
0000
0000
0000
ENDCHAR
STARTCHAR Uhungarumlaut
ENCODING 368
SWIDTH 994 0
DWIDTH 14 0
BBX 14 26 0 -6
BITMAP
0000
0000
030C
030C
0C30
0C30
0000
0000
300C
300C
300C
300C
300C
300C
C030
C030
C030
C030
C030
C030
3FC0
3FC0
0000
0000
0000
0000
ENDCHAR
STARTCHAR uhungarumlaut
ENCODING 369
SWIDTH 994 0
DWIDTH 14 0
BBX 14 26 0 -6
BITMAP
0000
0000
0000
0000
030C
030C
0C30
0C30
0000
0000
300C
300C
300C
300C
300C
300C
C030
C030
C0F0
C0F0
3F30
3F30
0000
0000
0000
0000
ENDCHAR
STARTCHAR Uogonek
ENCODING 370
SWIDTH 994 0
DWIDTH 14 0
BBX 14 26 0 -6
BITMAP
0000
0000
0000
0000
300C
300C
300C
300C
300C
300C
300C
300C
300C
300C
C030
C030
C030
C030
C030
C030
3FC0
3FC0
0C00
0C00
0300
0300
ENDCHAR
STARTCHAR uogonek
ENCODING 371
SWIDTH 994 0
DWIDTH 14 0
BBX 14 26 0 -6
BITMAP
0000
0000
0000
0000
0000
0000
0000
0000
0000
0000
300C
300C
300C
300C
300C
300C
C030
C030
C0F0
C0F0
3F30
3F30
0C00
0C00
0300
0300
ENDCHAR
STARTCHAR Wcircumflex
ENCODING 372
SWIDTH 994 0
DWIDTH 14 0
BBX 14 26 0 -6
BITMAP
0000
0000
03C0
03C0
0C30
0C30
0000
0000
300C
300C
300C
300C
33CC
33CC
CF30
CF30
F0F0
F0F0
F0F0
F0F0
C030
C030
0000
0000
0000
0000
ENDCHAR
STARTCHAR wcircumflex
ENCODING 373
SWIDTH 994 0
DWIDTH 14 0
BBX 14 26 0 -6
BITMAP
0000
0000
0000
0000
0300
0300
0CC0
0CC0
0000
0000
3030
3030
3030
3030
3330
3330
CCC0
CCC0
CCC0
CCC0
3300
3300
0000
0000
0000
0000
ENDCHAR
STARTCHAR Ycircumflex
ENCODING 374
SWIDTH 994 0
DWIDTH 14 0
BBX 14 26 0 -6
BITMAP
0000
0000
0300
0300
0CC0
0CC0
0000
0000
3030
3030
3030
3030
0CC0
0CC0
0300
0300
0300
0300
0C00
0C00
0C00
0C00
0000
0000
0000
0000
ENDCHAR
STARTCHAR ycircumflex
ENCODING 375
SWIDTH 994 0
DWIDTH 14 0
BBX 14 26 0 -6
BITMAP
0000
0000
0000
0000
03C0
03C0
0C30
0C30
0000
0000
300C
300C
300C
300C
C030
C030
C0F0
C0F0
3F30
3F30
0030
0030
C030
C030
3FC0
3FC0
ENDCHAR
STARTCHAR Ydieresis
ENCODING 376
SWIDTH 994 0
DWIDTH 14 0
BBX 14 26 0 -6
BITMAP
0000
0000
3030
3030
3030
3030
0000
0000
3030
3030
3030
3030
0CC0
0CC0
0300
0300
0300
0300
0C00
0C00
0C00
0C00
0000
0000
0000
0000
ENDCHAR
STARTCHAR Zacute
ENCODING 377
SWIDTH 994 0
DWIDTH 14 0
BBX 14 26 0 -6
BITMAP
0000
0000
00C0
00C0
0300
0300
0000
0000
3FFC
3FFC
0030
0030
00C0
00C0
0F00
0F00
3000
3000
C000
C000
FFF0
FFF0
0000
0000
0000
0000
ENDCHAR
STARTCHAR zacute
ENCODING 378
SWIDTH 994 0
DWIDTH 14 0
BBX 14 26 0 -6
BITMAP
0000
0000
0000
0000
00C0
00C0
0300
0300
0000
0000
3FFC
3FFC
0030
0030
03C0
03C0
0C00
0C00
3000
3000
FFF0
FFF0
0000
0000
0000
0000
ENDCHAR
STARTCHAR Zdotaccent
ENCODING 379
SWIDTH 994 0
DWIDTH 14 0
BBX 14 26 0 -6
BITMAP
0000
0000
03C0
03C0
0000
0000
3FFC
3FFC
000C
000C
0030
0030
03C0
03C0
0C00
0C00
3000
3000
C000
C000
FFF0
FFF0
0000
0000
0000
0000
ENDCHAR
STARTCHAR zdotaccent
ENCODING 380
SWIDTH 994 0
DWIDTH 14 0
BBX 14 26 0 -6
BITMAP
0000
0000
0000
0000
0000
0000
03C0
03C0
0000
0000
3FFC
3FFC
0030
0030
03C0
03C0
0C00
0C00
3000
3000
FFF0
FFF0
0000
0000
0000
0000
ENDCHAR
STARTCHAR Zcaron
ENCODING 381
SWIDTH 994 0
DWIDTH 14 0
BBX 14 26 0 -6
BITMAP
0000
0000
0C30
0C30
03C0
03C0
0000
0000
3FFC
3FFC
0030
0030
00C0
00C0
0F00
0F00
3000
3000
C000
C000
FFF0
FFF0
0000
0000
0000
0000
ENDCHAR
STARTCHAR zcaron
ENCODING 382
SWIDTH 994 0
DWIDTH 14 0
BBX 14 26 0 -6
BITMAP
0000
0000
0000
0000
0C30
0C30
03C0
03C0
0000
0000
3FFC
3FFC
0030
0030
03C0
03C0
0C00
0C00
3000
3000
FFF0
FFF0
0000
0000
0000
0000
ENDCHAR
STARTCHAR longs
ENCODING 383
SWIDTH 994 0
DWIDTH 14 0
BBX 14 26 0 -6
BITMAP
0000
0000
0000
0000
03C0
03C0
0C30
0C30
0C00
0C00
3C00
3C00
0C00
0C00
3000
3000
3000
3000
3000
3000
3000
3000
0000
0000
0000
0000
ENDCHAR
STARTCHAR uni018F
ENCODING 399
SWIDTH 994 0
DWIDTH 14 0
BBX 14 26 0 -6
BITMAP
0000
0000
0000
0000
0FF0
0FF0
300C
300C
000C
000C
000C
000C
FFF0
FFF0
C030
C030
C030
C030
C030
C030
3FC0
3FC0
0000
0000
0000
0000
ENDCHAR
STARTCHAR uni0190
ENCODING 400
SWIDTH 994 0
DWIDTH 14 0
BBX 14 26 0 -6
BITMAP
0000
0000
0000
0000
0FF0
0FF0
300C
300C
3000
3000
3000
3000
0FC0
0FC0
3000
3000
C000
C000
C030
C030
3FC0
3FC0
0000
0000
0000
0000
ENDCHAR
STARTCHAR uni0191
ENCODING 401
SWIDTH 994 0
DWIDTH 14 0
BBX 14 26 0 -6
BITMAP
0000
0000
0000
0000
0FFC
0FFC
0C00
0C00
0C00
0C00
0C00
0C00
0FC0
0FC0
3000
3000
3000
3000
3000
3000
3000
3000
C000
C000
0000
0000
ENDCHAR
STARTCHAR florin
ENCODING 402
SWIDTH 994 0
DWIDTH 14 0
BBX 14 26 0 -6
BITMAP
0000
0000
0000
0000
00F0
00F0
030C
030C
0300
0300
0300
0300
0FF0
0FF0
0300
0300
0C00
0C00
0C00
0C00
CC00
CC00
3000
3000
0000
0000
ENDCHAR
STARTCHAR Aringacute
ENCODING 506
SWIDTH 994 0
DWIDTH 14 0
BBX 14 26 0 -6
BITMAP
00C0
00C0
0300
0300
03C0
03C0
0C30
0C30
03C0
03C0
03C0
03C0
0C30
0C30
3030
3030
3FF0
3FF0
C030
C030
C030
C030
0000
0000
0000
0000
ENDCHAR
STARTCHAR aringacute
ENCODING 507
SWIDTH 994 0
DWIDTH 14 0
BBX 14 26 0 -6
BITMAP
00C0
00C0
0300
0300
03C0
03C0
0C30
0C30
03C0
03C0
0FF0
0FF0
000C
000C
3FF0
3FF0
C030
C030
C0F0
C0F0
3F30
3F30
0000
0000
0000
0000
ENDCHAR
STARTCHAR AEacute
ENCODING 508
SWIDTH 994 0
DWIDTH 14 0
BBX 14 26 0 -6
BITMAP
00C0
00C0
0300
0300
0000
0000
0FFC
0FFC
3300
3300
3300
3300
33F0
33F0
3C00
3C00
CC00
CC00
CC00
CC00
CFF0
CFF0
0000
0000
0000
0000
ENDCHAR
STARTCHAR aeacute
ENCODING 509
SWIDTH 994 0
DWIDTH 14 0
BBX 14 26 0 -6
BITMAP
0000
0000
0000
0000
0030
0030
00C0
00C0
0000
0000
0F30
0F30
00CC
00CC
3FF0
3FF0
C300
C300
C330
C330
3CC0
3CC0
0000
0000
0000
0000
ENDCHAR
STARTCHAR Oslashacute
ENCODING 510
SWIDTH 994 0
DWIDTH 14 0
BBX 14 26 0 -6
BITMAP
00C0
00C0
0300
0300
000C
000C
0FF0
0FF0
303C
303C
30CC
30CC
30CC
30CC
CC30
CC30
CC30
CC30
F030
F030
3FC0
3FC0
C000
C000
0000
0000
ENDCHAR
STARTCHAR oslashacute
ENCODING 511
SWIDTH 994 0
DWIDTH 14 0
BBX 14 26 0 -6
BITMAP
0000
0000
0000
0000
00C0
00C0
0300
0300
000C
000C
0FF0
0FF0
303C
303C
30CC
30CC
C330
C330
FC30
FC30
3FC0
3FC0
C000
C000
0000
0000
ENDCHAR
STARTCHAR Scommaaccent
ENCODING 536
SWIDTH 994 0
DWIDTH 14 0
BBX 14 26 0 -6
BITMAP
0000
0000
0000
0000
0FF0
0FF0
300C
300C
3000
3000
3000
3000
0FC0
0FC0
0030
0030
0030
0030
C030
C030
3FC0
3FC0
0300
0300
0C00
0C00
ENDCHAR
STARTCHAR scommaaccent
ENCODING 537
SWIDTH 994 0
DWIDTH 14 0
BBX 14 26 0 -6
BITMAP
0000
0000
0000
0000
0000
0000
0000
0000
0000
0000
0FF0
0FF0
300C
300C
0F00
0F00
00C0
00C0
C030
C030
3FC0
3FC0
0300
0300
0C00
0C00
ENDCHAR
STARTCHAR Tcommaaccent
ENCODING 538
SWIDTH 994 0
DWIDTH 14 0
BBX 14 26 0 -6
BITMAP
0000
0000
0000
0000
3FF0
3FF0
0300
0300
0300
0300
0300
0300
0300
0300
0C00
0C00
0C00
0C00
0C00
0C00
0C00
0C00
0300
0300
0C00
0C00
ENDCHAR
STARTCHAR tcommaaccent
ENCODING 539
SWIDTH 994 0
DWIDTH 14 0
BBX 14 26 0 -6
BITMAP
0000
0000
0000
0000
0000
0000
0C00
0C00
0C00
0C00
3FC0
3FC0
0C00
0C00
3000
3000
3000
3000
3030
3030
0FC0
0FC0
0300
0300
0C00
0C00
ENDCHAR
STARTCHAR uni0259
ENCODING 601
SWIDTH 994 0
DWIDTH 14 0
BBX 14 26 0 -6
BITMAP
0000
0000
0000
0000
0000
0000
0000
0000
0000
0000
0FF0
0FF0
300C
300C
000C
000C
FFF0
FFF0
C030
C030
3FC0
3FC0
0000
0000
0000
0000
ENDCHAR
STARTCHAR uni02C4
ENCODING 708
SWIDTH 994 0
DWIDTH 14 0
BBX 14 26 0 -6
BITMAP
0000
0000
0000
0000
0300
0300
0CC0
0CC0
3030
3030
0000
0000
0000
0000
0000
0000
0000
0000
0000
0000
0000
0000
0000
0000
0000
0000
ENDCHAR
STARTCHAR uni02C5
ENCODING 709
SWIDTH 994 0
DWIDTH 14 0
BBX 14 26 0 -6
BITMAP
0000
0000
0000
0000
3030
3030
0CC0
0CC0
0300
0300
0000
0000
0000
0000
0000
0000
0000
0000
0000
0000
0000
0000
0000
0000
0000
0000
ENDCHAR
STARTCHAR circumflex
ENCODING 710
SWIDTH 994 0
DWIDTH 14 0
BBX 14 26 0 -6
BITMAP
0000
0000
0F00
0F00
30C0
30C0
0000
0000
0000
0000
0000
0000
0000
0000
0000
0000
0000
0000
0000
0000
0000
0000
0000
0000
0000
0000
ENDCHAR
STARTCHAR caron
ENCODING 711
SWIDTH 994 0
DWIDTH 14 0
BBX 14 26 0 -6
BITMAP
0000
0000
30C0
30C0
0F00
0F00
0000
0000
0000
0000
0000
0000
0000
0000
0000
0000
0000
0000
0000
0000
0000
0000
0000
0000
0000
0000
ENDCHAR
STARTCHAR uni02C8
ENCODING 712
SWIDTH 994 0
DWIDTH 14 0
BBX 14 26 0 -6
BITMAP
0000
0000
0300
0300
0300
0300
0300
0300
0000
0000
0000
0000
0000
0000
0000
0000
0000
0000
0000
0000
0000
0000
0000
0000
0000
0000
ENDCHAR
STARTCHAR macron
ENCODING 713
SWIDTH 994 0
DWIDTH 14 0
BBX 14 26 0 -6
BITMAP
0000
0000
3FF0
3FF0
0000
0000
0000
0000
0000
0000
0000
0000
0000
0000
0000
0000
0000
0000
0000
0000
0000
0000
0000
0000
0000
0000
ENDCHAR
STARTCHAR uni02CA
ENCODING 714
SWIDTH 994 0
DWIDTH 14 0
BBX 14 26 0 -6
BITMAP
0000
0000
0000
0000
00C0
00C0
0300
0300
0C00
0C00
0000
0000
0000
0000
0000
0000
0000
0000
0000
0000
0000
0000
0000
0000
0000
0000
ENDCHAR
STARTCHAR uni02CB
ENCODING 715
SWIDTH 994 0
DWIDTH 14 0
BBX 14 26 0 -6
BITMAP
0000
0000
0000
0000
0C00
0C00
0300
0300
00C0
00C0
0000
0000
0000
0000
0000
0000
0000
0000
0000
0000
0000
0000
0000
0000
0000
0000
ENDCHAR
STARTCHAR breve
ENCODING 728
SWIDTH 994 0
DWIDTH 14 0
BBX 14 26 0 -6
BITMAP
0000
0000
C030
C030
3FC0
3FC0
0000
0000
0000
0000
0000
0000
0000
0000
0000
0000
0000
0000
0000
0000
0000
0000
0000
0000
0000
0000
ENDCHAR
STARTCHAR dotaccent
ENCODING 729
SWIDTH 994 0
DWIDTH 14 0
BBX 14 26 0 -6
BITMAP
0300
0300
0300
0300
0000
0000
0000
0000
0000
0000
0000
0000
0000
0000
0000
0000
0000
0000
0000
0000
0000
0000
0000
0000
0000
0000
ENDCHAR
STARTCHAR ring
ENCODING 730
SWIDTH 994 0
DWIDTH 14 0
BBX 14 26 0 -6
BITMAP
0000
0000
0F00
0F00
30C0
30C0
0F00
0F00
0000
0000
0000
0000
0000
0000
0000
0000
0000
0000
0000
0000
0000
0000
0000
0000
0000
0000
ENDCHAR
STARTCHAR ogonek
ENCODING 731
SWIDTH 994 0
DWIDTH 14 0
BBX 14 26 0 -6
BITMAP
0000
0000
0000
0000
0000
0000
0000
0000
0000
0000
0000
0000
0000
0000
0000
0000
0000
0000
0000
0000
0000
0000
0C00
0C00
0300
0300
ENDCHAR
STARTCHAR tilde
ENCODING 732
SWIDTH 994 0
DWIDTH 14 0
BBX 14 26 0 -6
BITMAP
0000
0000
3C30
3C30
C3C0
C3C0
0000
0000
0000
0000
0000
0000
0000
0000
0000
0000
0000
0000
0000
0000
0000
0000
0000
0000
0000
0000
ENDCHAR
STARTCHAR hungarumlaut
ENCODING 733
SWIDTH 994 0
DWIDTH 14 0
BBX 14 26 0 -6
BITMAP
0000
0000
0C30
0C30
30C0
30C0
0000
0000
0000
0000
0000
0000
0000
0000
0000
0000
0000
0000
0000
0000
0000
0000
0000
0000
0000
0000
ENDCHAR
STARTCHAR gravecomb
ENCODING 768
SWIDTH 994 0
DWIDTH 14 0
BBX 14 26 0 -6
BITMAP
0C00
0C00
0300
0300
0000
0000
0000
0000
0000
0000
0000
0000
0000
0000
0000
0000
0000
0000
0000
0000
0000
0000
0000
0000
0000
0000
ENDCHAR
STARTCHAR acutecomb
ENCODING 769
SWIDTH 994 0
DWIDTH 14 0
BBX 14 26 0 -6
BITMAP
0300
0300
0C00
0C00
0000
0000
0000
0000
0000
0000
0000
0000
0000
0000
0000
0000
0000
0000
0000
0000
0000
0000
0000
0000
0000
0000
ENDCHAR
STARTCHAR uni0302
ENCODING 770
SWIDTH 994 0
DWIDTH 14 0
BBX 14 26 0 -6
BITMAP
0300
0300
0CC0
0CC0
0000
0000
0000
0000
0000
0000
0000
0000
0000
0000
0000
0000
0000
0000
0000
0000
0000
0000
0000
0000
0000
0000
ENDCHAR
STARTCHAR tildecomb
ENCODING 771
SWIDTH 994 0
DWIDTH 14 0
BBX 14 26 0 -6
BITMAP
0CC0
0CC0
3300
3300
0000
0000
0000
0000
0000
0000
0000
0000
0000
0000
0000
0000
0000
0000
0000
0000
0000
0000
0000
0000
0000
0000
ENDCHAR
STARTCHAR uni0304
ENCODING 772
SWIDTH 994 0
DWIDTH 14 0
BBX 14 26 0 -6
BITMAP
0000
0000
3FC0
3FC0
0000
0000
0000
0000
0000
0000
0000
0000
0000
0000
0000
0000
0000
0000
0000
0000
0000
0000
0000
0000
0000
0000
ENDCHAR
STARTCHAR uni0305
ENCODING 773
SWIDTH 994 0
DWIDTH 14 0
BBX 14 26 0 -6
BITMAP
0000
0000
FFF0
FFF0
0000
0000
0000
0000
0000
0000
0000
0000
0000
0000
0000
0000
0000
0000
0000
0000
0000
0000
0000
0000
0000
0000
ENDCHAR
STARTCHAR uni0306
ENCODING 774
SWIDTH 994 0
DWIDTH 14 0
BBX 14 26 0 -6
BITMAP
3030
3030
0FC0
0FC0
0000
0000
0000
0000
0000
0000
0000
0000
0000
0000
0000
0000
0000
0000
0000
0000
0000
0000
0000
0000
0000
0000
ENDCHAR
STARTCHAR uni0307
ENCODING 775
SWIDTH 994 0
DWIDTH 14 0
BBX 14 26 0 -6
BITMAP
0300
0300
0300
0300
0000
0000
0000
0000
0000
0000
0000
0000
0000
0000
0000
0000
0000
0000
0000
0000
0000
0000
0000
0000
0000
0000
ENDCHAR
STARTCHAR uni0308
ENCODING 776
SWIDTH 994 0
DWIDTH 14 0
BBX 14 26 0 -6
BITMAP
0CC0
0CC0
0CC0
0CC0
0000
0000
0000
0000
0000
0000
0000
0000
0000
0000
0000
0000
0000
0000
0000
0000
0000
0000
0000
0000
0000
0000
ENDCHAR
STARTCHAR hookabovecomb
ENCODING 777
SWIDTH 994 0
DWIDTH 14 0
BBX 14 26 0 -6
BITMAP
0F00
0F00
00C0
00C0
0300
0300
0000
0000
0000
0000
0000
0000
0000
0000
0000
0000
0000
0000
0000
0000
0000
0000
0000
0000
0000
0000
ENDCHAR
STARTCHAR uni030A
ENCODING 778
SWIDTH 994 0
DWIDTH 14 0
BBX 14 26 0 -6
BITMAP
0300
0300
0CC0
0CC0
0300
0300
0000
0000
0000
0000
0000
0000
0000
0000
0000
0000
0000
0000
0000
0000
0000
0000
0000
0000
0000
0000
ENDCHAR
STARTCHAR uni030B
ENCODING 779
SWIDTH 994 0
DWIDTH 14 0
BBX 14 26 0 -6
BITMAP
0C30
0C30
30C0
30C0
0000
0000
0000
0000
0000
0000
0000
0000
0000
0000
0000
0000
0000
0000
0000
0000
0000
0000
0000
0000
0000
0000
ENDCHAR
STARTCHAR uni030C
ENCODING 780
SWIDTH 994 0
DWIDTH 14 0
BBX 14 26 0 -6
BITMAP
0CC0
0CC0
0300
0300
0000
0000
0000
0000
0000
0000
0000
0000
0000
0000
0000
0000
0000
0000
0000
0000
0000
0000
0000
0000
0000
0000
ENDCHAR
STARTCHAR uni030D
ENCODING 781
SWIDTH 994 0
DWIDTH 14 0
BBX 14 26 0 -6
BITMAP
0300
0300
0300
0300
0300
0300
0000
0000
0000
0000
0000
0000
0000
0000
0000
0000
0000
0000
0000
0000
0000
0000
0000
0000
0000
0000
ENDCHAR
STARTCHAR uni030E
ENCODING 782
SWIDTH 994 0
DWIDTH 14 0
BBX 14 26 0 -6
BITMAP
0CC0
0CC0
0CC0
0CC0
0CC0
0CC0
0000
0000
0000
0000
0000
0000
0000
0000
0000
0000
0000
0000
0000
0000
0000
0000
0000
0000
0000
0000
ENDCHAR
STARTCHAR uni030F
ENCODING 783
SWIDTH 994 0
DWIDTH 14 0
BBX 14 26 0 -6
BITMAP
30C0
30C0
0C30
0C30
0000
0000
0000
0000
0000
0000
0000
0000
0000
0000
0000
0000
0000
0000
0000
0000
0000
0000
0000
0000
0000
0000
ENDCHAR
STARTCHAR uni0310
ENCODING 784
SWIDTH 994 0
DWIDTH 14 0
BBX 14 26 0 -6
BITMAP
0300
0300
3030
3030
0FC0
0FC0
0000
0000
0000
0000
0000
0000
0000
0000
0000
0000
0000
0000
0000
0000
0000
0000
0000
0000
0000
0000
ENDCHAR
STARTCHAR uni0311
ENCODING 785
SWIDTH 994 0
DWIDTH 14 0
BBX 14 26 0 -6
BITMAP
0FC0
0FC0
3030
3030
0000
0000
0000
0000
0000
0000
0000
0000
0000
0000
0000
0000
0000
0000
0000
0000
0000
0000
0000
0000
0000
0000
ENDCHAR
STARTCHAR dotbelowcomb
ENCODING 803
SWIDTH 994 0
DWIDTH 14 0
BBX 14 26 0 -6
BITMAP
0000
0000
0000
0000
0000
0000
0000
0000
0000
0000
0000
0000
0000
0000
0000
0000
0000
0000
0000
0000
0000
0000
0000
0000
0300
0300
ENDCHAR
STARTCHAR uni0324
ENCODING 804
SWIDTH 994 0
DWIDTH 14 0
BBX 14 26 0 -6
BITMAP
0000
0000
0000
0000
0000
0000
0000
0000
0000
0000
0000
0000
0000
0000
0000
0000
0000
0000
0000
0000
0000
0000
0000
0000
0CC0
0CC0
ENDCHAR
STARTCHAR uni0340
ENCODING 832
SWIDTH 994 0
DWIDTH 14 0
BBX 14 26 0 -6
BITMAP
0C00
0C00
0300
0300
0000
0000
0000
0000
0000
0000
0000
0000
0000
0000
0000
0000
0000
0000
0000
0000
0000
0000
0000
0000
0000
0000
ENDCHAR
STARTCHAR uni0341
ENCODING 833
SWIDTH 994 0
DWIDTH 14 0
BBX 14 26 0 -6
BITMAP
0300
0300
0C00
0C00
0000
0000
0000
0000
0000
0000
0000
0000
0000
0000
0000
0000
0000
0000
0000
0000
0000
0000
0000
0000
0000
0000
ENDCHAR
STARTCHAR uni0374
ENCODING 884
SWIDTH 994 0
DWIDTH 14 0
BBX 14 26 0 -6
BITMAP
0000
0000
0000
0000
0300
0300
0C00
0C00
0000
0000
0000
0000
0000
0000
0000
0000
0000
0000
0000
0000
0000
0000
0000
0000
0000
0000
ENDCHAR
STARTCHAR uni0375
ENCODING 885
SWIDTH 994 0
DWIDTH 14 0
BBX 14 26 0 -6
BITMAP
0000
0000
0000
0000
0000
0000
0000
0000
0000
0000
0000
0000
0000
0000
0000
0000
0000
0000
0000
0000
0000
0000
0300
0300
0C00
0C00
ENDCHAR
STARTCHAR uni037A
ENCODING 890
SWIDTH 994 0
DWIDTH 14 0
BBX 14 26 0 -6
BITMAP
0000
0000
0000
0000
0000
0000
0000
0000
0000
0000
0000
0000
0000
0000
0000
0000
0000
0000
0000
0000
0000
0000
0C00
0C00
0F00
0F00
ENDCHAR
STARTCHAR uni037E
ENCODING 894
SWIDTH 994 0
DWIDTH 14 0
BBX 14 26 0 -6
BITMAP
0000
0000
0000
0000
0000
0000
0000
0000
00C0
00C0
03F0
03F0
00C0
00C0
0000
0000
0000
0000
0FC0
0FC0
0F00
0F00
3000
3000
0000
0000
ENDCHAR
STARTCHAR tonos
ENCODING 900
SWIDTH 994 0
DWIDTH 14 0
BBX 14 26 0 -6
BITMAP
0000
0000
0000
0000
0300
0300
0C00
0C00
0000
0000
0000
0000
0000
0000
0000
0000
0000
0000
0000
0000
0000
0000
0000
0000
0000
0000
ENDCHAR
STARTCHAR dieresistonos
ENCODING 901
SWIDTH 994 0
DWIDTH 14 0
BBX 14 26 0 -6
BITMAP
0000
0000
00C0
00C0
3330
3330
3030
3030
0000
0000
0000
0000
0000
0000
0000
0000
0000
0000
0000
0000
0000
0000
0000
0000
0000
0000
ENDCHAR
STARTCHAR Alphatonos
ENCODING 902
SWIDTH 994 0
DWIDTH 14 0
BBX 14 26 0 -6
BITMAP
0000
0000
0000
0000
33C0
33C0
CC30
CC30
0C30
0C30
0C30
0C30
0C30
0C30
0FC0
0FC0
30C0
30C0
30C0
30C0
30C0
30C0
0000
0000
0000
0000
ENDCHAR
STARTCHAR anoteleia
ENCODING 903
SWIDTH 994 0
DWIDTH 14 0
BBX 14 26 0 -6
BITMAP
0000
0000
0000
0000
0000
0000
0000
0000
0000
0000
0F00
0F00
0000
0000
0000
0000
0000
0000
0000
0000
0000
0000
0000
0000
0000
0000
ENDCHAR
STARTCHAR Epsilontonos
ENCODING 904
SWIDTH 994 0
DWIDTH 14 0
BBX 14 26 0 -6
BITMAP
0000
0000
0000
0000
3FF0
3FF0
CC00
CC00
0C00
0C00
0C00
0C00
0FC0
0FC0
3000
3000
3000
3000
3000
3000
3FC0
3FC0
0000
0000
0000
0000
ENDCHAR
STARTCHAR Etatonos
ENCODING 905
SWIDTH 994 0
DWIDTH 14 0
BBX 14 26 0 -6
BITMAP
0000
0000
0000
0000
3C30
3C30
CC30
CC30
0C30
0C30
0C30
0C30
0FC0
0FC0
30C0
30C0
30C0
30C0
30C0
30C0
30C0
30C0
0000
0000
0000
0000
ENDCHAR
STARTCHAR Iotatonos
ENCODING 906
SWIDTH 994 0
DWIDTH 14 0
BBX 14 26 0 -6
BITMAP
0000
0000
0000
0000
33F0
33F0
C0C0
C0C0
00C0
00C0
00C0
00C0
00C0
00C0
0300
0300
0300
0300
0300
0300
0FC0
0FC0
0000
0000
0000
0000
ENDCHAR
STARTCHAR Omicrontonos
ENCODING 908
SWIDTH 994 0
DWIDTH 14 0
BBX 14 26 0 -6
BITMAP
0000
0000
0000
0000
33C0
33C0
CC30
CC30
0C30
0C30
0C30
0C30
0C30
0C30
30C0
30C0
30C0
30C0
30C0
30C0
0F00
0F00
0000
0000
0000
0000
ENDCHAR
STARTCHAR Upsilontonos
ENCODING 910
SWIDTH 994 0
DWIDTH 14 0
BBX 14 26 0 -6
BITMAP
0000
0000
0000
0000
3330
3330
C330
C330
0330
0330
00C0
00C0
00C0
00C0
00C0
00C0
0300
0300
0300
0300
0300
0300
0000
0000
0000
0000
ENDCHAR
STARTCHAR Omegatonos
ENCODING 911
SWIDTH 994 0
DWIDTH 14 0
BBX 14 26 0 -6
BITMAP
0000
0000
0000
0000
33C0
33C0
CC30
CC30
0C30
0C30
0C30
0C30
30C0
30C0
30C0
30C0
0F00
0F00
0F00
0F00
30C0
30C0
0000
0000
0000
0000
ENDCHAR
STARTCHAR iotadieresistonos
ENCODING 912
SWIDTH 994 0
DWIDTH 14 0
BBX 14 26 0 -6
BITMAP
0000
0000
0300
0300
CC30
CC30
C030
C030
0000
0000
0C00
0C00
0C00
0C00
3000
3000
3000
3000
30C0
30C0
0F00
0F00
0000
0000
0000
0000
ENDCHAR
STARTCHAR Alpha
ENCODING 913
SWIDTH 994 0
DWIDTH 14 0
BBX 14 26 0 -6
BITMAP
0000
0000
0000
0000
03C0
03C0
0C30
0C30
300C
300C
300C
300C
300C
300C
3FF0
3FF0
C030
C030
C030
C030
C030
C030
0000
0000
0000
0000
ENDCHAR
STARTCHAR Beta
ENCODING 914
SWIDTH 994 0
DWIDTH 14 0
BBX 14 26 0 -6
BITMAP
0000
0000
0000
0000
3FF0
3FF0
300C
300C
300C
300C
300C
300C
3FF0
3FF0
C030
C030
C030
C030
C030
C030
FFC0
FFC0
0000
0000
0000
0000
ENDCHAR
STARTCHAR Gamma
ENCODING 915
SWIDTH 994 0
DWIDTH 14 0
BBX 14 26 0 -6
BITMAP
0000
0000
0000
0000
3FFC
3FFC
3000
3000
3000
3000
3000
3000
3000
3000
C000
C000
C000
C000
C000
C000
C000
C000
0000
0000
0000
0000
ENDCHAR
STARTCHAR Delta
ENCODING 916
SWIDTH 994 0
DWIDTH 14 0
BBX 14 26 0 -6
BITMAP
0000
0000
0000
0000
03C0
03C0
03C0
03C0
0CC0
0CC0
0CC0
0CC0
3030
3030
3030
3030
C030
C030
C030
C030
FFF0
FFF0
0000
0000
0000
0000
ENDCHAR
STARTCHAR Epsilon
ENCODING 917
SWIDTH 994 0
DWIDTH 14 0
BBX 14 26 0 -6
BITMAP
0000
0000
0000
0000
3FFC
3FFC
3000
3000
3000
3000
3000
3000
3FC0
3FC0
C000
C000
C000
C000
C000
C000
FFF0
FFF0
0000
0000
0000
0000
ENDCHAR
STARTCHAR Zeta
ENCODING 918
SWIDTH 994 0
DWIDTH 14 0
BBX 14 26 0 -6
BITMAP
0000
0000
0000
0000
3FFC
3FFC
000C
000C
0030
0030
00C0
00C0
0300
0300
0C00
0C00
3000
3000
C000
C000
FFF0
FFF0
0000
0000
0000
0000
ENDCHAR
STARTCHAR Eta
ENCODING 919
SWIDTH 994 0
DWIDTH 14 0
BBX 14 26 0 -6
BITMAP
0000
0000
0000
0000
300C
300C
300C
300C
300C
300C
300C
300C
3FF0
3FF0
C030
C030
C030
C030
C030
C030
C030
C030
0000
0000
0000
0000
ENDCHAR
STARTCHAR Theta
ENCODING 920
SWIDTH 994 0
DWIDTH 14 0
BBX 14 26 0 -6
BITMAP
0000
0000
0000
0000
0FF0
0FF0
300C
300C
300C
300C
300C
300C
3FF0
3FF0
C030
C030
C030
C030
C030
C030
3FC0
3FC0
0000
0000
0000
0000
ENDCHAR
STARTCHAR Iota
ENCODING 921
SWIDTH 994 0
DWIDTH 14 0
BBX 14 26 0 -6
BITMAP
0000
0000
0000
0000
3FF0
3FF0
0300
0300
0300
0300
0300
0300
0300
0300
0C00
0C00
0C00
0C00
0C00
0C00
FFC0
FFC0
0000
0000
0000
0000
ENDCHAR
STARTCHAR Kappa
ENCODING 922
SWIDTH 994 0
DWIDTH 14 0
BBX 14 26 0 -6
BITMAP
0000
0000
0000
0000
300C
300C
3030
3030
30C0
30C0
3300
3300
3C00
3C00
CC00
CC00
C300
C300
C0C0
C0C0
C030
C030
0000
0000
0000
0000
ENDCHAR
STARTCHAR Lambda
ENCODING 923
SWIDTH 994 0
DWIDTH 14 0
BBX 14 26 0 -6
BITMAP
0000
0000
0000
0000
03C0
03C0
03C0
03C0
03C0
03C0
0CC0
0CC0
0CC0
0CC0
3030
3030
3030
3030
C030
C030
C030
C030
0000
0000
0000
0000
ENDCHAR
STARTCHAR Mu
ENCODING 924
SWIDTH 994 0
DWIDTH 14 0
BBX 14 26 0 -6
BITMAP
0000
0000
0000
0000
300C
300C
3C3C
3C3C
3C3C
3C3C
33CC
33CC
33CC
33CC
C030
C030
C030
C030
C030
C030
C030
C030
0000
0000
0000
0000
ENDCHAR
STARTCHAR Nu
ENCODING 925
SWIDTH 994 0
DWIDTH 14 0
BBX 14 26 0 -6
BITMAP
0000
0000
0000
0000
300C
300C
300C
300C
3C0C
3C0C
330C
330C
30CC
30CC
C0F0
C0F0
C030
C030
C030
C030
C030
C030
0000
0000
0000
0000
ENDCHAR
STARTCHAR Xi
ENCODING 926
SWIDTH 994 0
DWIDTH 14 0
BBX 14 26 0 -6
BITMAP
0000
0000
0000
0000
3FFC
3FFC
0000
0000
0000
0000
0000
0000
0FF0
0FF0
0000
0000
0000
0000
0000
0000
FFF0
FFF0
0000
0000
0000
0000
ENDCHAR
STARTCHAR Omicron
ENCODING 927
SWIDTH 994 0
DWIDTH 14 0
BBX 14 26 0 -6
BITMAP
0000
0000
0000
0000
0FF0
0FF0
300C
300C
300C
300C
300C
300C
300C
300C
C030
C030
C030
C030
C030
C030
3FC0
3FC0
0000
0000
0000
0000
ENDCHAR
STARTCHAR Pi
ENCODING 928
SWIDTH 994 0
DWIDTH 14 0
BBX 14 26 0 -6
BITMAP
0000
0000
0000
0000
FFF0
FFF0
30C0
30C0
30C0
30C0
30C0
30C0
30C0
30C0
C300
C300
C300
C300
C300
C300
C300
C300
0000
0000
0000
0000
ENDCHAR
STARTCHAR Rho
ENCODING 929
SWIDTH 994 0
DWIDTH 14 0
BBX 14 26 0 -6
BITMAP
0000
0000
0000
0000
3FF0
3FF0
300C
300C
300C
300C
300C
300C
3FF0
3FF0
C000
C000
C000
C000
C000
C000
C000
C000
0000
0000
0000
0000
ENDCHAR
STARTCHAR Sigma
ENCODING 931
SWIDTH 994 0
DWIDTH 14 0
BBX 14 26 0 -6
BITMAP
0000
0000
0000
0000
3FFC
3FFC
3000
3000
0C00
0C00
0300
0300
0300
0300
0C00
0C00
3000
3000
C000
C000
FFF0
FFF0
0000
0000
0000
0000
ENDCHAR
STARTCHAR Tau
ENCODING 932
SWIDTH 994 0
DWIDTH 14 0
BBX 14 26 0 -6
BITMAP
0000
0000
0000
0000
3FF0
3FF0
0300
0300
0300
0300
0300
0300
0300
0300
0C00
0C00
0C00
0C00
0C00
0C00
0C00
0C00
0000
0000
0000
0000
ENDCHAR
STARTCHAR Upsilon
ENCODING 933
SWIDTH 994 0
DWIDTH 14 0
BBX 14 26 0 -6
BITMAP
0000
0000
0000
0000
3030
3030
3030
3030
0CC0
0CC0
0CC0
0CC0
0300
0300
0300
0300
0300
0300
0C00
0C00
0C00
0C00
0000
0000
0000
0000
ENDCHAR
STARTCHAR Phi
ENCODING 934
SWIDTH 994 0
DWIDTH 14 0
BBX 14 26 0 -6
BITMAP
0000
0000
0000
0000
0300
0300
0FC0
0FC0
3330
3330
3330
3330
3330
3330
CCC0
CCC0
CCC0
CCC0
3F00
3F00
0C00
0C00
0000
0000
0000
0000
ENDCHAR
STARTCHAR Chi
ENCODING 935
SWIDTH 994 0
DWIDTH 14 0
BBX 14 26 0 -6
BITMAP
0000
0000
0000
0000
300C
300C
300C
300C
0C30
0C30
0C30
0C30
03C0
03C0
03C0
03C0
0CC0
0CC0
3030
3030
C030
C030
0000
0000
0000
0000
ENDCHAR
STARTCHAR Psi
ENCODING 936
SWIDTH 994 0
DWIDTH 14 0
BBX 14 26 0 -6
BITMAP
0000
0000
0000
0000
3330
3330
3330
3330
3330
3330
3330
3330
CCC0
CCC0
CCC0
CCC0
3F00
3F00
0C00
0C00
0C00
0C00
0000
0000
0000
0000
ENDCHAR
STARTCHAR Omega
ENCODING 937
SWIDTH 994 0
DWIDTH 14 0
BBX 14 26 0 -6
BITMAP
0000
0000
0000
0000
0FF0
0FF0
300C
300C
300C
300C
300C
300C
C030
C030
C030
C030
30C0
30C0
30C0
30C0
F0F0
F0F0
0000
0000
0000
0000
ENDCHAR
STARTCHAR Iotadieresis
ENCODING 938
SWIDTH 994 0
DWIDTH 14 0
BBX 14 26 0 -6
BITMAP
0000
0000
3030
3030
3030
3030
0000
0000
3FF0
3FF0
0300
0300
0300
0300
0C00
0C00
0C00
0C00
0C00
0C00
FFC0
FFC0
0000
0000
0000
0000
ENDCHAR
STARTCHAR Upsilondieresis
ENCODING 939
SWIDTH 994 0
DWIDTH 14 0
BBX 14 26 0 -6
BITMAP
0000
0000
3030
3030
3030
3030
0000
0000
3030
3030
3030
3030
0CC0
0CC0
0300
0300
0300
0300
0C00
0C00
0C00
0C00
0000
0000
0000
0000
ENDCHAR
STARTCHAR alphatonos
ENCODING 940
SWIDTH 994 0
DWIDTH 14 0
BBX 14 26 0 -6
BITMAP
0000
0000
0000
0000
0030
0030
00C0
00C0
0000
0000
0FCC
0FCC
3030
3030
C030
C030
C0F0
C0F0
C330
C330
3C30
3C30
0000
0000
0000
0000
ENDCHAR
STARTCHAR epsilontonos
ENCODING 941
SWIDTH 994 0
DWIDTH 14 0
BBX 14 26 0 -6
BITMAP
0000
0000
0000
0000
0030
0030
00C0
00C0
0000
0000
0FF0
0FF0
300C
300C
3F00
3F00
C000
C000
C030
C030
3FC0
3FC0
0000
0000
0000
0000
ENDCHAR
STARTCHAR etatonos
ENCODING 942
SWIDTH 994 0
DWIDTH 14 0
BBX 14 26 0 -6
BITMAP
0000
0000
0000
0000
0030
0030
00C0
00C0
0000
0000
33F0
33F0
3C0C
3C0C
300C
300C
C030
C030
C030
C030
C030
C030
0030
0030
0030
0030
ENDCHAR
STARTCHAR iotatonos
ENCODING 943
SWIDTH 994 0
DWIDTH 14 0
BBX 14 26 0 -6
BITMAP
0000
0000
0000
0000
0300
0300
0C00
0C00
0000
0000
0C00
0C00
0C00
0C00
3000
3000
3000
3000
30C0
30C0
0F00
0F00
0000
0000
0000
0000
ENDCHAR
STARTCHAR upsilondieresistonos
ENCODING 944
SWIDTH 994 0
DWIDTH 14 0
BBX 14 26 0 -6
BITMAP
0000
0000
00C0
00C0
330C
330C
300C
300C
0000
0000
300C
300C
300C
300C
C030
C030
C030
C030
C030
C030
3FC0
3FC0
0000
0000
0000
0000
ENDCHAR
STARTCHAR alpha
ENCODING 945
SWIDTH 994 0
DWIDTH 14 0
BBX 14 26 0 -6
BITMAP
0000
0000
0000
0000
0000
0000
0000
0000
0000
0000
0FCC
0FCC
3030
3030
C030
C030
C0F0
C0F0
C330
C330
3C30
3C30
0000
0000
0000
0000
ENDCHAR
STARTCHAR beta
ENCODING 946
SWIDTH 994 0
DWIDTH 14 0
BBX 14 26 0 -6
BITMAP
0000
0000
0000
0000
0FC0
0FC0
3030
3030
3030
3030
3FF0
3FF0
300C
300C
300C
300C
C030
C030
F030
F030
CFC0
CFC0
C000
C000
C000
C000
ENDCHAR
STARTCHAR gamma
ENCODING 947
SWIDTH 994 0
DWIDTH 14 0
BBX 14 26 0 -6
BITMAP
0000
0000
0000
0000
0000
0000
0000
0000
0000
0000
3030
3030
3030
3030
30C0
30C0
3300
3300
0C00
0C00
0C00
0C00
0C00
0C00
0C00
0C00
ENDCHAR
STARTCHAR delta
ENCODING 948
SWIDTH 994 0
DWIDTH 14 0
BBX 14 26 0 -6
BITMAP
0000
0000
0000
0000
0FF0
0FF0
300C
300C
0C00
0C00
0FF0
0FF0
300C
300C
300C
300C
C030
C030
C030
C030
3FC0
3FC0
0000
0000
0000
0000
ENDCHAR
STARTCHAR epsilon
ENCODING 949
SWIDTH 994 0
DWIDTH 14 0
BBX 14 26 0 -6
BITMAP
0000
0000
0000
0000
0000
0000
0000
0000
0000
0000
0FF0
0FF0
300C
300C
3F00
3F00
C000
C000
C030
C030
3FC0
3FC0
0000
0000
0000
0000
ENDCHAR
STARTCHAR zeta
ENCODING 950
SWIDTH 994 0
DWIDTH 14 0
BBX 14 26 0 -6
BITMAP
0000
0000
0000
0000
3FFC
3FFC
0300
0300
0C00
0C00
0C00
0C00
3000
3000
C000
C000
C000
C000
C000
C000
3FC0
3FC0
0030
0030
03C0
03C0
ENDCHAR
STARTCHAR eta
ENCODING 951
SWIDTH 994 0
DWIDTH 14 0
BBX 14 26 0 -6
BITMAP
0000
0000
0000
0000
0000
0000
0000
0000
0000
0000
33F0
33F0
3C0C
3C0C
300C
300C
C030
C030
C030
C030
C030
C030
0030
0030
0030
0030
ENDCHAR
STARTCHAR theta
ENCODING 952
SWIDTH 994 0
DWIDTH 14 0
BBX 14 26 0 -6
BITMAP
0000
0000
0000
0000
0FC0
0FC0
3030
3030
3030
3030
3030
3030
3FC0
3FC0
C0C0
C0C0
C0C0
C0C0
C0C0
C0C0
3F00
3F00
0000
0000
0000
0000
ENDCHAR
STARTCHAR iota
ENCODING 953
SWIDTH 994 0
DWIDTH 14 0
BBX 14 26 0 -6
BITMAP
0000
0000
0000
0000
0000
0000
0000
0000
0000
0000
0C00
0C00
0C00
0C00
3000
3000
3000
3000
30C0
30C0
0F00
0F00
0000
0000
0000
0000
ENDCHAR
STARTCHAR kappa
ENCODING 954
SWIDTH 994 0
DWIDTH 14 0
BBX 14 26 0 -6
BITMAP
0000
0000
0000
0000
0000
0000
0000
0000
0000
0000
3030
3030
30C0
30C0
3300
3300
3C00
3C00
C300
C300
C0C0
C0C0
0000
0000
0000
0000
ENDCHAR
STARTCHAR lambda
ENCODING 955
SWIDTH 994 0
DWIDTH 14 0
BBX 14 26 0 -6
BITMAP
0000
0000
0000
0000
0FF0
0FF0
300C
300C
000C
000C
0FCC
0FCC
303C
303C
300C
300C
C030
C030
C030
C030
C030
C030
0000
0000
0000
0000
ENDCHAR
STARTCHAR mu
ENCODING 956
SWIDTH 994 0
DWIDTH 14 0
BBX 14 26 0 -6
BITMAP
0000
0000
0000
0000
0000
0000
0000
0000
0000
0000
300C
300C
300C
300C
300C
300C
C030
C030
F0F0
F0F0
CF30
CF30
C000
C000
C000
C000
ENDCHAR
STARTCHAR nu
ENCODING 957
SWIDTH 994 0
DWIDTH 14 0
BBX 14 26 0 -6
BITMAP
0000
0000
0000
0000
0000
0000
0000
0000
0000
0000
3030
3030
3030
3030
30C0
30C0
3300
3300
3300
3300
0C00
0C00
0000
0000
0000
0000
ENDCHAR
STARTCHAR xi
ENCODING 958
SWIDTH 994 0
DWIDTH 14 0
BBX 14 26 0 -6
BITMAP
0000
0000
0000
0000
3FFC
3FFC
0300
0300
0C00
0C00
0C00
0C00
03F0
03F0
3C00
3C00
C000
C000
C000
C000
3FC0
3FC0
0030
0030
03C0
03C0
ENDCHAR
STARTCHAR omicron
ENCODING 959
SWIDTH 994 0
DWIDTH 14 0
BBX 14 26 0 -6
BITMAP
0000
0000
0000
0000
0000
0000
0000
0000
0000
0000
0FF0
0FF0
300C
300C
300C
300C
C030
C030
C030
C030
3FC0
3FC0
0000
0000
0000
0000
ENDCHAR
STARTCHAR pi
ENCODING 960
SWIDTH 994 0
DWIDTH 14 0
BBX 14 26 0 -6
BITMAP
0000
0000
0000
0000
0000
0000
0000
0000
0000
0000
FFF0
FFF0
30C0
30C0
30C0
30C0
C300
C300
C300
C300
C300
C300
0000
0000
0000
0000
ENDCHAR
STARTCHAR rho
ENCODING 961
SWIDTH 994 0
DWIDTH 14 0
BBX 14 26 0 -6
BITMAP
0000
0000
0000
0000
0000
0000
0000
0000
0000
0000
0FF0
0FF0
300C
300C
300C
300C
C030
C030
F030
F030
CFC0
CFC0
C000
C000
C000
C000
ENDCHAR
STARTCHAR sigma1
ENCODING 962
SWIDTH 994 0
DWIDTH 14 0
BBX 14 26 0 -6
BITMAP
0000
0000
0000
0000
0000
0000
0000
0000
0000
0000
0FF0
0FF0
300C
300C
C000
C000
C000
C000
C000
C000
3FC0
3FC0
0030
0030
03C0
03C0
ENDCHAR
STARTCHAR sigma
ENCODING 963
SWIDTH 994 0
DWIDTH 14 0
BBX 14 26 0 -6
BITMAP
0000
0000
0000
0000
0000
0000
0000
0000
0000
0000
0FFC
0FFC
30C0
30C0
3030
3030
C030
C030
C030
C030
3FC0
3FC0
0000
0000
0000
0000
ENDCHAR
STARTCHAR tau
ENCODING 964
SWIDTH 994 0
DWIDTH 14 0
BBX 14 26 0 -6
BITMAP
0000
0000
0000
0000
0000
0000
0000
0000
0000
0000
3FF0
3FF0
0300
0300
0C00
0C00
0C00
0C00
0CC0
0CC0
0300
0300
0000
0000
0000
0000
ENDCHAR
STARTCHAR upsilon
ENCODING 965
SWIDTH 994 0
DWIDTH 14 0
BBX 14 26 0 -6
BITMAP
0000
0000
0000
0000
0000
0000
0000
0000
0000
0000
300C
300C
300C
300C
300C
300C
C030
C030
C030
C030
3FC0
3FC0
0000
0000
0000
0000
ENDCHAR
STARTCHAR phi
ENCODING 966
SWIDTH 994 0
DWIDTH 14 0
BBX 14 26 0 -6
BITMAP
0000
0000
0000
0000
0000
0000
0000
0000
0000
0000
0CC0
0CC0
3330
3330
3330
3330
CCC0
CCC0
CCC0
CCC0
3F00
3F00
0C00
0C00
0C00
0C00
ENDCHAR
STARTCHAR chi
ENCODING 967
SWIDTH 994 0
DWIDTH 14 0
BBX 14 26 0 -6
BITMAP
0000
0000
0000
0000
0000
0000
0000
0000
0000
0000
C030
C030
30C0
30C0
3300
3300
0C00
0C00
0C00
0C00
3300
3300
3300
3300
C0C0
C0C0
ENDCHAR
STARTCHAR psi
ENCODING 968
SWIDTH 994 0
DWIDTH 14 0
BBX 14 26 0 -6
BITMAP
0000
0000
0000
0000
0000
0000
0000
0000
0000
0000
3330
3330
3330
3330
3330
3330
CCC0
CCC0
CCC0
CCC0
3F00
3F00
0C00
0C00
0C00
0C00
ENDCHAR
STARTCHAR omega
ENCODING 969
SWIDTH 994 0
DWIDTH 14 0
BBX 14 26 0 -6
BITMAP
0000
0000
0000
0000
0000
0000
0000
0000
0000
0000
3030
3030
3330
3330
3330
3330
CCC0
CCC0
CCC0
CCC0
3300
3300
0000
0000
0000
0000
ENDCHAR
STARTCHAR iotadieresis
ENCODING 970
SWIDTH 994 0
DWIDTH 14 0
BBX 14 26 0 -6
BITMAP
0000
0000
0000
0000
C030
C030
C030
C030
0000
0000
0C00
0C00
0C00
0C00
3000
3000
3000
3000
30C0
30C0
0F00
0F00
0000
0000
0000
0000
ENDCHAR
STARTCHAR upsilondieresis
ENCODING 971
SWIDTH 994 0
DWIDTH 14 0
BBX 14 26 0 -6
BITMAP
0000
0000
0000
0000
300C
300C
300C
300C
0000
0000
300C
300C
300C
300C
300C
300C
C030
C030
C030
C030
3FC0
3FC0
0000
0000
0000
0000
ENDCHAR
STARTCHAR omicrontonos
ENCODING 972
SWIDTH 994 0
DWIDTH 14 0
BBX 14 26 0 -6
BITMAP
0000
0000
0000
0000
0030
0030
00C0
00C0
0000
0000
0FF0
0FF0
300C
300C
300C
300C
C030
C030
C030
C030
3FC0
3FC0
0000
0000
0000
0000
ENDCHAR
STARTCHAR upsilontonos
ENCODING 973
SWIDTH 994 0
DWIDTH 14 0
BBX 14 26 0 -6
BITMAP
0000
0000
0000
0000
0030
0030
00C0
00C0
0000
0000
300C
300C
300C
300C
300C
300C
C030
C030
C030
C030
3FC0
3FC0
0000
0000
0000
0000
ENDCHAR
STARTCHAR omegatonos
ENCODING 974
SWIDTH 994 0
DWIDTH 14 0
BBX 14 26 0 -6
BITMAP
0000
0000
0000
0000
00C0
00C0
0300
0300
0000
0000
3030
3030
3330
3330
3330
3330
CCC0
CCC0
CCC0
CCC0
3300
3300
0000
0000
0000
0000
ENDCHAR
STARTCHAR uni03D0
ENCODING 976
SWIDTH 994 0
DWIDTH 14 0
BBX 14 26 0 -6
BITMAP
0000
0000
0000
0000
03C0
03C0
0C30
0C30
3030
3030
33C0
33C0
3C30
3C30
C030
C030
C030
C030
30C0
30C0
0F00
0F00
0000
0000
0000
0000
ENDCHAR
STARTCHAR theta1
ENCODING 977
SWIDTH 994 0
DWIDTH 14 0
BBX 14 26 0 -6
BITMAP
0000
0000
0000
0000
0FC0
0FC0
3030
3030
3030
3030
0FFC
0FFC
0030
0030
3030
3030
C0C0
C0C0
C0C0
C0C0
3F00
3F00
0000
0000
0000
0000
ENDCHAR
STARTCHAR Upsilon1
ENCODING 978
SWIDTH 994 0
DWIDTH 14 0
BBX 14 26 0 -6
BITMAP
0000
0000
0000
0000
0CC0
0CC0
3330
3330
0300
0300
0300
0300
0300
0300
0C00
0C00
0C00
0C00
0C00
0C00
0C00
0C00
0000
0000
0000
0000
ENDCHAR
STARTCHAR uni03D3
ENCODING 979
SWIDTH 994 0
DWIDTH 14 0
BBX 14 26 0 -6
BITMAP
0000
0000
0000
0000
0CC0
0CC0
3330
3330
0300
0300
3300
3300
3300
3300
0C00
0C00
0C00
0C00
0C00
0C00
0C00
0C00
0000
0000
0000
0000
ENDCHAR
STARTCHAR uni03D4
ENCODING 980
SWIDTH 994 0
DWIDTH 14 0
BBX 14 26 0 -6
BITMAP
0000
0000
3030
3030
3030
3030
0000
0000
0CC0
0CC0
3330
3330
0300
0300
0300
0300
0C00
0C00
0C00
0C00
0C00
0C00
0000
0000
0000
0000
ENDCHAR
STARTCHAR phi1
ENCODING 981
SWIDTH 994 0
DWIDTH 14 0
BBX 14 26 0 -6
BITMAP
0000
0000
0000
0000
0000
0000
0300
0300
0300
0300
0FC0
0FC0
3330
3330
3330
3330
CCC0
CCC0
CCC0
CCC0
3F00
3F00
0C00
0C00
0C00
0C00
ENDCHAR
STARTCHAR omega1
ENCODING 982
SWIDTH 994 0
DWIDTH 14 0
BBX 14 26 0 -6
BITMAP
0000
0000
0000
0000
0000
0000
0000
0000
0000
0000
3FF0
3FF0
3030
3030
3330
3330
CCC0
CCC0
CCC0
CCC0
3300
3300
0000
0000
0000
0000
ENDCHAR
STARTCHAR uni03D7
ENCODING 983
SWIDTH 994 0
DWIDTH 14 0
BBX 14 26 0 -6
BITMAP
0000
0000
0000
0000
0030
0030
00C0
00C0
0000
0000
300C
300C
3030
3030
30C0
30C0
3F00
3F00
30C0
30C0
C030
C030
0030
0030
0FC0
0FC0
ENDCHAR
STARTCHAR uni03DA
ENCODING 986
SWIDTH 994 0
DWIDTH 14 0
BBX 14 26 0 -6
BITMAP
0000
0000
0000
0000
03F0
03F0
0C0C
0C0C
3000
3000
3000
3000
C000
C000
C000
C000
C000
C000
3FC0
3FC0
0030
0030
00C0
00C0
0000
0000
ENDCHAR
STARTCHAR uni03DB
ENCODING 987
SWIDTH 994 0
DWIDTH 14 0
BBX 14 26 0 -6
BITMAP
0000
0000
0000
0000
0000
0000
0000
0000
000C
000C
0FF0
0FF0
3000
3000
C000
C000
C000
C000
C000
C000
3FC0
3FC0
0030
0030
03C0
03C0
ENDCHAR
STARTCHAR uni03DC
ENCODING 988
SWIDTH 994 0
DWIDTH 14 0
BBX 14 26 0 -6
BITMAP
0000
0000
0000
0000
3FFC
3FFC
3000
3000
3000
3000
3000
3000
3FC0
3FC0
C000
C000
C000
C000
C000
C000
C000
C000
0000
0000
0000
0000
ENDCHAR
STARTCHAR uni03DD
ENCODING 989
SWIDTH 994 0
DWIDTH 14 0
BBX 14 26 0 -6
BITMAP
0000
0000
0000
0000
0000
0000
0000
0000
0000
0000
3FF0
3FF0
3000
3000
C000
C000
FF00
FF00
C000
C000
C000
C000
C000
C000
C000
C000
ENDCHAR
STARTCHAR uni03DE
ENCODING 990
SWIDTH 994 0
DWIDTH 14 0
BBX 14 26 0 -6
BITMAP
0000
0000
0000
0000
3000
3000
300C
300C
303C
303C
30CC
30CC
C30C
C30C
CC30
CC30
F030
F030
C030
C030
0030
0030
0000
0000
0000
0000
ENDCHAR
STARTCHAR uni03DF
ENCODING 991
SWIDTH 994 0
DWIDTH 14 0
BBX 14 26 0 -6
BITMAP
0000
0000
0000
0000
0300
0300
0300
0300
0C00
0C00
0C00
0C00
3000
3000
FFF0
FFF0
0030
0030
00C0
00C0
00C0
00C0
0300
0300
0300
0300
ENDCHAR
STARTCHAR uni03F0
ENCODING 1008
SWIDTH 994 0
DWIDTH 14 0
BBX 14 26 0 -6
BITMAP
0000
0000
0000
0000
0000
0000
0000
0000
0000
0000
300C
300C
3030
3030
30C0
30C0
3F00
3F00
30C0
30C0
C030
C030
0000
0000
0000
0000
ENDCHAR
STARTCHAR uni03F1
ENCODING 1009
SWIDTH 994 0
DWIDTH 14 0
BBX 14 26 0 -6
BITMAP
0000
0000
0000
0000
0000
0000
0000
0000
0000
0000
0FF0
0FF0
300C
300C
300C
300C
C030
C030
F030
F030
CFC0
CFC0
C000
C000
3FC0
3FC0
ENDCHAR
STARTCHAR uni03F2
ENCODING 1010
SWIDTH 994 0
DWIDTH 14 0
BBX 14 26 0 -6
BITMAP
0000
0000
0000
0000
0000
0000
0000
0000
0000
0000
0FF0
0FF0
300C
300C
C000
C000
C000
C000
C030
C030
3FC0
3FC0
0000
0000
0000
0000
ENDCHAR
STARTCHAR uni03F3
ENCODING 1011
SWIDTH 994 0
DWIDTH 14 0
BBX 14 26 0 -6
BITMAP
0000
0000
0000
0000
0000
0000
0030
0030
0000
0000
00F0
00F0
0030
0030
0030
0030
00C0
00C0
00C0
00C0
C0C0
C0C0
C0C0
C0C0
3F00
3F00
ENDCHAR
STARTCHAR uni03F4
ENCODING 1012
SWIDTH 994 0
DWIDTH 14 0
BBX 14 26 0 -6
BITMAP
0000
0000
0000
0000
0FF0
0FF0
300C
300C
300C
300C
300C
300C
3FF0
3FF0
C030
C030
C030
C030
C030
C030
3FC0
3FC0
0000
0000
0000
0000
ENDCHAR
STARTCHAR uni03F5
ENCODING 1013
SWIDTH 994 0
DWIDTH 14 0
BBX 14 26 0 -6
BITMAP
0000
0000
0000
0000
0000
0000
0000
0000
0000
0000
0FF0
0FF0
3000
3000
FF00
FF00
C000
C000
C000
C000
3FC0
3FC0
0000
0000
0000
0000
ENDCHAR
STARTCHAR uni0400
ENCODING 1024
SWIDTH 994 0
DWIDTH 14 0
BBX 14 26 0 -6
BITMAP
0000
0000
0300
0300
00C0
00C0
0000
0000
3FFC
3FFC
3000
3000
3000
3000
3F00
3F00
C000
C000
C000
C000
FFF0
FFF0
0000
0000
0000
0000
ENDCHAR
STARTCHAR afii10023
ENCODING 1025
SWIDTH 994 0
DWIDTH 14 0
BBX 14 26 0 -6
BITMAP
0000
0000
0C30
0C30
0C30
0C30
0000
0000
3FFC
3FFC
3000
3000
3000
3000
3F00
3F00
C000
C000
C000
C000
FFF0
FFF0
0000
0000
0000
0000
ENDCHAR
STARTCHAR afii10051
ENCODING 1026
SWIDTH 994 0
DWIDTH 14 0
BBX 14 26 0 -6
BITMAP
0000
0000
0000
0000
FFC0
FFC0
0C00
0C00
0C00
0C00
0C00
0C00
0FC0
0FC0
0C30
0C30
0C30
0C30
30C0
30C0
30C0
30C0
00C0
00C0
0F00
0F00
ENDCHAR
STARTCHAR afii10052
ENCODING 1027
SWIDTH 994 0
DWIDTH 14 0
BBX 14 26 0 -6
BITMAP
00C0
00C0
0300
0300
0000
0000
3FFC
3FFC
3000
3000
3000
3000
3000
3000
C000
C000
C000
C000
C000
C000
C000
C000
0000
0000
0000
0000
ENDCHAR
STARTCHAR afii10053
ENCODING 1028
SWIDTH 994 0
DWIDTH 14 0
BBX 14 26 0 -6
BITMAP
0000
0000
0000
0000
03F0
03F0
0C0C
0C0C
3000
3000
3000
3000
3FC0
3FC0
C000
C000
C000
C000
3030
3030
0FC0
0FC0
0000
0000
0000
0000
ENDCHAR
STARTCHAR afii10054
ENCODING 1029
SWIDTH 994 0
DWIDTH 14 0
BBX 14 26 0 -6
BITMAP
0000
0000
0000
0000
0FF0
0FF0
300C
300C
3000
3000
3000
3000
0FC0
0FC0
0030
0030
0030
0030
C030
C030
3FC0
3FC0
0000
0000
0000
0000
ENDCHAR
STARTCHAR afii10055
ENCODING 1030
SWIDTH 994 0
DWIDTH 14 0
BBX 14 26 0 -6
BITMAP
0000
0000
0000
0000
3FF0
3FF0
0300
0300
0300
0300
0300
0300
0300
0300
0C00
0C00
0C00
0C00
0C00
0C00
FFC0
FFC0
0000
0000
0000
0000
ENDCHAR
STARTCHAR afii10056
ENCODING 1031
SWIDTH 994 0
DWIDTH 14 0
BBX 14 26 0 -6
BITMAP
0000
0000
3030
3030
3030
3030
0000
0000
3FF0
3FF0
0300
0300
0300
0300
0C00
0C00
0C00
0C00
0C00
0C00
FFC0
FFC0
0000
0000
0000
0000
ENDCHAR
STARTCHAR afii10057
ENCODING 1032
SWIDTH 994 0
DWIDTH 14 0
BBX 14 26 0 -6
BITMAP
0000
0000
0000
0000
00FC
00FC
0030
0030
0030
0030
0030
0030
0030
0030
00C0
00C0
00C0
00C0
C0C0
C0C0
3F00
3F00
0000
0000
0000
0000
ENDCHAR
STARTCHAR afii10058
ENCODING 1033
SWIDTH 994 0
DWIDTH 14 0
BBX 14 26 0 -6
BITMAP
0000
0000
0000
0000
0FC0
0FC0
0CC0
0CC0
0CC0
0CC0
0CC0
0CC0
0CF0
0CF0
3330
3330
3330
3330
3330
3330
C3C0
C3C0
0000
0000
0000
0000
ENDCHAR
STARTCHAR afii10059
ENCODING 1034
SWIDTH 994 0
DWIDTH 14 0
BBX 14 26 0 -6
BITMAP
0000
0000
0000
0000
30C0
30C0
30C0
30C0
30C0
30C0
30C0
30C0
3FF0
3FF0
C330
C330
C330
C330
C330
C330
C3C0
C3C0
0000
0000
0000
0000
ENDCHAR
STARTCHAR afii10060
ENCODING 1035
SWIDTH 994 0
DWIDTH 14 0
BBX 14 26 0 -6
BITMAP
0000
0000
0000
0000
FFC0
FFC0
0C00
0C00
0C00
0C00
0C00
0C00
0FC0
0FC0
0C30
0C30
0C30
0C30
30C0
30C0
30C0
30C0
0000
0000
0000
0000
ENDCHAR
STARTCHAR afii10061
ENCODING 1036
SWIDTH 994 0
DWIDTH 14 0
BBX 14 26 0 -6
BITMAP
00C0
00C0
0300
0300
300C
300C
3030
3030
30C0
30C0
3300
3300
3C00
3C00
CC00
CC00
C300
C300
C0C0
C0C0
C030
C030
0000
0000
0000
0000
ENDCHAR
STARTCHAR uni040D
ENCODING 1037
SWIDTH 994 0
DWIDTH 14 0
BBX 14 26 0 -6
BITMAP
0300
0300
00C0
00C0
300C
300C
300C
300C
303C
303C
30CC
30CC
330C
330C
CC30
CC30
F030
F030
C030
C030
C030
C030
0000
0000
0000
0000
ENDCHAR
STARTCHAR afii10062
ENCODING 1038
SWIDTH 994 0
DWIDTH 14 0
BBX 14 26 0 -6
BITMAP
0C30
0C30
03C0
03C0
0000
0000
300C
300C
300C
300C
300C
300C
0FF0
0FF0
0030
0030
0030
0030
C030
C030
3FC0
3FC0
0000
0000
0000
0000
ENDCHAR
STARTCHAR afii10145
ENCODING 1039
SWIDTH 994 0
DWIDTH 14 0
BBX 14 26 0 -6
BITMAP
0000
0000
0000
0000
3030
3030
3030
3030
3030
3030
3030
3030
3030
3030
C0C0
C0C0
C0C0
C0C0
C0C0
C0C0
FFC0
FFC0
0C00
0C00
0C00
0C00
ENDCHAR
STARTCHAR afii10017
ENCODING 1040
SWIDTH 994 0
DWIDTH 14 0
BBX 14 26 0 -6
BITMAP
0000
0000
0000
0000
03C0
03C0
0C30
0C30
300C
300C
300C
300C
300C
300C
3FF0
3FF0
C030
C030
C030
C030
C030
C030
0000
0000
0000
0000
ENDCHAR
STARTCHAR afii10018
ENCODING 1041
SWIDTH 994 0
DWIDTH 14 0
BBX 14 26 0 -6
BITMAP
0000
0000
0000
0000
3FF0
3FF0
3000
3000
3000
3000
3000
3000
3FC0
3FC0
C030
C030
C030
C030
C030
C030
FFC0
FFC0
0000
0000
0000
0000
ENDCHAR
STARTCHAR afii10019
ENCODING 1042
SWIDTH 994 0
DWIDTH 14 0
BBX 14 26 0 -6
BITMAP
0000
0000
0000
0000
3FF0
3FF0
300C
300C
300C
300C
300C
300C
3FF0
3FF0
C030
C030
C030
C030
C030
C030
FFC0
FFC0
0000
0000
0000
0000
ENDCHAR
STARTCHAR afii10020
ENCODING 1043
SWIDTH 994 0
DWIDTH 14 0
BBX 14 26 0 -6
BITMAP
0000
0000
0000
0000
3FFC
3FFC
3000
3000
3000
3000
3000
3000
3000
3000
C000
C000
C000
C000
C000
C000
C000
C000
0000
0000
0000
0000
ENDCHAR
STARTCHAR afii10021
ENCODING 1044
SWIDTH 994 0
DWIDTH 14 0
BBX 14 26 0 -6
BITMAP
0000
0000
0000
0000
03F0
03F0
0330
0330
0330
0330
0C30
0C30
0C30
0C30
30C0
30C0
30C0
30C0
30C0
30C0
FFF0
FFF0
C030
C030
0000
0000
ENDCHAR
STARTCHAR afii10022
ENCODING 1045
SWIDTH 994 0
DWIDTH 14 0
BBX 14 26 0 -6
BITMAP
0000
0000
0000
0000
3FFC
3FFC
3000
3000
3000
3000
3000
3000
3FC0
3FC0
C000
C000
C000
C000
C000
C000
FFF0
FFF0
0000
0000
0000
0000
ENDCHAR
STARTCHAR afii10024
ENCODING 1046
SWIDTH 994 0
DWIDTH 14 0
BBX 14 26 0 -6
BITMAP
0000
0000
0000
0000
3330
3330
3330
3330
3330
3330
3330
3330
3FC0
3FC0
CCC0
CCC0
CCC0
CCC0
CCC0
CCC0
CCC0
CCC0
0000
0000
0000
0000
ENDCHAR
STARTCHAR afii10025
ENCODING 1047
SWIDTH 994 0
DWIDTH 14 0
BBX 14 26 0 -6
BITMAP
0000
0000
0000
0000
0FF0
0FF0
300C
300C
000C
000C
000C
000C
03F0
03F0
0030
0030
0030
0030
C030
C030
3FC0
3FC0
0000
0000
0000
0000
ENDCHAR
STARTCHAR afii10026
ENCODING 1048
SWIDTH 994 0
DWIDTH 14 0
BBX 14 26 0 -6
BITMAP
0000
0000
0000
0000
300C
300C
300C
300C
303C
303C
30CC
30CC
330C
330C
CC30
CC30
F030
F030
C030
C030
C030
C030
0000
0000
0000
0000
ENDCHAR
STARTCHAR afii10027
ENCODING 1049
SWIDTH 994 0
DWIDTH 14 0
BBX 14 26 0 -6
BITMAP
0C30
0C30
03C0
03C0
300C
300C
300C
300C
303C
303C
30CC
30CC
330C
330C
CC30
CC30
F030
F030
C030
C030
C030
C030
0000
0000
0000
0000
ENDCHAR
STARTCHAR afii10028
ENCODING 1050
SWIDTH 994 0
DWIDTH 14 0
BBX 14 26 0 -6
BITMAP
0000
0000
0000
0000
300C
300C
3030
3030
30C0
30C0
3300
3300
3C00
3C00
CC00
CC00
C300
C300
C0C0
C0C0
C030
C030
0000
0000
0000
0000
ENDCHAR
STARTCHAR afii10029
ENCODING 1051
SWIDTH 994 0
DWIDTH 14 0
BBX 14 26 0 -6
BITMAP
0000
0000
0000
0000
0FFC
0FFC
0C0C
0C0C
0C0C
0C0C
0C0C
0C0C
0C0C
0C0C
3030
3030
3030
3030
3030
3030
C030
C030
0000
0000
0000
0000
ENDCHAR
STARTCHAR afii10030
ENCODING 1052
SWIDTH 994 0
DWIDTH 14 0
BBX 14 26 0 -6
BITMAP
0000
0000
0000
0000
300C
300C
3C3C
3C3C
3C3C
3C3C
33CC
33CC
33CC
33CC
C030
C030
C030
C030
C030
C030
C030
C030
0000
0000
0000
0000
ENDCHAR
STARTCHAR afii10031
ENCODING 1053
SWIDTH 994 0
DWIDTH 14 0
BBX 14 26 0 -6
BITMAP
0000
0000
0000
0000
300C
300C
300C
300C
300C
300C
300C
300C
3FF0
3FF0
C030
C030
C030
C030
C030
C030
C030
C030
0000
0000
0000
0000
ENDCHAR
STARTCHAR afii10032
ENCODING 1054
SWIDTH 994 0
DWIDTH 14 0
BBX 14 26 0 -6
BITMAP
0000
0000
0000
0000
0FF0
0FF0
300C
300C
300C
300C
300C
300C
300C
300C
C030
C030
C030
C030
C030
C030
3FC0
3FC0
0000
0000
0000
0000
ENDCHAR
STARTCHAR afii10033
ENCODING 1055
SWIDTH 994 0
DWIDTH 14 0
BBX 14 26 0 -6
BITMAP
0000
0000
0000
0000
3FFC
3FFC
300C
300C
300C
300C
300C
300C
300C
300C
C030
C030
C030
C030
C030
C030
C030
C030
0000
0000
0000
0000
ENDCHAR
STARTCHAR afii10034
ENCODING 1056
SWIDTH 994 0
DWIDTH 14 0
BBX 14 26 0 -6
BITMAP
0000
0000
0000
0000
3FF0
3FF0
300C
300C
300C
300C
300C
300C
3FF0
3FF0
C000
C000
C000
C000
C000
C000
C000
C000
0000
0000
0000
0000
ENDCHAR
STARTCHAR afii10035
ENCODING 1057
SWIDTH 994 0
DWIDTH 14 0
BBX 14 26 0 -6
BITMAP
0000
0000
0000
0000
0FF0
0FF0
300C
300C
3000
3000
3000
3000
3000
3000
C000
C000
C000
C000
C030
C030
3FC0
3FC0
0000
0000
0000
0000
ENDCHAR
STARTCHAR afii10036
ENCODING 1058
SWIDTH 994 0
DWIDTH 14 0
BBX 14 26 0 -6
BITMAP
0000
0000
0000
0000
3FF0
3FF0
0300
0300
0300
0300
0300
0300
0300
0300
0C00
0C00
0C00
0C00
0C00
0C00
0C00
0C00
0000
0000
0000
0000
ENDCHAR
STARTCHAR afii10037
ENCODING 1059
SWIDTH 994 0
DWIDTH 14 0
BBX 14 26 0 -6
BITMAP
0000
0000
0000
0000
300C
300C
300C
300C
300C
300C
300C
300C
0FF0
0FF0
0030
0030
0030
0030
C030
C030
3FC0
3FC0
0000
0000
0000
0000
ENDCHAR
STARTCHAR afii10038
ENCODING 1060
SWIDTH 994 0
DWIDTH 14 0
BBX 14 26 0 -6
BITMAP
0000
0000
0300
0300
0FC0
0FC0
3330
3330
3330
3330
3330
3330
3330
3330
CCC0
CCC0
CCC0
CCC0
CCC0
CCC0
3F00
3F00
0C00
0C00
0000
0000
ENDCHAR
STARTCHAR afii10039
ENCODING 1061
SWIDTH 994 0
DWIDTH 14 0
BBX 14 26 0 -6
BITMAP
0000
0000
0000
0000
300C
300C
300C
300C
0C30
0C30
0CC0
0CC0
0300
0300
0CC0
0CC0
30C0
30C0
C030
C030
C030
C030
0000
0000
0000
0000
ENDCHAR
STARTCHAR afii10040
ENCODING 1062
SWIDTH 994 0
DWIDTH 14 0
BBX 14 26 0 -6
BITMAP
0000
0000
0000
0000
3030
3030
3030
3030
3030
3030
3030
3030
3030
3030
C0C0
C0C0
C0C0
C0C0
C0C0
C0C0
FFF0
FFF0
0030
0030
0030
0030
ENDCHAR
STARTCHAR afii10041
ENCODING 1063
SWIDTH 994 0
DWIDTH 14 0
BBX 14 26 0 -6
BITMAP
0000
0000
0000
0000
300C
300C
300C
300C
C030
C030
C030
C030
3FF0
3FF0
0030
0030
00C0
00C0
00C0
00C0
00C0
00C0
0000
0000
0000
0000
ENDCHAR
STARTCHAR afii10042
ENCODING 1064
SWIDTH 994 0
DWIDTH 14 0
BBX 14 26 0 -6
BITMAP
0000
0000
0000
0000
3330
3330
3330
3330
3330
3330
3330
3330
3330
3330
CCC0
CCC0
CCC0
CCC0
CCC0
CCC0
FFC0
FFC0
0000
0000
0000
0000
ENDCHAR
STARTCHAR afii10043
ENCODING 1065
SWIDTH 994 0
DWIDTH 14 0
BBX 14 26 0 -6
BITMAP
0000
0000
0000
0000
3330
3330
3330
3330
3330
3330
3330
3330
3330
3330
CCC0
CCC0
CCC0
CCC0
CCC0
CCC0
FFF0
FFF0
0030
0030
0030
0030
ENDCHAR
STARTCHAR afii10044
ENCODING 1066
SWIDTH 994 0
DWIDTH 14 0
BBX 14 26 0 -6
BITMAP
0000
0000
0000
0000
3F00
3F00
0300
0300
0300
0300
0300
0300
03C0
03C0
0C30
0C30
0C30
0C30
0C30
0C30
0FC0
0FC0
0000
0000
0000
0000
ENDCHAR
STARTCHAR afii10045
ENCODING 1067
SWIDTH 994 0
DWIDTH 14 0
BBX 14 26 0 -6
BITMAP
0000
0000
0000
0000
300C
300C
300C
300C
300C
300C
300C
300C
3F0C
3F0C
C330
C330
C330
C330
C330
C330
FC30
FC30
0000
0000
0000
0000
ENDCHAR
STARTCHAR afii10046
ENCODING 1068
SWIDTH 994 0
DWIDTH 14 0
BBX 14 26 0 -6
BITMAP
0000
0000
0000
0000
0C00
0C00
0C00
0C00
0C00
0C00
0C00
0C00
0FC0
0FC0
3030
3030
3030
3030
3030
3030
3FC0
3FC0
0000
0000
0000
0000
ENDCHAR
STARTCHAR afii10047
ENCODING 1069
SWIDTH 994 0
DWIDTH 14 0
BBX 14 26 0 -6
BITMAP
0000
0000
0000
0000
0FC0
0FC0
3030
3030
000C
000C
000C
000C
03F0
03F0
0030
0030
0030
0030
C0C0
C0C0
3F00
3F00
0000
0000
0000
0000
ENDCHAR
STARTCHAR afii10048
ENCODING 1070
SWIDTH 994 0
DWIDTH 14 0
BBX 14 26 0 -6
BITMAP
0000
0000
0000
0000
30F0
30F0
330C
330C
330C
330C
330C
330C
3F0C
3F0C
CC30
CC30
CC30
CC30
CC30
CC30
C3C0
C3C0
0000
0000
0000
0000
ENDCHAR
STARTCHAR afii10049
ENCODING 1071
SWIDTH 994 0
DWIDTH 14 0
BBX 14 26 0 -6
BITMAP
0000
0000
0000
0000
0FFC
0FFC
300C
300C
300C
300C
300C
300C
0FF0
0FF0
0330
0330
0C30
0C30
3030
3030
C030
C030
0000
0000
0000
0000
ENDCHAR
STARTCHAR afii10065
ENCODING 1072
SWIDTH 994 0
DWIDTH 14 0
BBX 14 26 0 -6
BITMAP
0000
0000
0000
0000
0000
0000
0000
0000
0000
0000
0FF0
0FF0
000C
000C
3FF0
3FF0
C030
C030
C0F0
C0F0
3F30
3F30
0000
0000
0000
0000
ENDCHAR
STARTCHAR afii10066
ENCODING 1073
SWIDTH 994 0
DWIDTH 14 0
BBX 14 26 0 -6
BITMAP
0000
0000
0000
0000
000C
000C
0FF0
0FF0
3000
3000
33F0
33F0
3C0C
3C0C
300C
300C
C030
C030
C030
C030
3FC0
3FC0
0000
0000
0000
0000
ENDCHAR
STARTCHAR afii10067
ENCODING 1074
SWIDTH 994 0
DWIDTH 14 0
BBX 14 26 0 -6
BITMAP
0000
0000
0000
0000
0000
0000
0000
0000
0000
0000
3FF0
3FF0
300C
300C
3FF0
3FF0
C030
C030
C030
C030
FFC0
FFC0
0000
0000
0000
0000
ENDCHAR
STARTCHAR afii10068
ENCODING 1075
SWIDTH 994 0
DWIDTH 14 0
BBX 14 26 0 -6
BITMAP
0000
0000
0000
0000
0000
0000
0000
0000
0000
0000
3FFC
3FFC
3000
3000
3000
3000
C000
C000
C000
C000
C000
C000
0000
0000
0000
0000
ENDCHAR
STARTCHAR afii10069
ENCODING 1076
SWIDTH 994 0
DWIDTH 14 0
BBX 14 26 0 -6
BITMAP
0000
0000
0000
0000
0000
0000
0000
0000
0000
0000
03F0
03F0
0C30
0C30
0C30
0C30
30C0
30C0
30C0
30C0
FFF0
FFF0
C030
C030
0000
0000
ENDCHAR
STARTCHAR afii10070
ENCODING 1077
SWIDTH 994 0
DWIDTH 14 0
BBX 14 26 0 -6
BITMAP
0000
0000
0000
0000
0000
0000
0000
0000
0000
0000
0FF0
0FF0
300C
300C
3FF0
3FF0
C000
C000
C030
C030
3FC0
3FC0
0000
0000
0000
0000
ENDCHAR
STARTCHAR afii10072
ENCODING 1078
SWIDTH 994 0
DWIDTH 14 0
BBX 14 26 0 -6
BITMAP
0000
0000
0000
0000
0000
0000
0000
0000
0000
0000
3330
3330
3330
3330
3FC0
3FC0
CCC0
CCC0
CCC0
CCC0
CCC0
CCC0
0000
0000
0000
0000
ENDCHAR
STARTCHAR afii10073
ENCODING 1079
SWIDTH 994 0
DWIDTH 14 0
BBX 14 26 0 -6
BITMAP
0000
0000
0000
0000
0000
0000
0000
0000
0000
0000
0FF0
0FF0
300C
300C
0FC0
0FC0
0030
0030
C030
C030
3FC0
3FC0
0000
0000
0000
0000
ENDCHAR
STARTCHAR afii10074
ENCODING 1080
SWIDTH 994 0
DWIDTH 14 0
BBX 14 26 0 -6
BITMAP
0000
0000
0000
0000
0000
0000
0000
0000
0000
0000
300C
300C
303C
303C
30CC
30CC
CF30
CF30
F030
F030
C030
C030
0000
0000
0000
0000
ENDCHAR
STARTCHAR afii10075
ENCODING 1081
SWIDTH 994 0
DWIDTH 14 0
BBX 14 26 0 -6
BITMAP
0000
0000
0000
0000
0C30
0C30
03C0
03C0
0000
0000
300C
300C
303C
303C
30CC
30CC
CF30
CF30
F030
F030
C030
C030
0000
0000
0000
0000
ENDCHAR
STARTCHAR afii10076
ENCODING 1082
SWIDTH 994 0
DWIDTH 14 0
BBX 14 26 0 -6
BITMAP
0000
0000
0000
0000
0000
0000
0000
0000
0000
0000
300C
300C
3030
3030
3FC0
3FC0
C0C0
C0C0
C030
C030
C030
C030
0000
0000
0000
0000
ENDCHAR
STARTCHAR afii10077
ENCODING 1083
SWIDTH 994 0
DWIDTH 14 0
BBX 14 26 0 -6
BITMAP
0000
0000
0000
0000
0000
0000
0000
0000
0000
0000
03FC
03FC
0C0C
0C0C
0C0C
0C0C
3030
3030
3030
3030
C030
C030
0000
0000
0000
0000
ENDCHAR
STARTCHAR afii10078
ENCODING 1084
SWIDTH 994 0
DWIDTH 14 0
BBX 14 26 0 -6
BITMAP
0000
0000
0000
0000
0000
0000
0000
0000
0000
0000
3030
3030
3CF0
3CF0
3330
3330
C0C0
C0C0
C0C0
C0C0
C0C0
C0C0
0000
0000
0000
0000
ENDCHAR
STARTCHAR afii10079
ENCODING 1085
SWIDTH 994 0
DWIDTH 14 0
BBX 14 26 0 -6
BITMAP
0000
0000
0000
0000
0000
0000
0000
0000
0000
0000
300C
300C
300C
300C
3FF0
3FF0
C030
C030
C030
C030
C030
C030
0000
0000
0000
0000
ENDCHAR
STARTCHAR afii10080
ENCODING 1086
SWIDTH 994 0
DWIDTH 14 0
BBX 14 26 0 -6
BITMAP
0000
0000
0000
0000
0000
0000
0000
0000
0000
0000
0FF0
0FF0
300C
300C
300C
300C
C030
C030
C030
C030
3FC0
3FC0
0000
0000
0000
0000
ENDCHAR
STARTCHAR afii10081
ENCODING 1087
SWIDTH 994 0
DWIDTH 14 0
BBX 14 26 0 -6
BITMAP
0000
0000
0000
0000
0000
0000
0000
0000
0000
0000
3FFC
3FFC
300C
300C
300C
300C
C030
C030
C030
C030
C030
C030
0000
0000
0000
0000
ENDCHAR
STARTCHAR afii10082
ENCODING 1088
SWIDTH 994 0
DWIDTH 14 0
BBX 14 26 0 -6
BITMAP
0000
0000
0000
0000
0000
0000
0000
0000
0000
0000
33F0
33F0
3C0C
3C0C
300C
300C
C030
C030
F030
F030
CFC0
CFC0
C000
C000
C000
C000
ENDCHAR
STARTCHAR afii10083
ENCODING 1089
SWIDTH 994 0
DWIDTH 14 0
BBX 14 26 0 -6
BITMAP
0000
0000
0000
0000
0000
0000
0000
0000
0000
0000
0FF0
0FF0
300C
300C
C000
C000
C000
C000
C030
C030
3FC0
3FC0
0000
0000
0000
0000
ENDCHAR
STARTCHAR afii10084
ENCODING 1090
SWIDTH 994 0
DWIDTH 14 0
BBX 14 26 0 -6
BITMAP
0000
0000
0000
0000
0000
0000
0000
0000
0000
0000
3FF0
3FF0
0300
0300
0300
0300
0C00
0C00
0C00
0C00
0C00
0C00
0000
0000
0000
0000
ENDCHAR
STARTCHAR afii10085
ENCODING 1091
SWIDTH 994 0
DWIDTH 14 0
BBX 14 26 0 -6
BITMAP
0000
0000
0000
0000
0000
0000
0000
0000
0000
0000
300C
300C
300C
300C
C030
C030
C0F0
C0F0
3F30
3F30
0030
0030
C030
C030
3FC0
3FC0
ENDCHAR
STARTCHAR afii10086
ENCODING 1092
SWIDTH 994 0
DWIDTH 14 0
BBX 14 26 0 -6
BITMAP
0000
0000
0000
0000
0000
0000
0300
0300
0300
0300
0FC0
0FC0
3330
3330
3330
3330
CCC0
CCC0
CCC0
CCC0
3F00
3F00
0C00
0C00
0C00
0C00
ENDCHAR
STARTCHAR afii10087
ENCODING 1093
SWIDTH 994 0
DWIDTH 14 0
BBX 14 26 0 -6
BITMAP
0000
0000
0000
0000
0000
0000
0000
0000
0000
0000
300C
300C
0C30
0C30
03C0
03C0
0F00
0F00
30C0
30C0
C030
C030
0000
0000
0000
0000
ENDCHAR
STARTCHAR afii10088
ENCODING 1094
SWIDTH 994 0
DWIDTH 14 0
BBX 14 26 0 -6
BITMAP
0000
0000
0000
0000
0000
0000
0000
0000
0000
0000
3030
3030
3030
3030
3030
3030
C0C0
C0C0
C0C0
C0C0
FFF0
FFF0
0030
0030
0030
0030
ENDCHAR
STARTCHAR afii10089
ENCODING 1095
SWIDTH 994 0
DWIDTH 14 0
BBX 14 26 0 -6
BITMAP
0000
0000
0000
0000
0000
0000
0000
0000
0000
0000
300C
300C
300C
300C
C030
C030
3FF0
3FF0
0030
0030
0030
0030
0000
0000
0000
0000
ENDCHAR
STARTCHAR afii10090
ENCODING 1096
SWIDTH 994 0
DWIDTH 14 0
BBX 14 26 0 -6
BITMAP
0000
0000
0000
0000
0000
0000
0000
0000
0000
0000
3330
3330
3330
3330
3330
3330
CCC0
CCC0
CCC0
CCC0
FFC0
FFC0
0000
0000
0000
0000
ENDCHAR
STARTCHAR afii10091
ENCODING 1097
SWIDTH 994 0
DWIDTH 14 0
BBX 14 26 0 -6
BITMAP
0000
0000
0000
0000
0000
0000
0000
0000
0000
0000
3330
3330
3330
3330
3330
3330
CCC0
CCC0
CCC0
CCC0
FFF0
FFF0
0030
0030
0030
0030
ENDCHAR
STARTCHAR afii10092
ENCODING 1098
SWIDTH 994 0
DWIDTH 14 0
BBX 14 26 0 -6
BITMAP
0000
0000
0000
0000
0000
0000
0000
0000
0000
0000
3F00
3F00
0300
0300
03C0
03C0
0C30
0C30
0C30
0C30
0FC0
0FC0
0000
0000
0000
0000
ENDCHAR
STARTCHAR afii10093
ENCODING 1099
SWIDTH 994 0
DWIDTH 14 0
BBX 14 26 0 -6
BITMAP
0000
0000
0000
0000
0000
0000
0000
0000
0000
0000
300C
300C
300C
300C
3C30
3C30
C330
C330
C330
C330
FC30
FC30
0000
0000
0000
0000
ENDCHAR
STARTCHAR afii10094
ENCODING 1100
SWIDTH 994 0
DWIDTH 14 0
BBX 14 26 0 -6
BITMAP
0000
0000
0000
0000
0000
0000
0000
0000
0000
0000
0C00
0C00
0C00
0C00
0FC0
0FC0
3030
3030
3030
3030
3FC0
3FC0
0000
0000
0000
0000
ENDCHAR
STARTCHAR afii10095
ENCODING 1101
SWIDTH 994 0
DWIDTH 14 0
BBX 14 26 0 -6
BITMAP
0000
0000
0000
0000
0000
0000
0000
0000
0000
0000
0FF0
0FF0
300C
300C
03F0
03F0
0030
0030
C030
C030
3FC0
3FC0
0000
0000
0000
0000
ENDCHAR
STARTCHAR afii10096
ENCODING 1102
SWIDTH 994 0
DWIDTH 14 0
BBX 14 26 0 -6
BITMAP
0000
0000
0000
0000
0000
0000
0000
0000
0000
0000
30F0
30F0
330C
330C
3F0C
3F0C
CC30
CC30
CC30
CC30
C3C0
C3C0
0000
0000
0000
0000
ENDCHAR
STARTCHAR afii10097
ENCODING 1103
SWIDTH 994 0
DWIDTH 14 0
BBX 14 26 0 -6
BITMAP
0000
0000
0000
0000
0000
0000
0000
0000
0000
0000
0FFC
0FFC
300C
300C
300C
300C
0FF0
0FF0
3030
3030
C030
C030
0000
0000
0000
0000
ENDCHAR
STARTCHAR uni0450
ENCODING 1104
SWIDTH 994 0
DWIDTH 14 0
BBX 14 26 0 -6
BITMAP
0000
0000
0000
0000
0300
0300
00C0
00C0
0000
0000
0FF0
0FF0
300C
300C
3FF0
3FF0
C000
C000
C030
C030
3FC0
3FC0
0000
0000
0000
0000
ENDCHAR
STARTCHAR afii10071
ENCODING 1105
SWIDTH 994 0
DWIDTH 14 0
BBX 14 26 0 -6
BITMAP
0000
0000
0000
0000
0C30
0C30
0C30
0C30
0000
0000
0FF0
0FF0
300C
300C
3FF0
3FF0
C000
C000
C030
C030
3FC0
3FC0
0000
0000
0000
0000
ENDCHAR
STARTCHAR afii10099
ENCODING 1106
SWIDTH 994 0
DWIDTH 14 0
BBX 14 26 0 -6
BITMAP
0000
0000
0000
0000
0000
0000
3000
3000
3000
3000
FF00
FF00
3000
3000
3FC0
3FC0
3030
3030
C0C0
C0C0
C0C0
C0C0
00C0
00C0
0F00
0F00
ENDCHAR
STARTCHAR afii10100
ENCODING 1107
SWIDTH 994 0
DWIDTH 14 0
BBX 14 26 0 -6
BITMAP
0000
0000
0000
0000
00C0
00C0
0300
0300
0000
0000
3FFC
3FFC
3000
3000
3000
3000
C000
C000
C000
C000
C000
C000
0000
0000
0000
0000
ENDCHAR
STARTCHAR afii10101
ENCODING 1108
SWIDTH 994 0
DWIDTH 14 0
BBX 14 26 0 -6
BITMAP
0000
0000
0000
0000
0000
0000
0000
0000
0000
0000
0FF0
0FF0
300C
300C
3C00
3C00
C000
C000
C030
C030
3FC0
3FC0
0000
0000
0000
0000
ENDCHAR
STARTCHAR afii10102
ENCODING 1109
SWIDTH 994 0
DWIDTH 14 0
BBX 14 26 0 -6
BITMAP
0000
0000
0000
0000
0000
0000
0000
0000
0000
0000
0FF0
0FF0
300C
300C
0C00
0C00
03C0
03C0
C030
C030
3FC0
3FC0
0000
0000
0000
0000
ENDCHAR
STARTCHAR afii10103
ENCODING 1110
SWIDTH 994 0
DWIDTH 14 0
BBX 14 26 0 -6
BITMAP
0000
0000
0000
0000
0000
0000
00C0
00C0
0000
0000
03C0
03C0
00C0
00C0
00C0
00C0
0300
0300
0300
0300
3FF0
3FF0
0000
0000
0000
0000
ENDCHAR
STARTCHAR afii10104
ENCODING 1111
SWIDTH 994 0
DWIDTH 14 0
BBX 14 26 0 -6
BITMAP
0000
0000
0000
0000
0C30
0C30
0C30
0C30
0000
0000
03C0
03C0
00C0
00C0
00C0
00C0
0300
0300
0300
0300
3FF0
3FF0
0000
0000
0000
0000
ENDCHAR
STARTCHAR afii10105
ENCODING 1112
SWIDTH 994 0
DWIDTH 14 0
BBX 14 26 0 -6
BITMAP
0000
0000
0000
0000
0000
0000
0030
0030
0000
0000
00F0
00F0
0030
0030
0030
0030
00C0
00C0
00C0
00C0
C0C0
C0C0
C0C0
C0C0
3F00
3F00
ENDCHAR
STARTCHAR afii10106
ENCODING 1113
SWIDTH 994 0
DWIDTH 14 0
BBX 14 26 0 -6
BITMAP
0000
0000
0000
0000
0000
0000
0000
0000
0000
0000
0FC0
0FC0
0CC0
0CC0
30F0
30F0
330C
330C
330C
330C
C3F0
C3F0
0000
0000
0000
0000
ENDCHAR
STARTCHAR afii10107
ENCODING 1114
SWIDTH 994 0
DWIDTH 14 0
BBX 14 26 0 -6
BITMAP
0000
0000
0000
0000
0000
0000
0000
0000
0000
0000
30C0
30C0
30C0
30C0
3FC0
3FC0
C330
C330
C330
C330
C3C0
C3C0
0000
0000
0000
0000
ENDCHAR
STARTCHAR afii10108
ENCODING 1115
SWIDTH 994 0
DWIDTH 14 0
BBX 14 26 0 -6
BITMAP
0000
0000
0000
0000
0000
0000
3000
3000
3000
3000
FF00
FF00
3000
3000
3FC0
3FC0
3030
3030
C0C0
C0C0
C0C0
C0C0
0000
0000
0000
0000
ENDCHAR
STARTCHAR afii10109
ENCODING 1116
SWIDTH 994 0
DWIDTH 14 0
BBX 14 26 0 -6
BITMAP
0000
0000
0000
0000
00C0
00C0
0300
0300
0000
0000
300C
300C
30F0
30F0
3F00
3F00
C0C0
C0C0
C030
C030
C030
C030
0000
0000
0000
0000
ENDCHAR
STARTCHAR uni045D
ENCODING 1117
SWIDTH 994 0
DWIDTH 14 0
BBX 14 26 0 -6
BITMAP
0000
0000
0000
0000
0300
0300
00C0
00C0
0000
0000
300C
300C
303C
303C
30CC
30CC
CF30
CF30
F030
F030
C030
C030
0000
0000
0000
0000
ENDCHAR
STARTCHAR afii10110
ENCODING 1118
SWIDTH 994 0
DWIDTH 14 0
BBX 14 26 0 -6
BITMAP
0000
0000
0000
0000
0C30
0C30
03C0
03C0
0000
0000
300C
300C
300C
300C
C030
C030
C0F0
C0F0
3F30
3F30
0030
0030
C030
C030
3FC0
3FC0
ENDCHAR
STARTCHAR afii10193
ENCODING 1119
SWIDTH 994 0
DWIDTH 14 0
BBX 14 26 0 -6
BITMAP
0000
0000
0000
0000
0000
0000
0000
0000
0000
0000
3030
3030
3030
3030
3030
3030
C0C0
C0C0
C0C0
C0C0
FFC0
FFC0
0C00
0C00
0C00
0C00
ENDCHAR
STARTCHAR uni0460
ENCODING 1120
SWIDTH 994 0
DWIDTH 14 0
BBX 14 26 0 -6
BITMAP
0000
0000
0000
0000
0C30
0C30
300C
300C
300C
300C
300C
300C
300C
300C
C030
C030
C030
C030
CF30
CF30
30C0
30C0
0000
0000
0000
0000
ENDCHAR
STARTCHAR uni0461
ENCODING 1121
SWIDTH 994 0
DWIDTH 14 0
BBX 14 26 0 -6
BITMAP
0000
0000
0000
0000
0000
0000
0000
0000
0000
0000
0CC0
0CC0
3030
3030
3330
3330
CCC0
CCC0
CCC0
CCC0
3300
3300
0000
0000
0000
0000
ENDCHAR
STARTCHAR afii10146
ENCODING 1122
SWIDTH 994 0
DWIDTH 14 0
BBX 14 26 0 -6
BITMAP
0000
0000
0000
0000
0C00
0C00
3FC0
3FC0
0C00
0C00
0C00
0C00
0FC0
0FC0
3030
3030
3030
3030
3030
3030
3FC0
3FC0
0000
0000
0000
0000
ENDCHAR
STARTCHAR afii10194
ENCODING 1123
SWIDTH 994 0
DWIDTH 14 0
BBX 14 26 0 -6
BITMAP
0000
0000
0000
0000
0000
0000
0C00
0C00
0C00
0C00
3FC0
3FC0
0C00
0C00
0FC0
0FC0
3030
3030
3030
3030
3FC0
3FC0
0000
0000
0000
0000
ENDCHAR
STARTCHAR uni0464
ENCODING 1124
SWIDTH 994 0
DWIDTH 14 0
BBX 14 26 0 -6
BITMAP
0000
0000
0000
0000
30F0
30F0
330C
330C
3300
3300
3300
3300
3FF0
3FF0
CC00
CC00
CC00
CC00
CC30
CC30
C3C0
C3C0
0000
0000
0000
0000
ENDCHAR
STARTCHAR uni0465
ENCODING 1125
SWIDTH 994 0
DWIDTH 14 0
BBX 14 26 0 -6
BITMAP
0000
0000
0000
0000
0000
0000
0000
0000
0000
0000
30F0
30F0
330C
330C
3FC0
3FC0
CC00
CC00
CC30
CC30
C3C0
C3C0
0000
0000
0000
0000
ENDCHAR
STARTCHAR uni046E
ENCODING 1134
SWIDTH 994 0
DWIDTH 14 0
BBX 14 26 0 -6
BITMAP
0C30
0C30
03C0
03C0
0000
0000
0FF0
0FF0
300C
300C
000C
000C
03F0
03F0
0030
0030
0030
0030
0030
0030
3FC0
3FC0
C000
C000
3FC0
3FC0
ENDCHAR
STARTCHAR uni046F
ENCODING 1135
SWIDTH 994 0
DWIDTH 14 0
BBX 14 26 0 -6
BITMAP
0000
0000
0000
0000
0C30
0C30
03C0
03C0
0000
0000
0FF0
0FF0
300C
300C
0FC0
0FC0
0030
0030
0030
0030
3FC0
3FC0
C000
C000
3FC0
3FC0
ENDCHAR
STARTCHAR uni0470
ENCODING 1136
SWIDTH 994 0
DWIDTH 14 0
BBX 14 26 0 -6
BITMAP
0000
0000
0000
0000
3330
3330
3330
3330
3330
3330
CCC0
CCC0
CCC0
CCC0
CCC0
CCC0
3F00
3F00
0C00
0C00
0C00
0C00
0000
0000
0000
0000
ENDCHAR
STARTCHAR uni0471
ENCODING 1137
SWIDTH 994 0
DWIDTH 14 0
BBX 14 26 0 -6
BITMAP
0000
0000
0000
0000
0000
0000
0000
0000
0000
0000
3330
3330
3330
3330
3330
3330
CCC0
CCC0
CCC0
CCC0
3F00
3F00
0C00
0C00
0C00
0C00
ENDCHAR
STARTCHAR afii10147
ENCODING 1138
SWIDTH 994 0
DWIDTH 14 0
BBX 14 26 0 -6
BITMAP
0000
0000
0000
0000
0FF0
0FF0
300C
300C
300C
300C
300C
300C
3FF0
3FF0
C030
C030
C030
C030
C030
C030
3FC0
3FC0
0000
0000
0000
0000
ENDCHAR
STARTCHAR afii10195
ENCODING 1139
SWIDTH 994 0
DWIDTH 14 0
BBX 14 26 0 -6
BITMAP
0000
0000
0000
0000
0000
0000
0000
0000
0000
0000
0FF0
0FF0
300C
300C
3FF0
3FF0
C030
C030
C030
C030
3FC0
3FC0
0000
0000
0000
0000
ENDCHAR
STARTCHAR afii10148
ENCODING 1140
SWIDTH 994 0
DWIDTH 14 0
BBX 14 26 0 -6
BITMAP
0000
0000
0000
0000
C030
C030
C0C0
C0C0
C0C0
C0C0
C300
C300
3300
3300
3C00
3C00
3000
3000
3000
3000
3000
3000
0000
0000
0000
0000
ENDCHAR
STARTCHAR afii10196
ENCODING 1141
SWIDTH 994 0
DWIDTH 14 0
BBX 14 26 0 -6
BITMAP
0000
0000
0000
0000
0000
0000
0000
0000
0000
0000
3030
3030
30C0
30C0
3300
3300
3300
3300
3300
3300
0C00
0C00
0000
0000
0000
0000
ENDCHAR
STARTCHAR uni0476
ENCODING 1142
SWIDTH 994 0
DWIDTH 14 0
BBX 14 26 0 -6
BITMAP
C300
C300
30C0
30C0
0000
0000
C030
C030
C0C0
C0C0
C300
C300
C300
C300
CC00
CC00
CC00
CC00
3000
3000
3000
3000
0000
0000
0000
0000
ENDCHAR
STARTCHAR uni0477
ENCODING 1143
SWIDTH 994 0
DWIDTH 14 0
BBX 14 26 0 -6
BITMAP
0000
0000
0000
0000
30C0
30C0
0C30
0C30
0000
0000
3030
3030
30C0
30C0
3300
3300
3300
3300
3300
3300
0C00
0C00
0000
0000
0000
0000
ENDCHAR
STARTCHAR uni0478
ENCODING 1144
SWIDTH 994 0
DWIDTH 14 0
BBX 14 26 0 -6
BITMAP
0000
0000
0000
0000
0C00
0C00
3300
3300
3300
3300
3300
3300
33CC
33CC
CCCC
CCCC
CF30
CF30
CF30
CF30
30C0
30C0
00C0
00C0
0300
0300
ENDCHAR
STARTCHAR uni0479
ENCODING 1145
SWIDTH 994 0
DWIDTH 14 0
BBX 14 26 0 -6
BITMAP
0000
0000
0000
0000
0000
0000
0000
0000
0000
0000
0000
0000
0CCC
0CCC
33CC
33CC
CF30
CF30
CF30
CF30
30C0
30C0
00C0
00C0
0300
0300
ENDCHAR
STARTCHAR uni047A
ENCODING 1146
SWIDTH 994 0
DWIDTH 14 0
BBX 14 26 0 -6
BITMAP
0000
0000
0300
0300
0FC0
0FC0
3030
3030
3030
3030
3030
3030
3030
3030
C0C0
C0C0
C0C0
C0C0
C0C0
C0C0
3F00
3F00
0C00
0C00
0000
0000
ENDCHAR
STARTCHAR uni047B
ENCODING 1147
SWIDTH 994 0
DWIDTH 14 0
BBX 14 26 0 -6
BITMAP
0000
0000
0000
0000
0000
0000
0000
0000
0300
0300
0FC0
0FC0
3030
3030
3030
3030
C0C0
C0C0
C0C0
C0C0
3F00
3F00
0000
0000
0000
0000
ENDCHAR
STARTCHAR uni047C
ENCODING 1148
SWIDTH 994 0
DWIDTH 14 0
BBX 14 26 0 -6
BITMAP
00C0
00C0
0300
0300
0000
0000
0C30
0C30
300C
300C
300C
300C
300C
300C
C030
C030
C030
C030
CF30
CF30
30C0
30C0
0000
0000
0000
0000
ENDCHAR
STARTCHAR uni047D
ENCODING 1149
SWIDTH 994 0
DWIDTH 14 0
BBX 14 26 0 -6
BITMAP
0000
0000
0000
0000
00C0
00C0
0300
0300
0000
0000
0CC0
0CC0
3030
3030
3330
3330
CCC0
CCC0
CCC0
CCC0
3300
3300
0000
0000
0000
0000
ENDCHAR
STARTCHAR uni047E
ENCODING 1150
SWIDTH 994 0
DWIDTH 14 0
BBX 14 26 0 -6
BITMAP
0000
0000
0FF0
0FF0
0000
0000
0C30
0C30
300C
300C
300C
300C
300C
300C
C030
C030
C030
C030
CF30
CF30
30C0
30C0
0000
0000
0000
0000
ENDCHAR
STARTCHAR uni047F
ENCODING 1151
SWIDTH 994 0
DWIDTH 14 0
BBX 14 26 0 -6
BITMAP
0000
0000
0000
0000
0000
0000
0FC0
0FC0
0000
0000
0CC0
0CC0
3030
3030
3330
3330
CCC0
CCC0
CCC0
CCC0
3300
3300
0000
0000
0000
0000
ENDCHAR
STARTCHAR afii10050
ENCODING 1168
SWIDTH 994 0
DWIDTH 14 0
BBX 14 26 0 -6
BITMAP
000C
000C
000C
000C
3FFC
3FFC
3000
3000
3000
3000
3000
3000
3000
3000
C000
C000
C000
C000
C000
C000
C000
C000
0000
0000
0000
0000
ENDCHAR
STARTCHAR afii10098
ENCODING 1169
SWIDTH 994 0
DWIDTH 14 0
BBX 14 26 0 -6
BITMAP
0000
0000
0000
0000
0000
0000
000C
000C
000C
000C
3FFC
3FFC
3000
3000
3000
3000
C000
C000
C000
C000
C000
C000
0000
0000
0000
0000
ENDCHAR
STARTCHAR uni0E01
ENCODING 3585
SWIDTH 994 0
DWIDTH 14 0
BBX 14 26 0 -6
BITMAP
0000
0000
0000
0000
0000
0000
0000
0000
0000
0000
3FC0
3FC0
C030
C030
3030
3030
C0C0
C0C0
C0C0
C0C0
C0C0
C0C0
0000
0000
0000
0000
ENDCHAR
STARTCHAR uni0E02
ENCODING 3586
SWIDTH 994 0
DWIDTH 14 0
BBX 14 26 0 -6
BITMAP
0000
0000
0000
0000
0000
0000
0000
0000
0000
0000
3F30
3F30
3F30
3F30
0330
0330
FCC0
FCC0
C0C0
C0C0
3F00
3F00
0000
0000
0000
0000
ENDCHAR
STARTCHAR uni0E03
ENCODING 3587
SWIDTH 994 0
DWIDTH 14 0
BBX 14 26 0 -6
BITMAP
0000
0000
0000
0000
0000
0000
0000
0000
0000
0000
C330
C330
FF30
FF30
0330
0330
FCC0
FCC0
C0C0
C0C0
3F00
3F00
0000
0000
0000
0000
ENDCHAR
STARTCHAR uni0E04
ENCODING 3588
SWIDTH 994 0
DWIDTH 14 0
BBX 14 26 0 -6
BITMAP
0000
0000
0000
0000
0000
0000
0000
0000
0000
0000
0FC0
0FC0
3030
3030
FF30
FF30
FF30
FF30
F0C0
F0C0
30C0
30C0
0000
0000
0000
0000
ENDCHAR
STARTCHAR uni0E05
ENCODING 3589
SWIDTH 994 0
DWIDTH 14 0
BBX 14 26 0 -6
BITMAP
0000
0000
0000
0000
0000
0000
0000
0000
0000
0000
0CC0
0CC0
3330
3330
FF30
FF30
FF30
FF30
F0C0
F0C0
30C0
30C0
0000
0000
0000
0000
ENDCHAR
STARTCHAR uni0E06
ENCODING 3590
SWIDTH 994 0
DWIDTH 14 0
BBX 14 26 0 -6
BITMAP
0000
0000
0000
0000
0000
0000
0000
0000
0000
0000
3330
3330
3F30
3F30
0C30
0C30
30C0
30C0
FCC0
FCC0
F300
F300
0000
0000
0000
0000
ENDCHAR
STARTCHAR uni0E07
ENCODING 3591
SWIDTH 994 0
DWIDTH 14 0
BBX 14 26 0 -6
BITMAP
0000
0000
0000
0000
0000
0000
0000
0000
0000
0000
00F0
00F0
00F0
00F0
C030
C030
30C0
30C0
30C0
30C0
0F00
0F00
0000
0000
0000
0000
ENDCHAR
STARTCHAR uni0E08
ENCODING 3592
SWIDTH 994 0
DWIDTH 14 0
BBX 14 26 0 -6
BITMAP
0000
0000
0000
0000
0000
0000
0000
0000
0000
0000
3FC0
3FC0
C030
C030
3C30
3C30
3CC0
3CC0
0CC0
0CC0
0F00
0F00
0000
0000
0000
0000
ENDCHAR
STARTCHAR uni0E09
ENCODING 3593
SWIDTH 994 0
DWIDTH 14 0
BBX 14 26 0 -6
BITMAP
0000
0000
0000
0000
0000
0000
0000
0000
0000
0000
3FC0
3FC0
0030
0030
3C30
3C30
0CC0
0CC0
33F0
33F0
3CF0
3CF0
0000
0000
0000
0000
ENDCHAR
STARTCHAR uni0E0A
ENCODING 3594
SWIDTH 994 0
DWIDTH 14 0
BBX 14 26 0 -6
BITMAP
0000
0000
0000
0000
0000
0000
0000
0000
0030
0030
3C30
3C30
3CC0
3CC0
0C30
0C30
F0C0
F0C0
C0C0
C0C0
3F00
3F00
0000
0000
0000
0000
ENDCHAR
STARTCHAR uni0E0B
ENCODING 3595
SWIDTH 994 0
DWIDTH 14 0
BBX 14 26 0 -6
BITMAP
0000
0000
0000
0000
0000
0000
0000
0000
0030
0030
CC30
CC30
FCC0
FCC0
3030
3030
C0C0
C0C0
C0C0
C0C0
3F00
3F00
0000
0000
0000
0000
ENDCHAR
STARTCHAR uni0E0C
ENCODING 3596
SWIDTH 994 0
DWIDTH 14 0
BBX 14 26 0 -6
BITMAP
0000
0000
0000
0000
0000
0000
0000
0000
0000
0000
0F0C
0F0C
30CC
30CC
3CCC
3CCC
C330
C330
CFF0
CFF0
FF30
FF30
0000
0000
0000
0000
ENDCHAR
STARTCHAR uni0E0D
ENCODING 3597
SWIDTH 994 0
DWIDTH 14 0
BBX 14 26 0 -6
BITMAP
0000
0000
0000
0000
0000
0000
0000
0000
0000
0000
0F0C
0F0C
30CC
30CC
3CCC
3CCC
C3F0
C3F0
F300
F300
F3F0
F3F0
0000
0000
0000
0000
ENDCHAR
STARTCHAR uni0E0E
ENCODING 3598
SWIDTH 994 0
DWIDTH 14 0
BBX 14 26 0 -6
BITMAP
0000
0000
0000
0000
0000
0000
0000
0000
0000
0000
0FC0
0FC0
3030
3030
0C30
0C30
30C0
30C0
F0C0
F0C0
F3C0
F3C0
3F00
3F00
C300
C300
ENDCHAR
STARTCHAR uni0E0F
ENCODING 3599
SWIDTH 994 0
DWIDTH 14 0
BBX 14 26 0 -6
BITMAP
0000
0000
0000
0000
0000
0000
0000
0000
0000
0000
0FC0
0FC0
3030
3030
0C30
0C30
30C0
30C0
F0C0
F0C0
F3C0
F3C0
CCC0
CCC0
3300
3300
ENDCHAR
STARTCHAR uni0E10
ENCODING 3600
SWIDTH 994 0
DWIDTH 14 0
BBX 14 26 0 -6
BITMAP
0000
0000
0000
0000
0000
0000
0000
0000
0000
0000
0FF0
0FF0
3000
3000
0F00
0F00
3CC0
3CC0
3CC0
3CC0
03C0
03C0
3300
3300
CF00
CF00
ENDCHAR
STARTCHAR uni0E11
ENCODING 3601
SWIDTH 994 0
DWIDTH 14 0
BBX 14 26 0 -6
BITMAP
0000
0000
0000
0000
0000
0000
0000
0000
0000
0000
CCC0
CCC0
FF30
FF30
3C30
3C30
F0C0
F0C0
C0C0
C0C0
C0C0
C0C0
0000
0000
0000
0000
ENDCHAR
STARTCHAR uni0E12
ENCODING 3602
SWIDTH 994 0
DWIDTH 14 0
BBX 14 26 0 -6
BITMAP
0000
0000
0000
0000
0000
0000
0000
0000
0000
0000
30CC
30CC
3FCC
3FCC
30CC
30CC
CF30
CF30
FFF0
FFF0
F330
F330
0000
0000
0000
0000
ENDCHAR
STARTCHAR uni0E13
ENCODING 3603
SWIDTH 994 0
DWIDTH 14 0
BBX 14 26 0 -6
BITMAP
0000
0000
0000
0000
0000
0000
0000
0000
0000
0000
0F0C
0F0C
30CC
30CC
3CCC
3CCC
C330
C330
F3FC
F3FC
F33C
F33C
0000
0000
0000
0000
ENDCHAR
STARTCHAR uni0E14
ENCODING 3604
SWIDTH 994 0
DWIDTH 14 0
BBX 14 26 0 -6
BITMAP
0000
0000
0000
0000
0000
0000
0000
0000
0000
0000
0FC0
0FC0
3030
3030
3C30
3C30
FCC0
FCC0
CCC0
CCC0
30C0
30C0
0000
0000
0000
0000
ENDCHAR
STARTCHAR uni0E15
ENCODING 3605
SWIDTH 994 0
DWIDTH 14 0
BBX 14 26 0 -6
BITMAP
0000
0000
0000
0000
0000
0000
0000
0000
0000
0000
0CC0
0CC0
3330
3330
3C30
3C30
FCC0
FCC0
CCC0
CCC0
3CC0
3CC0
0000
0000
0000
0000
ENDCHAR
STARTCHAR uni0E16
ENCODING 3606
SWIDTH 994 0
DWIDTH 14 0
BBX 14 26 0 -6
BITMAP
0000
0000
0000
0000
0000
0000
0000
0000
0000
0000
3FC0
3FC0
C030
C030
3030
3030
C0C0
C0C0
F0C0
F0C0
F0C0
F0C0
0000
0000
0000
0000
ENDCHAR
STARTCHAR uni0E17
ENCODING 3607
SWIDTH 994 0
DWIDTH 14 0
BBX 14 26 0 -6
BITMAP
0000
0000
0000
0000
0000
0000
0000
0000
0000
0000
F0C0
F0C0
F330
F330
3C30
3C30
F0C0
F0C0
C0C0
C0C0
C0C0
C0C0
0000
0000
0000
0000
ENDCHAR
STARTCHAR uni0E18
ENCODING 3608
SWIDTH 994 0
DWIDTH 14 0
BBX 14 26 0 -6
BITMAP
0000
0000
0000
0000
0000
0000
0000
0000
0000
0000
0FF0
0FF0
3000
3000
0F00
0F00
30C0
30C0
30C0
30C0
0F00
0F00
0000
0000
0000
0000
ENDCHAR
STARTCHAR uni0E19
ENCODING 3609
SWIDTH 994 0
DWIDTH 14 0
BBX 14 26 0 -6
BITMAP
0000
0000
0000
0000
0000
0000
0000
0000
0000
0000
3C30
3C30
3C30
3C30
0C30
0C30
F0C0
F0C0
C3F0
C3F0
3CF0
3CF0
0000
0000
0000
0000
ENDCHAR
STARTCHAR uni0E1A
ENCODING 3610
SWIDTH 994 0
DWIDTH 14 0
BBX 14 26 0 -6
BITMAP
0000
0000
0000
0000
0000
0000
0000
0000
0000
0000
F030
F030
F030
F030
3030
3030
C0C0
C0C0
C0C0
C0C0
3F00
3F00
0000
0000
0000
0000
ENDCHAR
STARTCHAR uni0E1B
ENCODING 3611
SWIDTH 994 0
DWIDTH 14 0
BBX 14 26 0 -6
BITMAP
0000
0000
0000
0000
0000
0000
000C
000C
000C
000C
F030
F030
F030
F030
3030
3030
C0C0
C0C0
C0C0
C0C0
3F00
3F00
0000
0000
0000
0000
ENDCHAR
STARTCHAR uni0E1C
ENCODING 3612
SWIDTH 994 0
DWIDTH 14 0
BBX 14 26 0 -6
BITMAP
0000
0000
0000
0000
0000
0000
0000
0000
0000
0000
3C30
3C30
3C30
3C30
3030
3030
CCC0
CCC0
CCC0
CCC0
3300
3300
0000
0000
0000
0000
ENDCHAR
STARTCHAR uni0E1D
ENCODING 3613
SWIDTH 994 0
DWIDTH 14 0
BBX 14 26 0 -6
BITMAP
0000
0000
0000
0000
0000
0000
000C
000C
000C
000C
3C30
3C30
3C30
3C30
3030
3030
CCC0
CCC0
CCC0
CCC0
3300
3300
0000
0000
0000
0000
ENDCHAR
STARTCHAR uni0E1E
ENCODING 3614
SWIDTH 994 0
DWIDTH 14 0
BBX 14 26 0 -6
BITMAP
0000
0000
0000
0000
0000
0000
0000
0000
0000
0000
F330
F330
F330
F330
3330
3330
CCC0
CCC0
CCC0
CCC0
3300
3300
0000
0000
0000
0000
ENDCHAR
STARTCHAR uni0E1F
ENCODING 3615
SWIDTH 994 0
DWIDTH 14 0
BBX 14 26 0 -6
BITMAP
0000
0000
0000
0000
0000
0000
000C
000C
000C
000C
F330
F330
F330
F330
3330
3330
CCC0
CCC0
CCC0
CCC0
3300
3300
0000
0000
0000
0000
ENDCHAR
STARTCHAR uni0E20
ENCODING 3616
SWIDTH 994 0
DWIDTH 14 0
BBX 14 26 0 -6
BITMAP
0000
0000
0000
0000
0000
0000
0000
0000
0000
0000
0FC0
0FC0
3030
3030
0C30
0C30
30C0
30C0
F0C0
F0C0
F0C0
F0C0
0000
0000
0000
0000
ENDCHAR
STARTCHAR uni0E21
ENCODING 3617
SWIDTH 994 0
DWIDTH 14 0
BBX 14 26 0 -6
BITMAP
0000
0000
0000
0000
0000
0000
0000
0000
0000
0000
3C30
3C30
3C30
3C30
0C30
0C30
30C0
30C0
FCC0
FCC0
F300
F300
0000
0000
0000
0000
ENDCHAR
STARTCHAR uni0E22
ENCODING 3618
SWIDTH 994 0
DWIDTH 14 0
BBX 14 26 0 -6
BITMAP
0000
0000
0000
0000
0000
0000
0000
0000
0000
0000
3C30
3C30
3C30
3C30
3030
3030
3CC0
3CC0
C0C0
C0C0
3F00
3F00
0000
0000
0000
0000
ENDCHAR
STARTCHAR uni0E23
ENCODING 3619
SWIDTH 994 0
DWIDTH 14 0
BBX 14 26 0 -6
BITMAP
0000
0000
0000
0000
0000
0000
0000
0000
0000
0000
0FF0
0FF0
3000
3000
3F00
3F00
00C0
00C0
0F00
0F00
0F00
0F00
0000
0000
0000
0000
ENDCHAR
STARTCHAR uni0E24
ENCODING 3620
SWIDTH 994 0
DWIDTH 14 0
BBX 14 26 0 -6
BITMAP
0000
0000
0000
0000
0000
0000
0000
0000
0000
0000
0FC0
0FC0
3030
3030
0C30
0C30
30C0
30C0
3CC0
3CC0
3CC0
3CC0
0300
0300
0300
0300
ENDCHAR
STARTCHAR uni0E25
ENCODING 3621
SWIDTH 994 0
DWIDTH 14 0
BBX 14 26 0 -6
BITMAP
0000
0000
0000
0000
0000
0000
0000
0000
0000
0000
0FC0
0FC0
3030
3030
0F30
0F30
30C0
30C0
3CC0
3CC0
3CC0
3CC0
0000
0000
0000
0000
ENDCHAR
STARTCHAR uni0E26
ENCODING 3622
SWIDTH 994 0
DWIDTH 14 0
BBX 14 26 0 -6
BITMAP
0000
0000
0000
0000
0000
0000
0000
0000
0000
0000
0FC0
0FC0
3030
3030
0C30
0C30
30C0
30C0
F0C0
F0C0
F0C0
F0C0
0300
0300
0300
0300
ENDCHAR
STARTCHAR uni0E27
ENCODING 3623
SWIDTH 994 0
DWIDTH 14 0
BBX 14 26 0 -6
BITMAP
0000
0000
0000
0000
0000
0000
0000
0000
0000
0000
0FC0
0FC0
3030
3030
0030
0030
00C0
00C0
03C0
03C0
03C0
03C0
0000
0000
0000
0000
ENDCHAR
STARTCHAR uni0E28
ENCODING 3624
SWIDTH 994 0
DWIDTH 14 0
BBX 14 26 0 -6
BITMAP
0000
0000
0000
0000
0000
0000
000C
000C
000C
000C
0FF0
0FF0
3030
3030
3F30
3F30
FF30
FF30
FCC0
FCC0
3CC0
3CC0
0000
0000
0000
0000
ENDCHAR
STARTCHAR uni0E29
ENCODING 3625
SWIDTH 994 0
DWIDTH 14 0
BBX 14 26 0 -6
BITMAP
0000
0000
0000
0000
0000
0000
0000
0000
0000
0000
F030
F030
F030
F030
3C30
3C30
CFC0
CFC0
C0C0
C0C0
3F00
3F00
0000
0000
0000
0000
ENDCHAR
STARTCHAR uni0E2A
ENCODING 3626
SWIDTH 994 0
DWIDTH 14 0
BBX 14 26 0 -6
BITMAP
0000
0000
0000
0000
0000
0000
000C
000C
000C
000C
3FF0
3FF0
C030
C030
3F30
3F30
C0C0
C0C0
F0C0
F0C0
F0C0
F0C0
0000
0000
0000
0000
ENDCHAR
STARTCHAR uni0E2B
ENCODING 3627
SWIDTH 994 0
DWIDTH 14 0
BBX 14 26 0 -6
BITMAP
0000
0000
0000
0000
0000
0000
0000
0000
0000
0000
F0F0
F0F0
F0F0
F0F0
33C0
33C0
CCC0
CCC0
F0C0
F0C0
C0C0
C0C0
0000
0000
0000
0000
ENDCHAR
STARTCHAR uni0E2C
ENCODING 3628
SWIDTH 994 0
DWIDTH 14 0
BBX 14 26 0 -6
BITMAP
0000
0000
0000
0000
0000
0000
0030
0030
0030
0030
F3C0
F3C0
F030
F030
3330
3330
CCC0
CCC0
CCC0
CCC0
3300
3300
0000
0000
0000
0000
ENDCHAR
STARTCHAR uni0E2D
ENCODING 3629
SWIDTH 994 0
DWIDTH 14 0
BBX 14 26 0 -6
BITMAP
0000
0000
0000
0000
0000
0000
0000
0000
0000
0000
3FC0
3FC0
C030
C030
3C30
3C30
FCC0
FCC0
C0C0
C0C0
3F00
3F00
0000
0000
0000
0000
ENDCHAR
STARTCHAR uni0E2E
ENCODING 3630
SWIDTH 994 0
DWIDTH 14 0
BBX 14 26 0 -6
BITMAP
0000
0000
0000
0000
0000
0000
000C
000C
000C
000C
3FF0
3FF0
FF30
FF30
3C30
3C30
FCC0
FCC0
C0C0
C0C0
3F00
3F00
0000
0000
0000
0000
ENDCHAR
STARTCHAR uni0E2F
ENCODING 3631
SWIDTH 994 0
DWIDTH 14 0
BBX 14 26 0 -6
BITMAP
0000
0000
0000
0000
0000
0000
0000
0000
0000
0000
3CF0
3CF0
3F30
3F30
0030
0030
00C0
00C0
00C0
00C0
0F00
0F00
0000
0000
0000
0000
ENDCHAR
STARTCHAR uni0E30
ENCODING 3632
SWIDTH 994 0
DWIDTH 14 0
BBX 14 26 0 -6
BITMAP
0000
0000
0000
0000
0000
0000
0000
0000
0000
0000
0000
0000
0F30
0F30
0FC0
0FC0
0000
0000
3CC0
3CC0
3F00
3F00
0000
0000
0000
0000
ENDCHAR
STARTCHAR uni0E31
ENCODING 3633
SWIDTH 994 0
DWIDTH 14 0
BBX 14 26 0 -6
BITMAP
0000
0000
0000
0000
0C00
0C00
0FFC
0FFC
0000
0000
0000
0000
0000
0000
0000
0000
0000
0000
0000
0000
0000
0000
0000
0000
0000
0000
ENDCHAR
STARTCHAR uni0E32
ENCODING 3634
SWIDTH 994 0
DWIDTH 14 0
BBX 14 26 0 -6
BITMAP
0000
0000
0000
0000
0000
0000
0000
0000
0000
0000
0FC0
0FC0
3030
3030
0030
0030
00C0
00C0
00C0
00C0
00C0
00C0
0000
0000
0000
0000
ENDCHAR
STARTCHAR uni0E33
ENCODING 3635
SWIDTH 994 0
DWIDTH 14 0
BBX 14 26 0 -6
BITMAP
0000
0000
0000
0000
0000
0000
F000
F000
F000
F000
0FC0
0FC0
3030
3030
0030
0030
00C0
00C0
00C0
00C0
00C0
00C0
0000
0000
0000
0000
ENDCHAR
STARTCHAR uni0E34
ENCODING 3636
SWIDTH 994 0
DWIDTH 14 0
BBX 14 26 0 -6
BITMAP
0000
0000
0000
0000
0000
0000
3FFC
3FFC
0000
0000
0000
0000
0000
0000
0000
0000
0000
0000
0000
0000
0000
0000
0000
0000
0000
0000
ENDCHAR
STARTCHAR uni0E35
ENCODING 3637
SWIDTH 994 0
DWIDTH 14 0
BBX 14 26 0 -6
BITMAP
0000
0000
0000
0000
000C
000C
3FFC
3FFC
0000
0000
0000
0000
0000
0000
0000
0000
0000
0000
0000
0000
0000
0000
0000
0000
0000
0000
ENDCHAR
STARTCHAR uni0E36
ENCODING 3638
SWIDTH 994 0
DWIDTH 14 0
BBX 14 26 0 -6
BITMAP
0000
0000
0000
0000
003C
003C
3FFC
3FFC
0000
0000
0000
0000
0000
0000
0000
0000
0000
0000
0000
0000
0000
0000
0000
0000
0000
0000
ENDCHAR
STARTCHAR uni0E37
ENCODING 3639
SWIDTH 994 0
DWIDTH 14 0
BBX 14 26 0 -6
BITMAP
0000
0000
0000
0000
00CC
00CC
3FFC
3FFC
0000
0000
0000
0000
0000
0000
0000
0000
0000
0000
0000
0000
0000
0000
0000
0000
0000
0000
ENDCHAR
STARTCHAR uni0E38
ENCODING 3640
SWIDTH 994 0
DWIDTH 14 0
BBX 14 26 0 -6
BITMAP
0000
0000
0000
0000
0000
0000
0000
0000
0000
0000
0000
0000
0000
0000
0000
0000
0000
0000
0000
0000
0000
0000
03C0
03C0
00C0
00C0
ENDCHAR
STARTCHAR uni0E39
ENCODING 3641
SWIDTH 994 0
DWIDTH 14 0
BBX 14 26 0 -6
BITMAP
0000
0000
0000
0000
0000
0000
0000
0000
0000
0000
0000
0000
0000
0000
0000
0000
0000
0000
0000
0000
0000
0000
3CC0
3CC0
0FC0
0FC0
ENDCHAR
STARTCHAR uni0E3A
ENCODING 3642
SWIDTH 994 0
DWIDTH 14 0
BBX 14 26 0 -6
BITMAP
0000
0000
0000
0000
0000
0000
0000
0000
0000
0000
0000
0000
0000
0000
0000
0000
0000
0000
0000
0000
0000
0000
0F00
0F00
0F00
0F00
ENDCHAR
STARTCHAR uni0E3F
ENCODING 3647
SWIDTH 994 0
DWIDTH 14 0
BBX 14 26 0 -6
BITMAP
0000
0000
0000
0000
0000
0000
00C0
00C0
3FC0
3FC0
3330
3330
3330
3330
3FC0
3FC0
CCC0
CCC0
CCC0
CCC0
FF00
FF00
3000
3000
0000
0000
ENDCHAR
STARTCHAR uni0E40
ENCODING 3648
SWIDTH 994 0
DWIDTH 14 0
BBX 14 26 0 -6
BITMAP
0000
0000
0000
0000
0000
0000
0000
0000
0000
0000
0300
0300
0300
0300
0300
0300
0C00
0C00
0F00
0F00
0F00
0F00
0000
0000
0000
0000
ENDCHAR
STARTCHAR uni0E41
ENCODING 3649
SWIDTH 994 0
DWIDTH 14 0
BBX 14 26 0 -6
BITMAP
0000
0000
0000
0000
0000
0000
0000
0000
0000
0000
0C30
0C30
0C30
0C30
0C30
0C30
30C0
30C0
3CF0
3CF0
3CF0
3CF0
0000
0000
0000
0000
ENDCHAR
STARTCHAR uni0E42
ENCODING 3650
SWIDTH 994 0
DWIDTH 14 0
BBX 14 26 0 -6
BITMAP
0000
0000
0000
0000
0000
0000
3FF0
3FF0
C000
C000
FF00
FF00
0300
0300
0300
0300
0C00
0C00
0F00
0F00
0F00
0F00
0000
0000
0000
0000
ENDCHAR
STARTCHAR uni0E43
ENCODING 3651
SWIDTH 994 0
DWIDTH 14 0
BBX 14 26 0 -6
BITMAP
0000
0000
0000
0000
0000
0000
0FC0
0FC0
3030
3030
CCC0
CCC0
3CC0
3CC0
00C0
00C0
0300
0300
03C0
03C0
03C0
03C0
0000
0000
0000
0000
ENDCHAR
STARTCHAR uni0E44
ENCODING 3652
SWIDTH 994 0
DWIDTH 14 0
BBX 14 26 0 -6
BITMAP
0000
0000
0000
0000
0000
0000
3CF0
3CF0
0330
0330
00C0
00C0
00C0
00C0
00C0
00C0
0300
0300
03C0
03C0
03C0
03C0
0000
0000
0000
0000
ENDCHAR
STARTCHAR uni0E45
ENCODING 3653
SWIDTH 994 0
DWIDTH 14 0
BBX 14 26 0 -6
BITMAP
0000
0000
0000
0000
0000
0000
0000
0000
0000
0000
0FC0
0FC0
3030
3030
0030
0030
00C0
00C0
00C0
00C0
00C0
00C0
0300
0300
0300
0300
ENDCHAR
STARTCHAR uni0E46
ENCODING 3654
SWIDTH 994 0
DWIDTH 14 0
BBX 14 26 0 -6
BITMAP
0000
0000
0000
0000
0000
0000
0000
0000
0000
0000
3F30
3F30
3CF0
3CF0
0030
0030
00C0
00C0
00C0
00C0
00C0
00C0
0300
0300
3C00
3C00
ENDCHAR
STARTCHAR uni0E47
ENCODING 3655
SWIDTH 994 0
DWIDTH 14 0
BBX 14 26 0 -6
BITMAP
000C
000C
0FF0
0FF0
3330
3330
0CF0
0CF0
0000
0000
0000
0000
0000
0000
0000
0000
0000
0000
0000
0000
0000
0000
0000
0000
0000
0000
ENDCHAR
STARTCHAR uni0E48
ENCODING 3656
SWIDTH 994 0
DWIDTH 14 0
BBX 14 26 0 -6
BITMAP
000C
000C
000C
000C
0000
0000
0000
0000
0000
0000
0000
0000
0000
0000
0000
0000
0000
0000
0000
0000
0000
0000
0000
0000
0000
0000
ENDCHAR
STARTCHAR uni0E49
ENCODING 3657
SWIDTH 994 0
DWIDTH 14 0
BBX 14 26 0 -6
BITMAP
03CC
03CC
00F0
00F0
0000
0000
0000
0000
0000
0000
0000
0000
0000
0000
0000
0000
0000
0000
0000
0000
0000
0000
0000
0000
0000
0000
ENDCHAR
STARTCHAR uni0E4A
ENCODING 3658
SWIDTH 994 0
DWIDTH 14 0
BBX 14 26 0 -6
BITMAP
0CCC
0CCC
0FF0
0FF0
0000
0000
0000
0000
0000
0000
0000
0000
0000
0000
0000
0000
0000
0000
0000
0000
0000
0000
0000
0000
0000
0000
ENDCHAR
STARTCHAR uni0E4B
ENCODING 3659
SWIDTH 994 0
DWIDTH 14 0
BBX 14 26 0 -6
BITMAP
0030
0030
00FC
00FC
0030
0030
0000
0000
0000
0000
0000
0000
0000
0000
0000
0000
0000
0000
0000
0000
0000
0000
0000
0000
0000
0000
ENDCHAR
STARTCHAR uni0E4C
ENCODING 3660
SWIDTH 994 0
DWIDTH 14 0
BBX 14 26 0 -6
BITMAP
003C
003C
0030
0030
0000
0000
0000
0000
0000
0000
0000
0000
0000
0000
0000
0000
0000
0000
0000
0000
0000
0000
0000
0000
0000
0000
ENDCHAR
STARTCHAR uni0E4D
ENCODING 3661
SWIDTH 994 0
DWIDTH 14 0
BBX 14 26 0 -6
BITMAP
003C
003C
003C
003C
0000
0000
0000
0000
0000
0000
0000
0000
0000
0000
0000
0000
0000
0000
0000
0000
0000
0000
0000
0000
0000
0000
ENDCHAR
STARTCHAR uni0E4E
ENCODING 3662
SWIDTH 994 0
DWIDTH 14 0
BBX 14 26 0 -6
BITMAP
00FC
00FC
00C0
00C0
0300
0300
03C0
03C0
0000
0000
0000
0000
0000
0000
0000
0000
0000
0000
0000
0000
0000
0000
0000
0000
0000
0000
ENDCHAR
STARTCHAR uni0E4F
ENCODING 3663
SWIDTH 994 0
DWIDTH 14 0
BBX 14 26 0 -6
BITMAP
0000
0000
0000
0000
0000
0000
0000
0000
0000
0000
0000
0000
0FC0
0FC0
3030
3030
CCC0
CCC0
C0C0
C0C0
3F00
3F00
0000
0000
0000
0000
ENDCHAR
STARTCHAR uni0E50
ENCODING 3664
SWIDTH 994 0
DWIDTH 14 0
BBX 14 26 0 -6
BITMAP
0000
0000
0000
0000
0000
0000
0000
0000
0000
0000
0000
0000
0FC0
0FC0
3030
3030
C0C0
C0C0
C0C0
C0C0
3F00
3F00
0000
0000
0000
0000
ENDCHAR
STARTCHAR uni0E51
ENCODING 3665
SWIDTH 994 0
DWIDTH 14 0
BBX 14 26 0 -6
BITMAP
0000
0000
0000
0000
0000
0000
0000
0000
0000
0000
0000
0000
0FC0
0FC0
3330
3330
3F30
3F30
00C0
00C0
3F00
3F00
0000
0000
0000
0000
ENDCHAR
STARTCHAR uni0E52
ENCODING 3666
SWIDTH 994 0
DWIDTH 14 0
BBX 14 26 0 -6
BITMAP
0000
0000
0000
0000
0000
0000
0000
0000
0C00
0C00
0C00
0C00
3330
3330
33F0
33F0
CFC0
CFC0
C0C0
C0C0
3F00
3F00
0000
0000
0000
0000
ENDCHAR
STARTCHAR uni0E53
ENCODING 3667
SWIDTH 994 0
DWIDTH 14 0
BBX 14 26 0 -6
BITMAP
0000
0000
0000
0000
0000
0000
0000
0000
0000
0000
0000
0000
0CC0
0CC0
3330
3330
C030
C030
F0C0
F0C0
F0C0
F0C0
0000
0000
0000
0000
ENDCHAR
STARTCHAR uni0E54
ENCODING 3668
SWIDTH 994 0
DWIDTH 14 0
BBX 14 26 0 -6
BITMAP
0000
0000
0000
0000
0000
0000
0000
0000
0030
0030
0030
0030
0FC0
0FC0
3000
3000
CF00
CF00
CF00
CF00
3FC0
3FC0
0000
0000
0000
0000
ENDCHAR
STARTCHAR uni0E55
ENCODING 3669
SWIDTH 994 0
DWIDTH 14 0
BBX 14 26 0 -6
BITMAP
0000
0000
0000
0000
0000
0000
0000
0000
0030
0030
0F30
0F30
0FC0
0FC0
3000
3000
CF00
CF00
CF00
CF00
3FC0
3FC0
0000
0000
0000
0000
ENDCHAR
STARTCHAR uni0E56
ENCODING 3670
SWIDTH 994 0
DWIDTH 14 0
BBX 14 26 0 -6
BITMAP
0000
0000
0000
0000
0000
0000
0000
0000
0000
0000
3000
3000
0CC0
0CC0
0330
0330
0030
0030
3CC0
3CC0
3F00
3F00
0000
0000
0000
0000
ENDCHAR
STARTCHAR uni0E57
ENCODING 3671
SWIDTH 994 0
DWIDTH 14 0
BBX 14 26 0 -6
BITMAP
0000
0000
0000
0000
0000
0000
0000
0000
000C
000C
000C
000C
3330
3330
3F30
3F30
CCC0
CCC0
CCC0
CCC0
F300
F300
0000
0000
0000
0000
ENDCHAR
STARTCHAR uni0E58
ENCODING 3672
SWIDTH 994 0
DWIDTH 14 0
BBX 14 26 0 -6
BITMAP
0000
0000
0000
0000
0000
0000
0000
0000
0000
0000
0030
0030
0FC0
0FC0
3000
3000
C3C0
C3C0
FCC0
FCC0
3300
3300
0000
0000
0000
0000
ENDCHAR
STARTCHAR uni0E59
ENCODING 3673
SWIDTH 994 0
DWIDTH 14 0
BBX 14 26 0 -6
BITMAP
0000
0000
0000
0000
0000
0000
0000
0000
0030
0030
0030
0030
03C0
03C0
3F00
3F00
CC00
CC00
F300
F300
F0C0
F0C0
0000
0000
0000
0000
ENDCHAR
STARTCHAR uni0E5A
ENCODING 3674
SWIDTH 994 0
DWIDTH 14 0
BBX 14 26 0 -6
BITMAP
0000
0000
0000
0000
0000
0000
0000
0000
0000
0000
3330
3330
3F30
3F30
0330
0330
0CC0
0CC0
0CC0
0CC0
F300
F300
0000
0000
0000
0000
ENDCHAR
STARTCHAR uni0E5B
ENCODING 3675
SWIDTH 994 0
DWIDTH 14 0
BBX 14 26 0 -6
BITMAP
0000
0000
0000
0000
0000
0000
0000
0000
0000
0000
3C00
3C00
3C00
3C00
3330
3330
CFC0
CFC0
CC00
CC00
3000
3000
0000
0000
0000
0000
ENDCHAR
STARTCHAR uni1E02
ENCODING 7682
SWIDTH 994 0
DWIDTH 14 0
BBX 14 26 0 -6
BITMAP
0000
0000
03C0
03C0
0000
0000
3FF0
3FF0
0C0C
0C0C
0C0C
0C0C
0FF0
0FF0
3030
3030
3030
3030
3030
3030
FFC0
FFC0
0000
0000
0000
0000
ENDCHAR
STARTCHAR uni1E03
ENCODING 7683
SWIDTH 994 0
DWIDTH 14 0
BBX 14 26 0 -6
BITMAP
0000
0000
00F0
00F0
3000
3000
3000
3000
3000
3000
33F0
33F0
3C0C
3C0C
300C
300C
C030
C030
F030
F030
CFC0
CFC0
0000
0000
0000
0000
ENDCHAR
STARTCHAR uni1E0A
ENCODING 7690
SWIDTH 994 0
DWIDTH 14 0
BBX 14 26 0 -6
BITMAP
0000
0000
03C0
03C0
0000
0000
3FF0
3FF0
0C0C
0C0C
0C0C
0C0C
0C0C
0C0C
3030
3030
3030
3030
3030
3030
FFC0
FFC0
0000
0000
0000
0000
ENDCHAR
STARTCHAR uni1E0B
ENCODING 7691
SWIDTH 994 0
DWIDTH 14 0
BBX 14 26 0 -6
BITMAP
0000
0000
0F00
0F00
000C
000C
000C
000C
000C
000C
0FCC
0FCC
3030
3030
C030
C030
C030
C030
C0F0
C0F0
3F30
3F30
0000
0000
0000
0000
ENDCHAR
STARTCHAR uni1E0C
ENCODING 7692
SWIDTH 994 0
DWIDTH 14 0
BBX 14 26 0 -6
BITMAP
0000
0000
0000
0000
3FF0
3FF0
0C0C
0C0C
0C0C
0C0C
0C0C
0C0C
0C0C
0C0C
3030
3030
3030
3030
3030
3030
FFC0
FFC0
0000
0000
0F00
0F00
ENDCHAR
STARTCHAR uni1E0D
ENCODING 7693
SWIDTH 994 0
DWIDTH 14 0
BBX 14 26 0 -6
BITMAP
0000
0000
0000
0000
000C
000C
000C
000C
000C
000C
0FCC
0FCC
3030
3030
C030
C030
C030
C030
C0F0
C0F0
3F30
3F30
0000
0000
0F00
0F00
ENDCHAR
STARTCHAR uni1E0E
ENCODING 7694
SWIDTH 994 0
DWIDTH 14 0
BBX 14 26 0 -6
BITMAP
0000
0000
0000
0000
3FF0
3FF0
0C0C
0C0C
0C0C
0C0C
0C0C
0C0C
0C0C
0C0C
3030
3030
3030
3030
3030
3030
FFC0
FFC0
0000
0000
3FC0
3FC0
ENDCHAR
STARTCHAR uni1E0F
ENCODING 7695
SWIDTH 994 0
DWIDTH 14 0
BBX 14 26 0 -6
BITMAP
0000
0000
0000
0000
000C
000C
000C
000C
000C
000C
0FCC
0FCC
3030
3030
C030
C030
C030
C030
C0F0
C0F0
3F30
3F30
0000
0000
3FC0
3FC0
ENDCHAR
STARTCHAR uni1E1E
ENCODING 7710
SWIDTH 994 0
DWIDTH 14 0
BBX 14 26 0 -6
BITMAP
0000
0000
03C0
03C0
0000
0000
3FFC
3FFC
3000
3000
3000
3000
3FC0
3FC0
C000
C000
C000
C000
C000
C000
C000
C000
0000
0000
0000
0000
ENDCHAR
STARTCHAR uni1E1F
ENCODING 7711
SWIDTH 994 0
DWIDTH 14 0
BBX 14 26 0 -6
BITMAP
0000
0000
03C0
03C0
0000
0000
03F0
03F0
0C0C
0C0C
0C00
0C00
0C00
0C00
FF00
FF00
0C00
0C00
3000
3000
3000
3000
0000
0000
0000
0000
ENDCHAR
STARTCHAR uni1E22
ENCODING 7714
SWIDTH 994 0
DWIDTH 14 0
BBX 14 26 0 -6
BITMAP
0000
0000
03C0
03C0
0000
0000
300C
300C
300C
300C
300C
300C
3FF0
3FF0
C030
C030
C030
C030
C030
C030
C030
C030
0000
0000
0000
0000
ENDCHAR
STARTCHAR uni1E23
ENCODING 7715
SWIDTH 994 0
DWIDTH 14 0
BBX 14 26 0 -6
BITMAP
0000
0000
00F0
00F0
3000
3000
3000
3000
3000
3000
33F0
33F0
3C0C
3C0C
300C
300C
C030
C030
C030
C030
C030
C030
0000
0000
0000
0000
ENDCHAR
STARTCHAR uni1E24
ENCODING 7716
SWIDTH 994 0
DWIDTH 14 0
BBX 14 26 0 -6
BITMAP
0000
0000
0000
0000
300C
300C
300C
300C
300C
300C
300C
300C
3FFC
3FFC
300C
300C
C030
C030
C030
C030
C030
C030
0000
0000
0F00
0F00
ENDCHAR
STARTCHAR uni1E25
ENCODING 7717
SWIDTH 994 0
DWIDTH 14 0
BBX 14 26 0 -6
BITMAP
0000
0000
0000
0000
3000
3000
3000
3000
3000
3000
33F0
33F0
3C0C
3C0C
300C
300C
C030
C030
C030
C030
C030
C030
0000
0000
0F00
0F00
ENDCHAR
STARTCHAR uni1E40
ENCODING 7744
SWIDTH 994 0
DWIDTH 14 0
BBX 14 26 0 -6
BITMAP
0000
0000
03C0
03C0
0000
0000
300C
300C
3C3C
3C3C
3C3C
3C3C
33CC
33CC
CF30
CF30
C030
C030
C030
C030
C030
C030
0000
0000
0000
0000
ENDCHAR
STARTCHAR uni1E41
ENCODING 7745
SWIDTH 994 0
DWIDTH 14 0
BBX 14 26 0 -6
BITMAP
0000
0000
0000
0000
0000
0000
0F00
0F00
0000
0000
3CC0
3CC0
3330
3330
3330
3330
CCC0
CCC0
CCC0
CCC0
C0C0
C0C0
0000
0000
0000
0000
ENDCHAR
STARTCHAR uni1E42
ENCODING 7746
SWIDTH 994 0
DWIDTH 14 0
BBX 14 26 0 -6
BITMAP
0000
0000
0000
0000
300C
300C
3C3C
3C3C
3C3C
3C3C
33CC
33CC
33CC
33CC
C030
C030
C030
C030
C030
C030
C030
C030
0000
0000
0F00
0F00
ENDCHAR
STARTCHAR uni1E43
ENCODING 7747
SWIDTH 994 0
DWIDTH 14 0
BBX 14 26 0 -6
BITMAP
0000
0000
0000
0000
0000
0000
0000
0000
0000
0000
3CC0
3CC0
3330
3330
3330
3330
CCC0
CCC0
CCC0
CCC0
C0C0
C0C0
0000
0000
3C00
3C00
ENDCHAR
STARTCHAR uni1E44
ENCODING 7748
SWIDTH 994 0
DWIDTH 14 0
BBX 14 26 0 -6
BITMAP
0000
0000
03C0
03C0
0000
0000
300C
300C
300C
300C
3C0C
3C0C
330C
330C
C330
C330
C0F0
C0F0
C030
C030
C030
C030
0000
0000
0000
0000
ENDCHAR
STARTCHAR uni1E45
ENCODING 7749
SWIDTH 994 0
DWIDTH 14 0
BBX 14 26 0 -6
BITMAP
0000
0000
0000
0000
0000
0000
03C0
03C0
0000
0000
33F0
33F0
3C0C
3C0C
300C
300C
C030
C030
C030
C030
C030
C030
0000
0000
0000
0000
ENDCHAR
STARTCHAR uni1E46
ENCODING 7750
SWIDTH 994 0
DWIDTH 14 0
BBX 14 26 0 -6
BITMAP
0000
0000
0000
0000
300C
300C
300C
300C
3C0C
3C0C
330C
330C
30CC
30CC
C0F0
C0F0
C030
C030
C030
C030
C030
C030
0000
0000
0F00
0F00
ENDCHAR
STARTCHAR uni1E47
ENCODING 7751
SWIDTH 994 0
DWIDTH 14 0
BBX 14 26 0 -6
BITMAP
0000
0000
0000
0000
0000
0000
0000
0000
0000
0000
33F0
33F0
3C0C
3C0C
300C
300C
C030
C030
C030
C030
C030
C030
0000
0000
0F00
0F00
ENDCHAR
STARTCHAR uni1E56
ENCODING 7766
SWIDTH 994 0
DWIDTH 14 0
BBX 14 26 0 -6
BITMAP
0000
0000
03C0
03C0
0000
0000
3FF0
3FF0
300C
300C
300C
300C
300C
300C
3FF0
3FF0
C000
C000
C000
C000
C000
C000
0000
0000
0000
0000
ENDCHAR
STARTCHAR uni1E57
ENCODING 7767
SWIDTH 994 0
DWIDTH 14 0
BBX 14 26 0 -6
BITMAP
0000
0000
0000
0000
0000
0000
03C0
03C0
0000
0000
33F0
33F0
3C0C
3C0C
C030
C030
F030
F030
CFC0
CFC0
C000
C000
C000
C000
C000
C000
ENDCHAR
STARTCHAR uni1E58
ENCODING 7768
SWIDTH 994 0
DWIDTH 14 0
BBX 14 26 0 -6
BITMAP
0000
0000
03C0
03C0
0000
0000
3FF0
3FF0
300C
300C
300C
300C
3FF0
3FF0
CC00
CC00
C300
C300
C0C0
C0C0
C030
C030
0000
0000
0000
0000
ENDCHAR
STARTCHAR uni1E59
ENCODING 7769
SWIDTH 994 0
DWIDTH 14 0
BBX 14 26 0 -6
BITMAP
0000
0000
0000
0000
0000
0000
0F00
0F00
0000
0000
CFC0
CFC0
3030
3030
3000
3000
C000
C000
C000
C000
C000
C000
0000
0000
0000
0000
ENDCHAR
STARTCHAR uni1E60
ENCODING 7776
SWIDTH 994 0
DWIDTH 14 0
BBX 14 26 0 -6
BITMAP
0000
0000
03C0
03C0
0000
0000
0FF0
0FF0
300C
300C
3000
3000
0FC0
0FC0
0030
0030
0030
0030
C030
C030
3FC0
3FC0
0000
0000
0000
0000
ENDCHAR
STARTCHAR uni1E61
ENCODING 7777
SWIDTH 994 0
DWIDTH 14 0
BBX 14 26 0 -6
BITMAP
0000
0000
0000
0000
0000
0000
03C0
03C0
0000
0000
0FF0
0FF0
300C
300C
0C00
0C00
03C0
03C0
C030
C030
3FC0
3FC0
0000
0000
0000
0000
ENDCHAR
STARTCHAR uni1E62
ENCODING 7778
SWIDTH 994 0
DWIDTH 14 0
BBX 14 26 0 -6
BITMAP
0000
0000
0000
0000
0FF0
0FF0
300C
300C
3000
3000
3000
3000
0FC0
0FC0
0030
0030
0030
0030
C030
C030
3FC0
3FC0
0000
0000
0F00
0F00
ENDCHAR
STARTCHAR uni1E63
ENCODING 7779
SWIDTH 994 0
DWIDTH 14 0
BBX 14 26 0 -6
BITMAP
0000
0000
0000
0000
0000
0000
0000
0000
0000
0000
0FF0
0FF0
300C
300C
0C00
0C00
03C0
03C0
C030
C030
3FC0
3FC0
0000
0000
0F00
0F00
ENDCHAR
STARTCHAR uni1E6A
ENCODING 7786
SWIDTH 994 0
DWIDTH 14 0
BBX 14 26 0 -6
BITMAP
0000
0000
0F00
0F00
0000
0000
3FF0
3FF0
0300
0300
0300
0300
0300
0300
0C00
0C00
0C00
0C00
0C00
0C00
0C00
0C00
0000
0000
0000
0000
ENDCHAR
STARTCHAR uni1E6B
ENCODING 7787
SWIDTH 994 0
DWIDTH 14 0
BBX 14 26 0 -6
BITMAP
0000
0000
0F00
0F00
0000
0000
0C00
0C00
0C00
0C00
3FC0
3FC0
0C00
0C00
3000
3000
3000
3000
3030
3030
0FC0
0FC0
0000
0000
0000
0000
ENDCHAR
STARTCHAR Wgrave
ENCODING 7808
SWIDTH 994 0
DWIDTH 14 0
BBX 14 26 0 -6
BITMAP
0000
0000
0300
0300
00C0
00C0
300C
300C
300C
300C
300C
300C
33CC
33CC
CF30
CF30
F0F0
F0F0
F0F0
F0F0
C030
C030
0000
0000
0000
0000
ENDCHAR
STARTCHAR wgrave
ENCODING 7809
SWIDTH 994 0
DWIDTH 14 0
BBX 14 26 0 -6
BITMAP
0000
0000
0000
0000
0C00
0C00
0300
0300
0000
0000
3030
3030
3030
3030
3330
3330
CCC0
CCC0
CCC0
CCC0
3300
3300
0000
0000
0000
0000
ENDCHAR
STARTCHAR Wacute
ENCODING 7810
SWIDTH 994 0
DWIDTH 14 0
BBX 14 26 0 -6
BITMAP
0000
0000
00C0
00C0
0300
0300
300C
300C
300C
300C
300C
300C
33CC
33CC
CF30
CF30
F0F0
F0F0
F0F0
F0F0
C030
C030
0000
0000
0000
0000
ENDCHAR
STARTCHAR wacute
ENCODING 7811
SWIDTH 994 0
DWIDTH 14 0
BBX 14 26 0 -6
BITMAP
0000
0000
0000
0000
00C0
00C0
0300
0300
0000
0000
3030
3030
3030
3030
3330
3330
CCC0
CCC0
CCC0
CCC0
3300
3300
0000
0000
0000
0000
ENDCHAR
STARTCHAR Wdieresis
ENCODING 7812
SWIDTH 994 0
DWIDTH 14 0
BBX 14 26 0 -6
BITMAP
0000
0000
0C30
0C30
0000
0000
300C
300C
300C
300C
300C
300C
33CC
33CC
CF30
CF30
F0F0
F0F0
F0F0
F0F0
C030
C030
0000
0000
0000
0000
ENDCHAR
STARTCHAR wdieresis
ENCODING 7813
SWIDTH 994 0
DWIDTH 14 0
BBX 14 26 0 -6
BITMAP
0000
0000
0000
0000
0000
0000
0CC0
0CC0
0000
0000
3030
3030
3030
3030
3330
3330
CCC0
CCC0
CCC0
CCC0
3300
3300
0000
0000
0000
0000
ENDCHAR
STARTCHAR Ygrave
ENCODING 7922
SWIDTH 994 0
DWIDTH 14 0
BBX 14 26 0 -6
BITMAP
0000
0000
0C00
0C00
0300
0300
0000
0000
3030
3030
3030
3030
0CC0
0CC0
0300
0300
0300
0300
0C00
0C00
0C00
0C00
0000
0000
0000
0000
ENDCHAR
STARTCHAR ygrave
ENCODING 7923
SWIDTH 994 0
DWIDTH 14 0
BBX 14 26 0 -6
BITMAP
0000
0000
0000
0000
0300
0300
00C0
00C0
0000
0000
300C
300C
300C
300C
C030
C030
C0F0
C0F0
3F30
3F30
0030
0030
C030
C030
3FC0
3FC0
ENDCHAR
STARTCHAR uni2000
ENCODING 8192
SWIDTH 994 0
DWIDTH 14 0
BBX 14 26 0 -6
BITMAP
0000
0000
0000
0000
0000
0000
0000
0000
0000
0000
0000
0000
0000
0000
0000
0000
0000
0000
0000
0000
0000
0000
0000
0000
0000
0000
ENDCHAR
STARTCHAR uni2001
ENCODING 8193
SWIDTH 994 0
DWIDTH 14 0
BBX 14 26 0 -6
BITMAP
0000
0000
0000
0000
0000
0000
0000
0000
0000
0000
0000
0000
0000
0000
0000
0000
0000
0000
0000
0000
0000
0000
0000
0000
0000
0000
ENDCHAR
STARTCHAR uni2002
ENCODING 8194
SWIDTH 994 0
DWIDTH 14 0
BBX 14 26 0 -6
BITMAP
0000
0000
0000
0000
0000
0000
0000
0000
0000
0000
0000
0000
0000
0000
0000
0000
0000
0000
0000
0000
0000
0000
0000
0000
0000
0000
ENDCHAR
STARTCHAR uni2003
ENCODING 8195
SWIDTH 994 0
DWIDTH 14 0
BBX 14 26 0 -6
BITMAP
0000
0000
0000
0000
0000
0000
0000
0000
0000
0000
0000
0000
0000
0000
0000
0000
0000
0000
0000
0000
0000
0000
0000
0000
0000
0000
ENDCHAR
STARTCHAR uni2004
ENCODING 8196
SWIDTH 994 0
DWIDTH 14 0
BBX 14 26 0 -6
BITMAP
0000
0000
0000
0000
0000
0000
0000
0000
0000
0000
0000
0000
0000
0000
0000
0000
0000
0000
0000
0000
0000
0000
0000
0000
0000
0000
ENDCHAR
STARTCHAR uni2005
ENCODING 8197
SWIDTH 994 0
DWIDTH 14 0
BBX 14 26 0 -6
BITMAP
0000
0000
0000
0000
0000
0000
0000
0000
0000
0000
0000
0000
0000
0000
0000
0000
0000
0000
0000
0000
0000
0000
0000
0000
0000
0000
ENDCHAR
STARTCHAR uni2006
ENCODING 8198
SWIDTH 994 0
DWIDTH 14 0
BBX 14 26 0 -6
BITMAP
0000
0000
0000
0000
0000
0000
0000
0000
0000
0000
0000
0000
0000
0000
0000
0000
0000
0000
0000
0000
0000
0000
0000
0000
0000
0000
ENDCHAR
STARTCHAR uni2007
ENCODING 8199
SWIDTH 994 0
DWIDTH 14 0
BBX 14 26 0 -6
BITMAP
0000
0000
0000
0000
0000
0000
0000
0000
0000
0000
0000
0000
0000
0000
0000
0000
0000
0000
0000
0000
0000
0000
0000
0000
0000
0000
ENDCHAR
STARTCHAR uni2008
ENCODING 8200
SWIDTH 994 0
DWIDTH 14 0
BBX 14 26 0 -6
BITMAP
0000
0000
0000
0000
0000
0000
0000
0000
0000
0000
0000
0000
0000
0000
0000
0000
0000
0000
0000
0000
0000
0000
0000
0000
0000
0000
ENDCHAR
STARTCHAR uni2009
ENCODING 8201
SWIDTH 994 0
DWIDTH 14 0
BBX 14 26 0 -6
BITMAP
0000
0000
0000
0000
0000
0000
0000
0000
0000
0000
0000
0000
0000
0000
0000
0000
0000
0000
0000
0000
0000
0000
0000
0000
0000
0000
ENDCHAR
STARTCHAR uni200A
ENCODING 8202
SWIDTH 994 0
DWIDTH 14 0
BBX 14 26 0 -6
BITMAP
0000
0000
0000
0000
0000
0000
0000
0000
0000
0000
0000
0000
0000
0000
0000
0000
0000
0000
0000
0000
0000
0000
0000
0000
0000
0000
ENDCHAR
STARTCHAR uni2010
ENCODING 8208
SWIDTH 994 0
DWIDTH 14 0
BBX 14 26 0 -6
BITMAP
0000
0000
0000
0000
0000
0000
0000
0000
0000
0000
0000
0000
3FC0
3FC0
0000
0000
0000
0000
0000
0000
0000
0000
0000
0000
0000
0000
ENDCHAR
STARTCHAR uni2011
ENCODING 8209
SWIDTH 994 0
DWIDTH 14 0
BBX 14 26 0 -6
BITMAP
0000
0000
0000
0000
0000
0000
0000
0000
0000
0000
0000
0000
3FC0
3FC0
0000
0000
0000
0000
0000
0000
0000
0000
0000
0000
0000
0000
ENDCHAR
STARTCHAR figuredash
ENCODING 8210
SWIDTH 994 0
DWIDTH 14 0
BBX 14 26 0 -6
BITMAP
0000
0000
0000
0000
0000
0000
0000
0000
0000
0000
0000
0000
3FF0
3FF0
0000
0000
0000
0000
0000
0000
0000
0000
0000
0000
0000
0000
ENDCHAR
STARTCHAR endash
ENCODING 8211
SWIDTH 994 0
DWIDTH 14 0
BBX 14 26 0 -6
BITMAP
0000
0000
0000
0000
0000
0000
0000
0000
0000
0000
0000
0000
FFF0
FFF0
0000
0000
0000
0000
0000
0000
0000
0000
0000
0000
0000
0000
ENDCHAR
STARTCHAR emdash
ENCODING 8212
SWIDTH 994 0
DWIDTH 14 0
BBX 14 26 0 -6
BITMAP
0000
0000
0000
0000
0000
0000
0000
0000
0000
0000
0000
0000
FFFC
FFFC
0000
0000
0000
0000
0000
0000
0000
0000
0000
0000
0000
0000
ENDCHAR
STARTCHAR afii00208
ENCODING 8213
SWIDTH 994 0
DWIDTH 14 0
BBX 14 26 0 -6
BITMAP
0000
0000
0000
0000
0000
0000
0000
0000
0000
0000
0000
0000
FFFC
FFFC
0000
0000
0000
0000
0000
0000
0000
0000
0000
0000
0000
0000
ENDCHAR
STARTCHAR uni2016
ENCODING 8214
SWIDTH 994 0
DWIDTH 14 0
BBX 14 26 0 -6
BITMAP
0000
0000
0000
0000
0CC0
0CC0
0CC0
0CC0
0CC0
0CC0
0CC0
0CC0
0CC0
0CC0
3300
3300
3300
3300
3300
3300
3300
3300
0000
0000
0000
0000
ENDCHAR
STARTCHAR underscoredbl
ENCODING 8215
SWIDTH 994 0
DWIDTH 14 0
BBX 14 26 0 -6
BITMAP
0000
0000
0000
0000
0000
0000
0000
0000
0000
0000
0000
0000
0000
0000
0000
0000
0000
0000
0000
0000
FFFC
FFFC
0000
0000
FFFC
FFFC
ENDCHAR
STARTCHAR quoteleft
ENCODING 8216
SWIDTH 994 0
DWIDTH 14 0
BBX 14 26 0 -6
BITMAP
0000
0000
00C0
00C0
0300
0300
03C0
03C0
03C0
03C0
0000
0000
0000
0000
0000
0000
0000
0000
0000
0000
0000
0000
0000
0000
0000
0000
ENDCHAR
STARTCHAR quoteright
ENCODING 8217
SWIDTH 994 0
DWIDTH 14 0
BBX 14 26 0 -6
BITMAP
0000
0000
03C0
03C0
03C0
03C0
00C0
00C0
0300
0300
0000
0000
0000
0000
0000
0000
0000
0000
0000
0000
0000
0000
0000
0000
0000
0000
ENDCHAR
STARTCHAR quotesinglbase
ENCODING 8218
SWIDTH 994 0
DWIDTH 14 0
BBX 14 26 0 -6
BITMAP
0000
0000
0000
0000
0000
0000
0000
0000
0000
0000
0000
0000
0000
0000
0000
0000
0F00
0F00
0F00
0F00
0300
0300
0C00
0C00
0000
0000
ENDCHAR
STARTCHAR quotereversed
ENCODING 8219
SWIDTH 994 0
DWIDTH 14 0
BBX 14 26 0 -6
BITMAP
0000
0000
03C0
03C0
03C0
03C0
0300
0300
00C0
00C0
0000
0000
0000
0000
0000
0000
0000
0000
0000
0000
0000
0000
0000
0000
0000
0000
ENDCHAR
STARTCHAR quotedblleft
ENCODING 8220
SWIDTH 994 0
DWIDTH 14 0
BBX 14 26 0 -6
BITMAP
0000
0000
0C30
0C30
30C0
30C0
3CF0
3CF0
3CF0
3CF0
0000
0000
0000
0000
0000
0000
0000
0000
0000
0000
0000
0000
0000
0000
0000
0000
ENDCHAR
STARTCHAR quotedblright
ENCODING 8221
SWIDTH 994 0
DWIDTH 14 0
BBX 14 26 0 -6
BITMAP
0000
0000
3CF0
3CF0
3CF0
3CF0
0C30
0C30
30C0
30C0
0000
0000
0000
0000
0000
0000
0000
0000
0000
0000
0000
0000
0000
0000
0000
0000
ENDCHAR
STARTCHAR quotedblbase
ENCODING 8222
SWIDTH 994 0
DWIDTH 14 0
BBX 14 26 0 -6
BITMAP
0000
0000
0000
0000
0000
0000
0000
0000
0000
0000
0000
0000
0000
0000
0000
0000
3CF0
3CF0
3CF0
3CF0
0C30
0C30
30C0
30C0
0000
0000
ENDCHAR
STARTCHAR uni201F
ENCODING 8223
SWIDTH 994 0
DWIDTH 14 0
BBX 14 26 0 -6
BITMAP
0000
0000
3CF0
3CF0
3CF0
3CF0
30C0
30C0
0C30
0C30
0000
0000
0000
0000
0000
0000
0000
0000
0000
0000
0000
0000
0000
0000
0000
0000
ENDCHAR
STARTCHAR dagger
ENCODING 8224
SWIDTH 994 0
DWIDTH 14 0
BBX 14 26 0 -6
BITMAP
0000
0000
0000
0000
0300
0300
0300
0300
3FF0
3FF0
0300
0300
0300
0300
0C00
0C00
0C00
0C00
0C00
0C00
0C00
0C00
0000
0000
0000
0000
ENDCHAR
STARTCHAR daggerdbl
ENCODING 8225
SWIDTH 994 0
DWIDTH 14 0
BBX 14 26 0 -6
BITMAP
0000
0000
0000
0000
0300
0300
0300
0300
3FF0
3FF0
0300
0300
0300
0300
0C00
0C00
FFC0
FFC0
0C00
0C00
0C00
0C00
0000
0000
0000
0000
ENDCHAR
STARTCHAR bullet
ENCODING 8226
SWIDTH 994 0
DWIDTH 14 0
BBX 14 26 0 -6
BITMAP
0000
0000
0000
0000
0000
0000
0000
0000
0000
0000
0FC0
0FC0
3FF0
3FF0
FFC0
FFC0
FFC0
FFC0
3F00
3F00
0000
0000
0000
0000
0000
0000
ENDCHAR
STARTCHAR uni2023
ENCODING 8227
SWIDTH 994 0
DWIDTH 14 0
BBX 14 26 0 -6
BITMAP
0000
0000
0000
0000
0000
0000
0C00
0C00
0F00
0F00
0FC0
0FC0
0FF0
0FF0
3F00
3F00
3C00
3C00
3000
3000
0000
0000
0000
0000
0000
0000
ENDCHAR
STARTCHAR onedotenleader
ENCODING 8228
SWIDTH 994 0
DWIDTH 14 0
BBX 14 26 0 -6
BITMAP
0000
0000
0000
0000
0000
0000
0000
0000
0000
0000
0000
0000
0000
0000
0000
0000
0000
0000
0000
0000
0300
0300
0000
0000
0000
0000
ENDCHAR
STARTCHAR twodotenleader
ENCODING 8229
SWIDTH 994 0
DWIDTH 14 0
BBX 14 26 0 -6
BITMAP
0000
0000
0000
0000
0000
0000
0000
0000
0000
0000
0000
0000
0000
0000
0000
0000
0000
0000
0000
0000
30C0
30C0
0000
0000
0000
0000
ENDCHAR
STARTCHAR ellipsis
ENCODING 8230
SWIDTH 994 0
DWIDTH 14 0
BBX 14 26 0 -6
BITMAP
0000
0000
0000
0000
0000
0000
0000
0000
0000
0000
0000
0000
0000
0000
0000
0000
0000
0000
0000
0000
3330
3330
0000
0000
0000
0000
ENDCHAR
STARTCHAR uni2027
ENCODING 8231
SWIDTH 994 0
DWIDTH 14 0
BBX 14 26 0 -6
BITMAP
0000
0000
0000
0000
0000
0000
0000
0000
0000
0000
0000
0000
0F00
0F00
0000
0000
0000
0000
0000
0000
0000
0000
0000
0000
0000
0000
ENDCHAR
STARTCHAR uni202F
ENCODING 8239
SWIDTH 994 0
DWIDTH 14 0
BBX 14 26 0 -6
BITMAP
0000
0000
0000
0000
0000
0000
0000
0000
0000
0000
0000
0000
0000
0000
0000
0000
0000
0000
0000
0000
0000
0000
0000
0000
0000
0000
ENDCHAR
STARTCHAR perthousand
ENCODING 8240
SWIDTH 994 0
DWIDTH 14 0
BBX 14 26 0 -6
BITMAP
0000
0000
0000
0000
0C0C
0C0C
330C
330C
0C30
0C30
00C0
00C0
0300
0300
0C00
0C00
3330
3330
CCCC
CCCC
C330
C330
0000
0000
0000
0000
ENDCHAR
STARTCHAR uni2031
ENCODING 8241
SWIDTH 994 0
DWIDTH 14 0
BBX 14 26 0 -6
BITMAP
0000
0000
0000
0000
0C0C
0C0C
330C
330C
0C30
0C30
00C0
00C0
0300
0300
0C30
0C30
3CCC
3CCC
F330
F330
CCC0
CCC0
0000
0000
0000
0000
ENDCHAR
STARTCHAR minute
ENCODING 8242
SWIDTH 994 0
DWIDTH 14 0
BBX 14 26 0 -6
BITMAP
0000
0000
0300
0300
0300
0300
0C00
0C00
0000
0000
0000
0000
0000
0000
0000
0000
0000
0000
0000
0000
0000
0000
0000
0000
0000
0000
ENDCHAR
STARTCHAR second
ENCODING 8243
SWIDTH 994 0
DWIDTH 14 0
BBX 14 26 0 -6
BITMAP
0000
0000
0C30
0C30
0C30
0C30
30C0
30C0
0000
0000
0000
0000
0000
0000
0000
0000
0000
0000
0000
0000
0000
0000
0000
0000
0000
0000
ENDCHAR
STARTCHAR uni2034
ENCODING 8244
SWIDTH 994 0
DWIDTH 14 0
BBX 14 26 0 -6
BITMAP
0000
0000
3330
3330
3330
3330
CCC0
CCC0
0000
0000
0000
0000
0000
0000
0000
0000
0000
0000
0000
0000
0000
0000
0000
0000
0000
0000
ENDCHAR
STARTCHAR uni2035
ENCODING 8245
SWIDTH 994 0
DWIDTH 14 0
BBX 14 26 0 -6
BITMAP
0000
0000
0C00
0C00
0C00
0C00
0300
0300
0000
0000
0000
0000
0000
0000
0000
0000
0000
0000
0000
0000
0000
0000
0000
0000
0000
0000
ENDCHAR
STARTCHAR uni2036
ENCODING 8246
SWIDTH 994 0
DWIDTH 14 0
BBX 14 26 0 -6
BITMAP
0000
0000
30C0
30C0
30C0
30C0
0C30
0C30
0000
0000
0000
0000
0000
0000
0000
0000
0000
0000
0000
0000
0000
0000
0000
0000
0000
0000
ENDCHAR
STARTCHAR uni2037
ENCODING 8247
SWIDTH 994 0
DWIDTH 14 0
BBX 14 26 0 -6
BITMAP
0000
0000
CCC0
CCC0
CCC0
CCC0
3330
3330
0000
0000
0000
0000
0000
0000
0000
0000
0000
0000
0000
0000
0000
0000
0000
0000
0000
0000
ENDCHAR
STARTCHAR uni2038
ENCODING 8248
SWIDTH 994 0
DWIDTH 14 0
BBX 14 26 0 -6
BITMAP
0000
0000
0000
0000
0000
0000
0000
0000
0000
0000
0000
0000
0000
0000
0000
0000
0000
0000
0000
0000
0000
0000
0300
0300
0CC0
0CC0
ENDCHAR
STARTCHAR guilsinglleft
ENCODING 8249
SWIDTH 994 0
DWIDTH 14 0
BBX 14 26 0 -6
BITMAP
0000
0000
0000
0000
0000
0000
0000
0000
0030
0030
00C0
00C0
0300
0300
0C00
0C00
0C00
0C00
0300
0300
00C0
00C0
0000
0000
0000
0000
ENDCHAR
STARTCHAR guilsinglright
ENCODING 8250
SWIDTH 994 0
DWIDTH 14 0
BBX 14 26 0 -6
BITMAP
0000
0000
0000
0000
0000
0000
0000
0000
0C00
0C00
0300
0300
00C0
00C0
00C0
00C0
0300
0300
0C00
0C00
3000
3000
0000
0000
0000
0000
ENDCHAR
STARTCHAR exclamdbl
ENCODING 8252
SWIDTH 994 0
DWIDTH 14 0
BBX 14 26 0 -6
BITMAP
0000
0000
0000
0000
0CC0
0CC0
0CC0
0CC0
0CC0
0CC0
0CC0
0CC0
3300
3300
3300
3300
3300
3300
0000
0000
3300
3300
0000
0000
0000
0000
ENDCHAR
STARTCHAR uni203D
ENCODING 8253
SWIDTH 994 0
DWIDTH 14 0
BBX 14 26 0 -6
BITMAP
0000
0000
0000
0000
3FC0
3FC0
C330
C330
C330
C330
0330
0330
03C0
03C0
0C00
0C00
0C00
0C00
0000
0000
0C00
0C00
0000
0000
0000
0000
ENDCHAR
STARTCHAR uni203E
ENCODING 8254
SWIDTH 994 0
DWIDTH 14 0
BBX 14 26 0 -6
BITMAP
FFFC
FFFC
0000
0000
0000
0000
0000
0000
0000
0000
0000
0000
0000
0000
0000
0000
0000
0000
0000
0000
0000
0000
0000
0000
0000
0000
ENDCHAR
STARTCHAR uni203F
ENCODING 8255
SWIDTH 994 0
DWIDTH 14 0
BBX 14 26 0 -6
BITMAP
0000
0000
0000
0000
0000
0000
0000
0000
0000
0000
0000
0000
0000
0000
0000
0000
0000
0000
0000
0000
C030
C030
3FC0
3FC0
0000
0000
ENDCHAR
STARTCHAR uni2040
ENCODING 8256
SWIDTH 994 0
DWIDTH 14 0
BBX 14 26 0 -6
BITMAP
0000
0000
3FC0
3FC0
C030
C030
0000
0000
0000
0000
0000
0000
0000
0000
0000
0000
0000
0000
0000
0000
0000
0000
0000
0000
0000
0000
ENDCHAR
STARTCHAR uni2042
ENCODING 8258
SWIDTH 994 0
DWIDTH 14 0
BBX 14 26 0 -6
BITMAP
0000
0000
0000
0000
0000
0000
0000
0000
00C0
00C0
03F0
03F0
00C0
00C0
0000
0000
3030
3030
FCFC
FCFC
3030
3030
0000
0000
0000
0000
ENDCHAR
STARTCHAR uni2043
ENCODING 8259
SWIDTH 994 0
DWIDTH 14 0
BBX 14 26 0 -6
BITMAP
0000
0000
0000
0000
0000
0000
0000
0000
0000
0000
0000
0000
0FF0
0FF0
3FC0
3FC0
0000
0000
0000
0000
0000
0000
0000
0000
0000
0000
ENDCHAR
STARTCHAR fraction
ENCODING 8260
SWIDTH 994 0
DWIDTH 14 0
BBX 14 26 0 -6
BITMAP
0000
0000
0000
0000
0030
0030
0030
0030
00C0
00C0
0300
0300
0300
0300
0C00
0C00
3000
3000
C000
C000
C000
C000
0000
0000
0000
0000
ENDCHAR
STARTCHAR uni2045
ENCODING 8261
SWIDTH 994 0
DWIDTH 14 0
BBX 14 26 0 -6
BITMAP
0000
0000
0FF0
0FF0
0C00
0C00
0C00
0C00
0C00
0C00
0C00
0C00
0FF0
0FF0
3000
3000
3000
3000
3000
3000
3000
3000
3FC0
3FC0
0000
0000
ENDCHAR
STARTCHAR uni2046
ENCODING 8262
SWIDTH 994 0
DWIDTH 14 0
BBX 14 26 0 -6
BITMAP
0000
0000
0FF0
0FF0
0030
0030
0030
0030
0030
0030
0030
0030
0FC0
0FC0
00C0
00C0
00C0
00C0
00C0
00C0
00C0
00C0
3FC0
3FC0
0000
0000
ENDCHAR
STARTCHAR uni2048
ENCODING 8264
SWIDTH 994 0
DWIDTH 14 0
BBX 14 26 0 -6
BITMAP
0000
0000
0000
0000
3C30
3C30
C330
C330
0330
0330
0C30
0C30
30C0
30C0
C0C0
C0C0
C0C0
C0C0
0000
0000
C0C0
C0C0
0000
0000
0000
0000
ENDCHAR
STARTCHAR uni2049
ENCODING 8265
SWIDTH 994 0
DWIDTH 14 0
BBX 14 26 0 -6
BITMAP
0000
0000
0000
0000
30F0
30F0
330C
330C
300C
300C
3030
3030
C0C0
C0C0
C300
C300
C300
C300
0000
0000
C300
C300
0000
0000
0000
0000
ENDCHAR
STARTCHAR uni204A
ENCODING 8266
SWIDTH 994 0
DWIDTH 14 0
BBX 14 26 0 -6
BITMAP
0000
0000
0000
0000
0000
0000
0000
0000
0000
0000
0000
0000
3FF0
3FF0
00C0
00C0
0300
0300
0300
0300
0300
0300
0000
0000
0000
0000
ENDCHAR
STARTCHAR uni204B
ENCODING 8267
SWIDTH 994 0
DWIDTH 14 0
BBX 14 26 0 -6
BITMAP
0000
0000
0000
0000
FFC0
FFC0
33F0
33F0
33F0
33F0
33F0
33F0
33C0
33C0
CC00
CC00
CC00
CC00
CC00
CC00
CC00
CC00
0000
0000
0000
0000
ENDCHAR
STARTCHAR uni204C
ENCODING 8268
SWIDTH 994 0
DWIDTH 14 0
BBX 14 26 0 -6
BITMAP
0000
0000
0000
0000
0000
0000
0000
0000
0FFC
0FFC
3FCC
3FCC
3FCC
3FCC
FF30
FF30
FF30
FF30
3FF0
3FF0
0000
0000
0000
0000
0000
0000
ENDCHAR
STARTCHAR uni204D
ENCODING 8269
SWIDTH 994 0
DWIDTH 14 0
BBX 14 26 0 -6
BITMAP
0000
0000
0000
0000
0000
0000
0000
0000
3FF0
3FF0
33FC
33FC
33FC
33FC
CFF0
CFF0
CFF0
CFF0
FFC0
FFC0
0000
0000
0000
0000
0000
0000
ENDCHAR
STARTCHAR uni20A8
ENCODING 8360
SWIDTH 994 0
DWIDTH 14 0
BBX 14 26 0 -6
BITMAP
0000
0000
0000
0000
3C00
3C00
3300
3300
3300
3300
333C
333C
3CC0
3CC0
CCC0
CCC0
CC30
CC30
CC30
CC30
CFC0
CFC0
0000
0000
0000
0000
ENDCHAR
STARTCHAR Euro
ENCODING 8364
SWIDTH 994 0
DWIDTH 14 0
BBX 14 26 0 -6
BITMAP
0000
0000
0000
0000
03F0
03F0
0C0C
0C0C
0C00
0C00
3FC0
3FC0
0C00
0C00
FF00
FF00
3000
3000
3030
3030
0FC0
0FC0
0000
0000
0000
0000
ENDCHAR
STARTCHAR uni2102
ENCODING 8450
SWIDTH 994 0
DWIDTH 14 0
BBX 14 26 0 -6
BITMAP
0000
0000
0000
0000
0FF0
0FF0
330C
330C
3300
3300
3300
3300
3300
3300
CC00
CC00
CC00
CC00
CC30
CC30
3FC0
3FC0
0000
0000
0000
0000
ENDCHAR
STARTCHAR uni2103
ENCODING 8451
SWIDTH 994 0
DWIDTH 14 0
BBX 14 26 0 -6
BITMAP
3000
3000
CC00
CC00
3000
3000
03C0
03C0
0C30
0C30
0C00
0C00
0C00
0C00
3000
3000
3000
3000
30C0
30C0
0F00
0F00
0000
0000
0000
0000
ENDCHAR
STARTCHAR uni2104
ENCODING 8452
SWIDTH 994 0
DWIDTH 14 0
BBX 14 26 0 -6
BITMAP
0000
0000
0000
0000
00C0
00C0
00C0
00C0
03F0
03F0
0CC0
0CC0
0CC0
0CC0
3300
3300
0FC0
0FC0
0300
0300
03F0
03F0
0000
0000
0000
0000
ENDCHAR
STARTCHAR uni2109
ENCODING 8457
SWIDTH 994 0
DWIDTH 14 0
BBX 14 26 0 -6
BITMAP
3000
3000
CC00
CC00
3000
3000
0FF0
0FF0
0C00
0C00
0C00
0C00
0FC0
0FC0
3000
3000
3000
3000
3000
3000
3000
3000
0000
0000
0000
0000
ENDCHAR
STARTCHAR uni210D
ENCODING 8461
SWIDTH 994 0
DWIDTH 14 0
BBX 14 26 0 -6
BITMAP
0000
0000
0000
0000
330C
330C
330C
330C
330C
330C
330C
330C
33F0
33F0
CC30
CC30
CC30
CC30
CC30
CC30
CC30
CC30
0000
0000
0000
0000
ENDCHAR
STARTCHAR uni210E
ENCODING 8462
SWIDTH 994 0
DWIDTH 14 0
BBX 14 26 0 -6
BITMAP
0000
0000
0000
0000
0300
0300
0300
0300
0300
0300
0C00
0C00
0FC0
0FC0
3030
3030
3030
3030
C0C0
C0C0
C0C0
C0C0
0000
0000
0000
0000
ENDCHAR
STARTCHAR uni210F
ENCODING 8463
SWIDTH 994 0
DWIDTH 14 0
BBX 14 26 0 -6
BITMAP
0000
0000
0000
0000
0300
0300
03F0
03F0
3F00
3F00
0C00
0C00
0FC0
0FC0
3030
3030
3030
3030
C0C0
C0C0
C0C0
C0C0
0000
0000
0000
0000
ENDCHAR
STARTCHAR afii61289
ENCODING 8467
SWIDTH 994 0
DWIDTH 14 0
BBX 14 26 0 -6
BITMAP
0000
0000
0000
0000
00C0
00C0
0330
0330
0330
0330
0330
0330
0CC0
0CC0
0CC0
0CC0
0300
0300
0F00
0F00
30F0
30F0
0000
0000
0000
0000
ENDCHAR
STARTCHAR afii61352
ENCODING 8470
SWIDTH 994 0
DWIDTH 14 0
BBX 14 26 0 -6
BITMAP
0000
0000
0000
0000
30C0
30C0
30F0
30F0
3CCC
3CCC
3CCC
3CCC
3330
3330
C300
C300
C300
C300
C300
C300
C300
C300
0000
0000
0000
0000
ENDCHAR
STARTCHAR uni2119
ENCODING 8473
SWIDTH 994 0
DWIDTH 14 0
BBX 14 26 0 -6
BITMAP
0000
0000
0000
0000
3FF0
3FF0
330C
330C
330C
330C
330C
330C
33F0
33F0
CC00
CC00
CC00
CC00
CC00
CC00
CC00
CC00
0000
0000
0000
0000
ENDCHAR
STARTCHAR uni211A
ENCODING 8474
SWIDTH 994 0
DWIDTH 14 0
BBX 14 26 0 -6
BITMAP
0000
0000
0000
0000
0FF0
0FF0
330C
330C
330C
330C
330C
330C
330C
330C
CC30
CC30
CC30
CC30
CF30
CF30
3FC0
3FC0
0030
0030
0000
0000
ENDCHAR
STARTCHAR uni211D
ENCODING 8477
SWIDTH 994 0
DWIDTH 14 0
BBX 14 26 0 -6
BITMAP
0000
0000
0000
0000
3FF0
3FF0
330C
330C
330C
330C
330C
330C
33F0
33F0
CC30
CC30
CC30
CC30
CC30
CC30
CC30
CC30
0000
0000
0000
0000
ENDCHAR
STARTCHAR trademark
ENCODING 8482
SWIDTH 994 0
DWIDTH 14 0
BBX 14 26 0 -6
BITMAP
FFF0
FFF0
33F0
33F0
CCC0
CCC0
CCC0
CCC0
0000
0000
0000
0000
0000
0000
0000
0000
0000
0000
0000
0000
0000
0000
0000
0000
0000
0000
ENDCHAR
STARTCHAR Omega
ENCODING 8486
SWIDTH 994 0
DWIDTH 14 0
BBX 14 26 0 -6
BITMAP
0000
0000
0000
0000
0FF0
0FF0
300C
300C
300C
300C
300C
300C
C030
C030
C030
C030
30C0
30C0
30C0
30C0
F0F0
F0F0
0000
0000
0000
0000
ENDCHAR
STARTCHAR uni2127
ENCODING 8487
SWIDTH 994 0
DWIDTH 14 0
BBX 14 26 0 -6
BITMAP
0000
0000
0000
0000
3C3C
3C3C
0C30
0C30
0C30
0C30
300C
300C
300C
300C
C030
C030
C030
C030
C030
C030
3FC0
3FC0
0000
0000
0000
0000
ENDCHAR
STARTCHAR oneeighth
ENCODING 8539
SWIDTH 994 0
DWIDTH 14 0
BBX 14 26 0 -6
BITMAP
0000
0000
0C00
0C00
3C00
3C00
0C00
0C00
3000
3000
30F0
30F0
FF0C
FF0C
03F0
03F0
0C30
0C30
0C30
0C30
03C0
03C0
0000
0000
0000
0000
ENDCHAR
STARTCHAR threeeighths
ENCODING 8540
SWIDTH 994 0
DWIDTH 14 0
BBX 14 26 0 -6
BITMAP
0000
0000
3C00
3C00
0300
0300
3C00
3C00
0300
0300
0CF0
0CF0
F30C
F30C
03F0
03F0
0C30
0C30
0C30
0C30
03C0
03C0
0000
0000
0000
0000
ENDCHAR
STARTCHAR fiveeighths
ENCODING 8541
SWIDTH 994 0
DWIDTH 14 0
BBX 14 26 0 -6
BITMAP
0000
0000
3F00
3F00
3000
3000
F000
F000
0C00
0C00
0CF0
0CF0
F30C
F30C
03F0
03F0
0C30
0C30
0C30
0C30
03C0
03C0
0000
0000
0000
0000
ENDCHAR
STARTCHAR seveneighths
ENCODING 8542
SWIDTH 994 0
DWIDTH 14 0
BBX 14 26 0 -6
BITMAP
0000
0000
FC00
FC00
0C00
0C00
3000
3000
3000
3000
C3C0
C3C0
CC30
CC30
0FC0
0FC0
30C0
30C0
30C0
30C0
0F00
0F00
0000
0000
0000
0000
ENDCHAR
STARTCHAR arrowleft
ENCODING 8592
SWIDTH 994 0
DWIDTH 14 0
BBX 14 26 0 -6
BITMAP
0000
0000
0000
0000
0000
0000
0000
0000
0C00
0C00
3000
3000
FFFC
FFFC
C000
C000
3000
3000
0000
0000
0000
0000
0000
0000
0000
0000
ENDCHAR
STARTCHAR arrowup
ENCODING 8593
SWIDTH 994 0
DWIDTH 14 0
BBX 14 26 0 -6
BITMAP
0000
0000
0000
0000
0300
0300
0FC0
0FC0
3330
3330
0300
0300
0300
0300
0C00
0C00
0C00
0C00
0C00
0C00
0C00
0C00
0000
0000
0000
0000
ENDCHAR
STARTCHAR arrowright
ENCODING 8594
SWIDTH 994 0
DWIDTH 14 0
BBX 14 26 0 -6
BITMAP
0000
0000
0000
0000
0000
0000
0000
0000
00C0
00C0
0030
0030
FFFC
FFFC
00C0
00C0
0300
0300
0000
0000
0000
0000
0000
0000
0000
0000
ENDCHAR
STARTCHAR arrowdown
ENCODING 8595
SWIDTH 994 0
DWIDTH 14 0
BBX 14 26 0 -6
BITMAP
0000
0000
0000
0000
00C0
00C0
00C0
00C0
00C0
00C0
00C0
00C0
00C0
00C0
0300
0300
3330
3330
0FC0
0FC0
0300
0300
0000
0000
0000
0000
ENDCHAR
STARTCHAR arrowboth
ENCODING 8596
SWIDTH 994 0
DWIDTH 14 0
BBX 14 26 0 -6
BITMAP
0000
0000
0000
0000
0000
0000
0000
0000
0CC0
0CC0
3030
3030
FFFC
FFFC
C0C0
C0C0
3300
3300
0000
0000
0000
0000
0000
0000
0000
0000
ENDCHAR
STARTCHAR arrowupdn
ENCODING 8597
SWIDTH 994 0
DWIDTH 14 0
BBX 14 26 0 -6
BITMAP
0000
0000
0000
0000
0000
0000
0300
0300
0FC0
0FC0
3330
3330
0300
0300
0C00
0C00
CCC0
CCC0
3F00
3F00
0C00
0C00
0000
0000
0000
0000
ENDCHAR
STARTCHAR minus
ENCODING 8722
SWIDTH 994 0
DWIDTH 14 0
BBX 14 26 0 -6
BITMAP
0000
0000
0000
0000
0000
0000
0000
0000
0000
0000
0000
0000
3FF0
3FF0
0000
0000
0000
0000
0000
0000
0000
0000
0000
0000
0000
0000
ENDCHAR
STARTCHAR notequal
ENCODING 8800
SWIDTH 994 0
DWIDTH 14 0
BBX 14 26 0 -6
BITMAP
0000
0000
0000
0000
0000
0000
000C
000C
0030
0030
3FFC
3FFC
0300
0300
0C00
0C00
FFF0
FFF0
3000
3000
C000
C000
0000
0000
0000
0000
ENDCHAR
STARTCHAR lessequal
ENCODING 8804
SWIDTH 994 0
DWIDTH 14 0
BBX 14 26 0 -6
BITMAP
0000
0000
0000
0000
0000
0000
0000
0000
003C
003C
03C0
03C0
3C00
3C00
0300
0300
00F0
00F0
0000
0000
FFF0
FFF0
0000
0000
0000
0000
ENDCHAR
STARTCHAR greaterequal
ENCODING 8805
SWIDTH 994 0
DWIDTH 14 0
BBX 14 26 0 -6
BITMAP
0000
0000
0000
0000
0000
0000
0000
0000
3C00
3C00
03C0
03C0
003C
003C
0FC0
0FC0
F000
F000
0000
0000
FFF0
FFF0
0000
0000
0000
0000
ENDCHAR
STARTCHAR uni2408
ENCODING 9224
SWIDTH 994 0
DWIDTH 14 0
BBX 14 26 0 -6
BITMAP
0000
0000
0000
0000
3C00
3C00
3300
3300
3C00
3C00
CC00
CC00
F0F0
F0F0
0300
0300
00C0
00C0
00C0
00C0
0F00
0F00
0000
0000
0000
0000
ENDCHAR
STARTCHAR uni2409
ENCODING 9225
SWIDTH 994 0
DWIDTH 14 0
BBX 14 26 0 -6
BITMAP
0000
0000
0000
0000
3300
3300
3300
3300
3C00
3C00
CC00
CC00
CCFC
CCFC
0030
0030
0030
0030
00C0
00C0
00C0
00C0
0000
0000
0000
0000
ENDCHAR
STARTCHAR uni240A
ENCODING 9226
SWIDTH 994 0
DWIDTH 14 0
BBX 14 26 0 -6
BITMAP
0000
0000
0000
0000
3000
3000
3000
3000
3000
3000
C000
C000
FCFC
FCFC
00C0
00C0
00F0
00F0
0300
0300
0300
0300
0000
0000
0000
0000
ENDCHAR
STARTCHAR uni240B
ENCODING 9227
SWIDTH 994 0
DWIDTH 14 0
BBX 14 26 0 -6
BITMAP
0000
0000
0000
0000
C300
C300
C300
C300
CC00
CC00
CC00
CC00
33F0
33F0
00C0
00C0
00C0
00C0
0300
0300
0300
0300
0000
0000
0000
0000
ENDCHAR
STARTCHAR uni240C
ENCODING 9228
SWIDTH 994 0
DWIDTH 14 0
BBX 14 26 0 -6
BITMAP
0000
0000
0000
0000
0FC0
0FC0
0C00
0C00
0F00
0F00
3000
3000
33F0
33F0
0300
0300
03C0
03C0
0C00
0C00
0C00
0C00
0000
0000
0000
0000
ENDCHAR
STARTCHAR uni240D
ENCODING 9229
SWIDTH 994 0
DWIDTH 14 0
BBX 14 26 0 -6
BITMAP
0000
0000
0000
0000
0F00
0F00
3000
3000
C000
C000
C000
C000
3CF0
3CF0
00CC
00CC
00F0
00F0
0330
0330
0330
0330
0000
0000
0000
0000
ENDCHAR
STARTCHAR uni2424
ENCODING 9252
SWIDTH 994 0
DWIDTH 14 0
BBX 14 26 0 -6
BITMAP
0000
0000
0000
0000
30C0
30C0
3CC0
3CC0
3300
3300
C300
C300
C3C0
C3C0
00C0
00C0
00C0
00C0
0300
0300
03F0
03F0
0000
0000
0000
0000
ENDCHAR
STARTCHAR uni2669
ENCODING 9833
SWIDTH 994 0
DWIDTH 14 0
BBX 14 26 0 -6
BITMAP
0000
0000
0000
0000
0030
0030
0030
0030
0030
0030
0030
0030
00C0
00C0
0FC0
0FC0
3FC0
3FC0
3FC0
3FC0
0F00
0F00
0000
0000
0000
0000
ENDCHAR
STARTCHAR musicalnote
ENCODING 9834
SWIDTH 994 0
DWIDTH 14 0
BBX 14 26 0 -6
BITMAP
0000
0000
0000
0000
00F0
00F0
00CC
00CC
00C0
00C0
00C0
00C0
0300
0300
3F00
3F00
FF00
FF00
FF00
FF00
3C00
3C00
0000
0000
0000
0000
ENDCHAR
STARTCHAR ff
ENCODING 64256
SWIDTH 994 0
DWIDTH 14 0
BBX 14 26 0 -6
BITMAP
0000
0000
0000
0000
0C30
0C30
33CC
33CC
30C0
30C0
30C0
30C0
FFF0
FFF0
30C0
30C0
C300
C300
C300
C300
C300
C300
0000
0000
0000
0000
ENDCHAR
STARTCHAR fi
ENCODING 64257
SWIDTH 994 0
DWIDTH 14 0
BBX 14 26 0 -6
BITMAP
0000
0000
0000
0000
03C0
03C0
0C30
0C30
0C00
0C00
0C30
0C30
3FF0
3FF0
0C30
0C30
30C0
30C0
30C0
30C0
30C0
30C0
0000
0000
0000
0000
ENDCHAR
STARTCHAR fl
ENCODING 64258
SWIDTH 994 0
DWIDTH 14 0
BBX 14 26 0 -6
BITMAP
0000
0000
0000
0000
03F0
03F0
0C30
0C30
0C30
0C30
0C30
0C30
3FF0
3FF0
0C30
0C30
30C0
30C0
30C0
30C0
30C0
30C0
0000
0000
0000
0000
ENDCHAR
STARTCHAR ffi
ENCODING 64259
SWIDTH 994 0
DWIDTH 14 0
BBX 14 26 0 -6
BITMAP
0000
0000
0000
0000
0CC0
0CC0
3330
3330
3300
3300
3330
3330
FFF0
FFF0
3330
3330
CCC0
CCC0
CCC0
CCC0
CCC0
CCC0
0000
0000
0000
0000
ENDCHAR
STARTCHAR ffl
ENCODING 64260
SWIDTH 994 0
DWIDTH 14 0
BBX 14 26 0 -6
BITMAP
0000
0000
0000
0000
0CF0
0CF0
3330
3330
3330
3330
3330
3330
FFF0
FFF0
3330
3330
CCC0
CCC0
CCC0
CCC0
CCC0
CCC0
0000
0000
0000
0000
ENDCHAR
STARTCHAR uniFB05
ENCODING 64261
SWIDTH 994 0
DWIDTH 14 0
BBX 14 26 0 -6
BITMAP
0000
0000
0000
0000
0F00
0F00
30C0
30C0
30C0
30C0
30C0
30C0
FFF0
FFF0
30C0
30C0
C300
C300
C330
C330
C0C0
C0C0
0000
0000
0000
0000
ENDCHAR
STARTCHAR uniFB06
ENCODING 64262
SWIDTH 994 0
DWIDTH 14 0
BBX 14 26 0 -6
BITMAP
0000
0000
0000
0000
00F0
00F0
0330
0330
0330
0330
0F3C
0F3C
3030
3030
30C0
30C0
0CC0
0CC0
0CC0
0CC0
F030
F030
0000
0000
0000
0000
ENDCHAR
STARTCHAR uniFE20
ENCODING 65056
SWIDTH 994 0
DWIDTH 14 0
BBX 14 26 0 -6
BITMAP
00FC
00FC
0F00
0F00
0000
0000
0000
0000
0000
0000
0000
0000
0000
0000
0000
0000
0000
0000
0000
0000
0000
0000
0000
0000
0000
0000
ENDCHAR
STARTCHAR uniFE21
ENCODING 65057
SWIDTH 994 0
DWIDTH 14 0
BBX 14 26 0 -6
BITMAP
FFC0
FFC0
003C
003C
0000
0000
0000
0000
0000
0000
0000
0000
0000
0000
0000
0000
0000
0000
0000
0000
0000
0000
0000
0000
0000
0000
ENDCHAR
STARTCHAR uniFE22
ENCODING 65058
SWIDTH 994 0
DWIDTH 14 0
BBX 14 26 0 -6
BITMAP
03FC
03FC
0C00
0C00
0000
0000
0000
0000
0000
0000
0000
0000
0000
0000
0000
0000
0000
0000
0000
0000
0000
0000
0000
0000
0000
0000
ENDCHAR
STARTCHAR uniFE23
ENCODING 65059
SWIDTH 994 0
DWIDTH 14 0
BBX 14 26 0 -6
BITMAP
C00C
C00C
3FF0
3FF0
0000
0000
0000
0000
0000
0000
0000
0000
0000
0000
0000
0000
0000
0000
0000
0000
0000
0000
0000
0000
0000
0000
ENDCHAR
STARTCHAR uniFFFD
ENCODING 65533
SWIDTH 994 0
DWIDTH 14 0
BBX 14 26 0 -6
BITMAP
0000
0000
0000
0000
0FC0
0FC0
3CF0
3CF0
3330
3330
3F30
3F30
3CF0
3CF0
F3C0
F3C0
FFC0
FFC0
F3C0
F3C0
3F00
3F00
0000
0000
0000
0000
ENDCHAR
ENDFONT
